<?xml version="1.0" encoding="UTF-8"?>
<svg id="Layer_1" data-name="Layer 1" xmlns="http://www.w3.org/2000/svg" viewBox="0 0 467.01 472.51">
  <defs>
    <style>
      .cls-1 {
        fill: none;
      }

      .cls-2 {
        fill: #00a4ca;
      }

      .cls-3 {
        fill: #e82627;
        stroke: #e82627;
        stroke-miterlimit: 10;
      }

      .cls-4 {
        fill: #f6d420;
      }

      .cls-5 {
        fill: #fff;
      }

      .cls-6 {
        font-size: 40.09px;
      }

      .cls-6, .cls-7 {
        fill: #231f20;
        font-family: BebasNeueBold, 'Bebas Neue';
      }

      .cls-7 {
        font-size: 42.94px;
      }
    </style>
  </defs>
  <g>
    <path class="cls-1" d="M163.5,119.33h140.86c-20.7-12.14-44.76-19.13-70.43-19.13s-49.74,6.99-70.43,19.13Z"/>
    <path class="cls-1" d="M233.93,87.93c34.72,0,66.74,11.73,92.36,31.4h10.5c-27.72-23.68-63.63-38.02-102.86-38.02s-75.14,14.34-102.86,38.02h10.5c25.62-19.67,57.64-31.4,92.36-31.4Z"/>
    <path class="cls-1" d="M364.45,149.94v12.22c13.61,22.76,21.46,49.35,21.46,77.75,0,73.14-51.94,134.37-120.87,148.77-5.08,3.5-9.63,6.46-13.39,8.82,79.15-8.84,140.89-76.13,140.89-157.59,0-33.39-10.4-64.38-28.09-89.97Z"/>
    <path class="cls-1" d="M81.96,239.91c0-28.21,7.75-54.63,21.19-77.29v-12.3c-17.53,25.51-27.82,56.37-27.82,89.59,0,81.37,61.6,148.59,140.62,157.56-3.61-2.31-7.96-5.21-12.93-8.74-69.03-14.32-121.06-75.6-121.06-148.81Z"/>
    <path class="cls-1" d="M141.56,334.52c-46.18-49.76-38.64-116.57-38.3-119.39l.26-2.17-.37-.27v-21.87c-5.75,15.28-8.93,31.82-8.93,49.09,0,55.81,32.9,104.06,80.32,126.42-10.37-8.94-21.57-19.51-32.99-31.81Z"/>
    <path class="cls-1" d="M364.19,213.35l.2,2.16c4.92,52.87-12.34,82.89-15.68,88.15-13.19,23.87-33.43,44.88-52.86,61.44,46.05-22.87,77.8-70.38,77.8-125.2,0-17.52-3.27-34.29-9.19-49.76v23.01l-.26.19Z"/>
    <path class="cls-1" d="M233.93,24.41C115.11,24.41,18.44,121.08,18.44,239.91s96.67,215.5,215.5,215.5,215.5-96.67,215.5-215.5S352.76,24.41,233.93,24.41ZM233.93,450.66c-116.21,0-210.75-94.54-210.75-210.75S117.73,29.16,233.93,29.16s210.75,94.54,210.75,210.75-94.54,210.75-210.75,210.75Z"/>
    <path class="cls-2" d="M233.93,100.2c25.68,0,49.74,6.99,70.43,19.13h21.92c-25.62-19.67-57.64-31.4-92.36-31.4s-66.74,11.73-92.36,31.4h21.92c20.7-12.14,44.76-19.13,70.43-19.13Z"/>
    <path class="cls-2" d="M94.23,239.91c0-17.27,3.17-33.8,8.93-49.09v-28.2c-13.44,22.66-21.19,49.08-21.19,77.29,0,73.21,52.04,134.49,121.06,148.81-8.13-5.78-17.86-13.23-28.48-22.39-47.41-22.37-80.32-70.61-80.32-126.42Z"/>
    <path class="cls-2" d="M373.64,239.91c0,54.81-31.74,102.33-77.8,125.2-11.01,9.39-21.75,17.34-30.81,23.57,68.93-14.4,120.87-75.62,120.87-148.77,0-28.4-7.85-54.99-21.46-77.75v27.99c5.92,15.47,9.19,32.23,9.19,49.76Z"/>
    <path class="cls-2" d="M233.93,12.14C108.34,12.14,6.17,114.32,6.17,239.91s102.18,227.77,227.77,227.77,227.77-102.18,227.77-227.77S359.53,12.14,233.93,12.14ZM233.93,455.41c-118.83,0-215.5-96.67-215.5-215.5S115.11,24.41,233.93,24.41s215.5,96.67,215.5,215.5-96.67,215.5-215.5,215.5Z"/>
    <path class="cls-4" d="M233.93,29.16C117.73,29.16,23.18,123.7,23.18,239.91s94.54,210.75,210.75,210.75,210.75-94.54,210.75-210.75S350.14,29.16,233.93,29.16ZM251.65,397.5c-6.31,3.96-10.41,6.26-11.1,6.64l-5.35,2.97c-.8.45-1.78.45-2.59.02l-5.39-2.89c-.52-.28-4.62-2.51-11.27-6.77-79.01-8.96-140.62-76.18-140.62-157.56,0-33.23,10.29-64.08,27.82-89.59v-28.28c0-1.49,1.21-2.7,2.7-2.7h25.22c27.72-23.68,63.63-38.02,102.86-38.02s75.14,14.34,102.86,38.02h24.96c1.49,0,2.7,1.21,2.7,2.7v27.91c17.69,25.58,28.09,56.58,28.09,89.97,0,81.47-61.75,148.75-140.89,157.59Z"/>
  </g>
  <g>
    <polygon points="111.66 126.69 355.9 126.69 355.9 202.87 342.78 212.39 343.04 140.33 125.56 140.33 125.56 212.39 111.66 202.35 111.66 126.69"/>
    <path d="M111.66,214.11s-7.98,65.54,36.29,113.24c44.27,47.7,85.83,70,85.83,70,0,0,76.14-42.21,107.71-99.86,0,0,19.56-28.14,14.41-83.39,0,0-38.09,24.36-87.5,29.85l26.08,13.73s40.15-9.95,48.38-16.47c0,0,1.03,48.73-44.27,91.28-45.3,42.55-64.47,49.76-64.47,49.76,0,0-28.18-8.66-78.28-63.83-21.06-23.19-32-47.96-30.2-76.52,0,0,35,15.79,45.64,15.44l26.08-13.04s-47.53-7.55-85.7-30.2Z"/>
    <path d="M262.05,246.19l65.03,31.57s-6.01,14.41-9.27,16.99l-57.14-31.06s2.23-7.55,1.37-17.5Z"/>
    <path d="M239.4,230.41l17.84,9.27s2.75,17.84,0,25.57l-17.84,8.75v-43.58Z"/>
    <polygon points="210.75 238.64 228.94 230.41 235.11 233.15 235.11 250.65 210.75 238.64"/>
    <polygon points="198.74 248.94 209.38 243.1 228.25 252.2 210.75 260.95 198.74 248.94"/>
    <path class="cls-3" d="M160.82,267.81c.18-.06,4.21-2.09,9.42-4.74,10-5.08,24.38-12.41,24.38-12.41l11.32,11.5-37.58,21.28-7.55-15.61Z"/>
    <polygon points="210.75 264.72 235.11 253.06 235.11 270.47 228.25 273.99 210.75 264.72"/>
    <polygon points="140.92 277.42 157.04 269.36 164.94 284.97 149.5 294.75 140.92 277.42"/>
    <g>
      <path class="cls-2" d="M315.95,300.88h-57.31v58.29c37.25-28.16,57.31-58.29,57.31-58.29Z"/>
      <path class="cls-4" d="M209.23,300.88v58.29c14.27,10.44,25.14,16.35,25.14,16.35,8.77-5.2,16.86-10.74,24.28-16.35v-58.29h-49.41Z"/>
      <path class="cls-2" d="M151.92,300.88h57.31v58.29c-37.25-28.16-57.31-58.29-57.31-58.29Z"/>
    </g>
    <polygon points="181.49 300.88 233.18 350.13 284.61 300.88 181.49 300.88"/>
    <polygon class="cls-3" points="191.25 270.47 178.29 277.81 171.14 262.61 183.38 256.38 191.25 270.47"/>
    <g>
      <g>
        <path d="M190.67,182.22s.32.06.8.04c-.49-.06-.8-.04-.8-.04Z"/>
        <path d="M191.48,182.25c-.49.02-.8-.04-.8-.04,0,0,.31-.02.8.04,1.89-.1,6.49-1.59,6.49-13.94,0-15.53-14.58-14.58-14.58-14.58h-42.47v57.99h47.61s10.64-.34,10.64-15.27c0-12.1-5.58-13.94-7.69-14.2ZM179.52,197.66h-24.39v-8.56h24.9s4.02-.45,4.02,4.02-4.54,4.54-4.54,4.54ZM179.52,176.3h-24.39v-8.56h24.9s4.02-.45,4.02,4.02-4.54,4.54-4.54,4.54Z"/>
      </g>
      <path d="M249.95,174.94v-3.56s.51-3.26-3.86-3.26h-20.42s-5.96,0-5.96,8.17v15.25s-.51,5.83,4.89,5.83h21.4s4.55-.63,4.55-4.01v-3.93h13.64v11.54s.81,11.41-13.13,11.41h-30.28s-14.9.41-14.9-14.9v-29.77s-.46-14.4,14.38-14.4h28.78s14.5-1.29,14.5,15.06v6.65l-13.6-.09Z"/>
      <polygon points="265.61 211.92 281.31 211.92 299.28 167.39 317.73 211.92 333.26 211.92 308.51 153.71 290.28 153.71 265.61 211.92"/>
    </g>
  </g>
  <g>
    <path class="cls-5" d="M95.38,116.05s-58.2,71.55-43.05,171.21c0,0-26.71-91.68,43.05-171.21Z"/>
    <path class="cls-5" d="M375,116.05s58.2,71.55,43.05,171.21c0,0,26.71-91.68-43.05-171.21Z"/>
  </g>
  <text class="cls-7" transform="translate(140.66 101.21) rotate(-29.96)"><tspan x="0" y="0">B</tspan></text>
  <text class="cls-7" transform="translate(166.3 87.57) rotate(-20.23)"><tspan x="0" y="0">A</tspan></text>
  <text class="cls-7" transform="translate(193.93 78.42) rotate(-10.32)"><tspan x="0" y="0">H</tspan></text>
  <text class="cls-7" transform="translate(223.62 74.14) rotate(-.93)"><tspan x="0" y="0">A</tspan></text>
  <text class="cls-7" transform="translate(252.58 74.59) rotate(10.01)"><tspan x="0" y="0">M</tspan></text>
  <text class="cls-7" transform="translate(286.52 81.95) rotate(20.71)"><tspan x="0" y="0">A</tspan></text>
  <text class="cls-7" transform="translate(313.4 93.21) rotate(30.22)"><tspan x="0" y="0">S</tspan></text>
  <g>
    <text class="cls-6" transform="translate(65.33 337.33) rotate(60.76)"><tspan x="0" y="0">C</tspan></text>
    <text class="cls-6" transform="translate(81.15 363.17) rotate(51.52)"><tspan x="0" y="0">O</tspan></text>
    <text class="cls-6" transform="translate(101.29 386.75) rotate(41.28)"><tspan x="0" y="0">M</tspan></text>
    <text class="cls-6" transform="translate(129.99 409.81) rotate(30.96)"><tspan x="0" y="0">B</tspan></text>
    <text class="cls-6" transform="translate(157.33 424.78) rotate(21.45)"><tspan x="0" y="0">A</tspan></text>
    <text class="cls-6" transform="translate(186.71 434.96) rotate(12.25)"><tspan x="0" y="0">T</tspan></text>
    <text class="cls-6" transform="translate(214.82 439.85) rotate(4.8)"><tspan x="0" y="0"> </tspan></text>
    <text class="cls-6" transform="translate(235.31 440.94) rotate(-2.85)"><tspan x="0" y="0">A</tspan></text>
    <text class="cls-6" transform="translate(266.36 438.16) rotate(-12.17)"><tspan x="0" y="0">C</tspan></text>
    <text class="cls-6" transform="translate(295.73 430.62) rotate(-21.58)"><tspan x="0" y="0">A</tspan></text>
    <text class="cls-6" transform="translate(324.27 418) rotate(-31.09)"><tspan x="0" y="0">D</tspan></text>
    <text class="cls-6" transform="translate(350.28 400.85) rotate(-40.28)"><tspan x="0" y="0">E</tspan></text>
    <text class="cls-6" transform="translate(372.36 380.81) rotate(-50.32)"><tspan x="0" y="0">M</tspan></text>
    <text class="cls-6" transform="translate(394.59 351.49) rotate(-60.59)"><tspan x="0" y="0">Y</tspan></text>
  </g>
</svg>