<?xml version="1.0" encoding="UTF-8"?>
<svg id="Layer_2" data-name="Layer 2" xmlns="http://www.w3.org/2000/svg" viewBox="0 0 431.63 414.43">
  <defs>
    <style>
      .cls-1 {
        fill: #181818;
      }
    </style>
  </defs>
  <g id="Layer_1-2" data-name="Layer 1">
    <g>
      <g id="Hkpagl">
        <g>
          <path class="cls-1" d="M211.6,223.57c-.62.11-1.16-.48-1.5-.94-3.86-5.12-7.05-10.88-12.57-14.82-2.91-2.08-6.27-3.59-9.75-4.5-1.99-2.81-4.19-5.66-6.19-8.44-1.66-2.31-3.21-4.92-4.88-7.13-.25-.33-.66-.61-.94-.94-1.25,1.36-2.71,2.56-3.94,3.94-17.72,19.83-24.27,43.44-10.5,67.15,1.88,2.18,3.2,5.01,4.88,7.13.36.45,1.8,1.61,1.88,1.88.25.87-.39.98-.75,1.5-1.78,2.61-4.21,4.94-6.38,7.5-.69.81-1.57,2.18-2.25,3-2.6,3.13-5.83,6.1-7.13,9.75-.42,1.17-.94,3.29-1.13,4.5-.08.52.05,1.15,0,1.69-1.26-.37-1.87-1.45-2.81-2.25-5.7-4.87-9.98-10.87-13.69-17.44-19.66-34.8-.82-76.2,33.57-93.6l3.19-1.5c.36-1.28-.41-1.44-.75-2.06-1.42-2.64-3.07-5.24-4.5-7.88-3.35-6.19-5.82-12.59-7.13-19.13-1.73-8.64-.89-17.75,2.63-25.51,2.55-5.63,7.06-9.91,11.82-13.32,6.41-4.59,10.86-6.37,18.38-7.5,5.48-.83,11.52-.69,16.88.75,8.24,2.21,16.91,7.49,20.44,15.94.85,2.04.85,3.49,1.13,5.63.02.14.36.24.38.38.2,2.22.18,6.01,0,8.25-.01.13-.36.24-.38.38-.15,1.44-.05,2.72-.38,4.13-2.39,10.29-10.59,19.81-20.07,24.2-1.12.52-2.27,1.43-3.38,1.88-.3.12-1.1.12-1.5.38-1.14-1.46-2.06-3.01-3.56-4.31l-1.13-2.63c.84-.79,1.59-1.66,2.44-2.44,4.72-4.33,7.15-7.95,8.82-14.44.53-2.04,1.31-4.64,1.5-6.75.66-7.25-1.86-14.78-7.69-19.32-1-.14-2.1-1.17-3-1.5-.82-.3-1.81-.23-2.63-.38-.14-.03-.24-.36-.38-.38-5.03-.62-10.09,1.51-13.32,5.44-.4,1.06-1.39,2.22-1.88,3.38-.09.21.09.53,0,.75s-.72.99-.75,1.13c-.09.44.08,1.04,0,1.5-.03.14-.36.24-.38.38-2.65,19.37,10.79,31.54,21.01,45.77,1.76,1.76,3.32,3.63,4.5,5.63.93,1.58,1.13,2.04,1.5,3.75,1.05,4.82,1.11,9.62,3.75,14.26s6.61,8.3,9.75,12.38c.31.4.79.73,1.13,1.13-1.74,2.43-4.25,4.48-6.38,6.75-1.62,1.73-4.12,4.07-5.63,6-.26.33-.51.36-.38.94ZM196.03,185.31c-.27.06-1.06.87-1.5.75-1.24.89-1.65,2.81-1.31,4.31.03.13.3.21.38.38.05.12-.05.29,0,.38.48.8,1.53.95,2.06,1.69h2.63c.53-.73,1.6-.91,2.06-1.69.05-.08-.05-.26,0-.38.07-.16.35-.24.38-.38.08-.36.08-1.89,0-2.25-.03-.13-.3-.21-.38-.38-.05-.12.05-.29,0-.38-.14-.23-1.46-1.55-1.69-1.69-.08-.05-.26.05-.38,0-.16-.07-.24-.35-.38-.38-.33-.07-1.54-.07-1.88,0Z"/>
          <g>
            <path class="cls-1" d="M182.71,291.85c-.07.07.1.39,0,.56-.6,1.08-2.01,2.08-2.63,3.75-.23.63-.24,1.59-.38,2.25-.03.15-.35.24-.38.38-.09.61-.09,2.02,0,2.63.02.14.35.23.38.38.07.35-.09.82,0,1.13.42,1.43,1.97,3.51,3,4.88-.09.81.62,1.38.38,2.25-.16.59-1.7,1.07-2.06,1.69-2.28.58-4.88,1.07-7.5.75-.14-.02-.23-.35-.38-.38-.46-.08-1.07.1-1.5,0-5.14-1.17-12.01-5.99-14.82-10.69-.87-1.46-1.19-2.94-1.5-4.5-.03-.15-.35-.24-.38-.38-.12-.8-.12-2.95,0-3.75.02-.14.34-.23.38-.38.07-.34-.09-.81,0-1.13.05-.17.66-.9.75-1.13.96-2.39,1.37-2.87,3-4.88,6.32-7.79,14.27-15.89,21.38-23.26,2.48-2.57,11.12-10.12,12.38-12.38.57-1.02.55-.36.75-.56,7.56-7.56,15.34-16.45,22.88-24.2,2.74-2.81,12.51-11.42,13.88-13.88,2.16-3.87,11-9.69,13.13-13.5,1.98-3.55,9.73-8.6,11.63-12,1.84-3.31,15.15-15.84,19.13-19.88,10.65-10.82,21.37-21.24,32.26-31.7l.38,2.06c1.35,5.02,1.59,11.84.75,17.26-2.55,16.31-11.54,32.16-21.01,46.52-11.16,16.92-24.24,33-37.89,48.77-1.2,1.39-2.45,2.53-3.56,3.94-.6-.29-1.03-.79-1.5-1.13-1.79-1.28-3.77-2.8-5.63-4.13-2.11-1.51-4.21-2.92-6.38-4.13-.24-.13-1-.72-1.13-.75-.48-.1-2.48-.09-3,0-.14.02-.22.33-.38.38-.24.07-.55-.08-.75,0-.57.23-1.04.81-1.5,1.13-.09.06-.3-.06-.38,0-2.86,2.14-4.4,7.51-6.19,10.69-5.69,10.12-14.42,17.01-22.7,24.95-2.61,2.5-10.09,11.1-12.38,12.38-.18.1-.49-.07-.56,0ZM208.22,255.08c.07-.07-.1-.39,0-.56.25-.44.91-.94,1.13-1.5-.08-.58.12-1.35,0-1.88-.03-.13-.3-.21-.38-.38-.05-.12.05-.29,0-.38-.12-.2-1.57-1.66-1.69-1.69-.23-.07-.53.07-.75,0-.15-.05-.23-.34-.38-.38-.92-.21-1.18.28-1.5.38-.43.12-1.03.12-1.5.38l-1.31,1.69c-.18,1.79.04,3.71,1.69,4.69.08.05.26-.05.38,0,.16.07.24.35.38.38.36.08,2.31.09,2.63,0,.19-.05.49-.61.75-.75.18-.1.49.07.56,0ZM176.9,278.34c-.14.02-.22.33-.38.38-.22.07-.52-.07-.75,0-.09.03-1.21,1.14-1.31,1.31-.05.08.05.26,0,.38-.07.16-.35.24-.38.38-.09.39-.09,2.23,0,2.63.03.13.3.21.38.38.05.12-.05.29,0,.38.26.43.98.86,1.31,1.31l2.25.75c.31-.56.76-.27,1.13-.38.17-.05.5-.57.75-.75.08-.05.28.06.38,0,.58-.37.64-1.29,1.31-1.69v-2.63l-1.31-1.69c-1.17-.47-2.01-.99-3.38-.75Z"/>
            <path class="cls-1" d="M249.11,254.33h.75c.07-.07-.1-.39,0-.56.16-.3,3.21-3.34,3.56-3.56.1-.07.58.04.75-.38.4.46.96.38,1.31.94,1.17,1.84,2.76,3.91,4.13,5.63,10.18,12.81,21.38,25.38,37.7,30.2,2.45.72,5.25,1.66,7.88,1.88,2.19.18,5.12-.34,7.13,0,.15.02.34.58.94.38-.09.64.13,1.49,0,2.06-.14.62-1.08,1.33-1.5,1.88-2.17,2.79-4.6,4.56-7.69,6.19-8.85,4.65-20.46,5.82-29.64,1.5-7.01-3.21-12.81-8.94-17.82-14.82-.56-.65-1.63-1.92-2.44-1.69-.41.12-5.06,5.17-6,6-10.25,9.05-23.72,15.31-36.76,17.63-6.14,1.09-14.15,1.89-20.63.75-.46-.08-1.04.08-1.5,0-.13-.02-.21-.31-.38-.38-.2-.08-.5.07-.56,0-.07-.07.1-.39,0-.56-.14-.26-.6-.49-.75-.75-.67-1.14-1.22-2.34-1.88-3.38-.22-.35-1.03-1.06-1.13-1.5-.1-.47-.1-2.91,0-3.38.03-.14.31-.22.38-.38,1.16-2.92,2.46-4.08,4.69-6.19,1.24-1.17,3.14-2.7,4.5-3.75.4-.31.73-.79,1.13-1.13h.38c.31.57.78.26,1.13.38,9.81,3.14,18.03,4.19,28.51,1.5,7.82-2.01,15.8-7.17,20.82-13.69.25-.32,1.07-.92,1.13-1.13.24-.83-1.03-1.92-1.5-2.63-4.19-6.37-8.98-13.13-13.13-19.51-.33-.51-2.31-2.77-1.88-3.19.56-.07.96,0,1.5.19,1.74.59,2.9,2.11,4.31,3.19,2.29,1.74,5.01,3.76,7.5,5.25.38.23.79.46,1.13.75.11,0,.21-.3.38-.38.23-.11.97-.27,1.13-.38.75-.5,2.35-2.18,2.44-3Z"/>
          </g>
        </g>
      </g>
      <g>
        <path class="cls-1" d="M141.38,337.52c6.72,3.59,11.9,8.43,14.95,13.56,6.07,10.13,6.22,22.34.54,32.98-4.27,8-11.5,13.76-20.37,16.24-8.65,2.49-18.07,1.28-27.51-3.76-7.23-3.86-12.89-8.41-17.07-13.49l8.22-15.4,7.83,4.18-3.54,11.55.72,2.13c1.27,1.11,2.84,2.06,4.45,2.92,10.8,5.77,23.05,1.05,30.64-13.16,7.86-14.72,4.75-27.53-5.71-33.12-1.7-.91-3.36-1.69-5.03-2.25l-2.04.55-8.12,9.88-7.74-4.13,8.5-15.91c7.17,1.1,14.23,3.45,21.29,7.22Z"/>
        <path class="cls-1" d="M44.51,339.25c-5.44-7.25-8.07-14.92-7.96-22,.15-10.72,4.91-19.96,13.39-26.33,15.88-11.93,36.25-8.9,49.16,8.3,12.62,16.81,9.94,36.19-6.72,48.7-15.8,11.87-34.9,8.61-47.87-8.67ZM82.01,331.7c13.11-9.84,16.78-21.65,11.22-29.05-5.56-7.4-17.61-6.91-31.64,3.63-13.26,9.96-16.86,21.23-11.24,28.7,5.85,7.79,17.86,7.08,31.67-3.28Z"/>
        <path class="cls-1" d="M70.86,272.53l-1.6-5.69-2.12-1.48-48.71,8.66-1.21,1.49.47,6.48-5.22.93-4.76-26.77,2.56-.46,37.41-34.76-37.12,6.6-1.5,2.03.43,6.29-5.22.93-4.27-24.02,5.22-.93,1.66,5.48,2.12,1.48,56.01-9.96,2.68,15.1-42.83,40.03,40.73-7.24,1.57-1.65-.56-6.46,5.32-.95,4.25,23.92-5.32.95Z"/>
        <path class="cls-1" d="M60.1,201.23l1.01-6.1-1.44-1.92-48.21-11.12-1.76,1.18-1.76,5.93-5.45-1.26,11.83-51.3,16.91,3.9-1.86,8.08-9.65-.64-1.43,1.06-3.73,16.16,22.18,5.11,2.47-10.71-.92-1.6-6.55-2.5,1.54-6.67,23.02,5.31-1.54,6.67-6.98-.62-1.62,1.01-2.47,10.71,19.83,4.57,2.2-1.37,1.94-6.68,5.45,1.26-7.56,32.79-5.45-1.26Z"/>
        <path class="cls-1" d="M72.21,148.06l3.3-5.57-.65-2.3-40.97-27.73-2.06.47-3.94,5.13-4.63-3.13,29.73-43.93,13.34,9.03-4.59,6.79-7.97-3.53-1.64.52-9.62,14.22,17.73,12,5.68-8.39-.31-1.95-5.21-4.69,3.84-5.67,19.65,13.29-3.84,5.67-6.29-3.09-1.93.44-5.68,8.39,19.25,13.03,11.29-16.69-.52-1.98-7.89-7.44,4.49-6.63,15.49,10.49-31.4,46.4-4.63-3.13Z"/>
        <path class="cls-1" d="M100.51,85.21l7.45-5.17,8.5,8.54,1.94.42c2.28-1.11,4.31-2.41,6.29-3.78,6.34-4.4,7.95-9.86,4.98-14.14-.99-1.43-2.45-2.52-4.12-2.89-4.57-1.17-9.69,1.09-16.65,2.4-10.48,1.99-17.55.09-22.33-6.81-6.76-9.75-3.78-22.02,9.05-30.93,5.23-3.63,11.65-6.56,19.15-8.6l9.29,13.39-7.37,5.11-7.69-7.69-1.61-.29c-1.89.49-3.51,1.38-5.25,2.58-6.18,4.29-7.61,9.5-4.69,13.7,3.41,4.91,8.78,3.18,17.92,1.3,12.18-2.58,19.37-2.88,25.3,5.68,6.98,10.06,3.42,22.86-10.76,32.7-5.07,3.52-11.49,6.45-19.25,9.13l-10.17-14.66Z"/>
        <path class="cls-1" d="M152.02,52.33l8.79-2.2,4.94,10.99,1.66,1.08c2.53-.23,4.89-.73,7.23-1.31,7.48-1.87,10.92-6.41,9.66-11.46-.42-1.68-1.4-3.23-2.83-4.16-3.86-2.71-9.45-2.41-16.42-3.64-10.5-1.84-16.45-6.12-18.48-14.26-2.88-11.51,4.25-21.94,19.4-25.74,6.17-1.55,13.21-2.02,20.96-1.27l3.96,15.81-8.7,2.18-4.47-9.92-1.4-.84c-1.94-.21-3.77.05-5.82.56-7.3,1.83-10.48,6.2-9.23,11.16,1.45,5.8,7.09,6.08,16.3,7.55,12.3,1.89,19.13,4.16,21.66,14.26,2.97,11.88-4.88,22.6-21.62,26.79-5.99,1.5-13.03,1.97-21.24,1.74l-4.33-17.31Z"/>
        <path class="cls-1" d="M290.44,56.57c3.39-1.6,6.21-4.14,8.96-7.85l-.17-1.72-4.6-2.57,1.78-4.69,20.11,7.62-1.78,4.69-7.1-1.14c-4.32,4.86-9.08,8.73-14.66,11.46l5.89,13.58,6.88,3.33-1.91,5.05-22.63-8.58.79-2.07-2.29-5.92c-7.99,2.85-15.49,2.79-23.7-.32-11.45-4.34-16.61-14.96-12.78-25.05,2.97-7.84,9.64-11.3,19.47-9.74-4.65-6.51-5.84-12.63-3.72-18.22,3.49-9.2,14.08-12.4,27.88-7.17,12.44,4.72,17.85,13.57,14.57,22.23-2.73,7.21-10.3,10.84-19.74,8.81l8.75,18.27ZM259.65,43.66c-2.63,6.94,1.06,15.15,8.64,18.02,2.89,1.09,5.72,1.24,8.73.63l-11.59-24.92c-2.77,1.32-4.69,3.38-5.78,6.27ZM287.36,24.98c2.22-5.86.9-10.28-3.15-11.82-3.88-1.47-7.73.27-9,3.6-1.64,4.33.08,9.31,3.83,16.82,4.34-2.48,6.91-4.91,8.31-8.6Z"/>
        <path class="cls-1" d="M343.36,134.95c-4.19-6.37-6.42-13.09-6.64-19.06-.49-11.8,5.23-22.59,15.3-29.22,7.58-4.98,16.68-6.58,25.65-4.52,8.79,1.96,16.48,7.51,22.36,16.46,4.5,6.85,7.29,13.55,8.54,20.01l-14.59,9.59-4.88-7.41,8.64-8.45.39-2.22c-.58-1.58-1.5-3.17-2.51-4.7-6.73-10.23-19.74-11.95-33.2-3.1-13.94,9.17-17.34,21.9-10.82,31.81,1.06,1.61,2.15,3.09,3.34,4.38l2.06.5,11.85-4.79,4.82,7.33-15.07,9.91c-5.78-4.4-10.85-9.83-15.25-16.52Z"/>
        <path class="cls-1" d="M428.39,179.68l-54.02,32.3.27,5.93-5.51.98-5.45-30.77,5.51-.98,1.62,6.37,1.37.54,13.26-7.54-3.58-20.23-14.9-2.26-.97,1.15.41,6.19-5.51.98-4.06-22.88,5.51-.98,1.47,6.1,62.16,11.41,2.42,13.67ZM388.62,167.44l2.69,15.19,19.62-11.41-22.31-3.78Z"/>
        <path class="cls-1" d="M423.12,264.37c-3.62,14.6-11.02,20.82-21.03,18.34-8.99-2.23-12.86-9.44-11.65-21.56-1.7,3.65-3.77,6.42-6.39,8.15-5.11,3.4-10.68,3.42-16.55,4.25-5.87.83-8.09,2.57-9.73,9.21l-.28,1.12-5.52-1.37c1.06-5.9,1.85-9.88,2.36-11.93,1.27-5.15,3.11-8.96,6.05-11.62,4.62-4.22,10.71-3.11,17.6-3.69,7.02-.65,10.5-3.06,12.05-9.34l.23-.94-19.75-4.89-2.15,1.06-1.9,6.08-5.43-1.34,7.79-31.45,5.43,1.34-1.11,6.08,1.41,1.94,48.02,11.89,1.78-1.15,1.86-5.9,5.43,1.34-8.51,34.36ZM396.53,246.56c-.19.75-.44,1.38-.63,2.13-2.22,8.99.69,14.48,8.55,16.42,6.74,1.67,12.11-1.57,13.85-8.59l1.07-4.31-22.84-5.66Z"/>
        <path class="cls-1" d="M381.73,345.66c-9.39,11.75-18.71,14.31-26.77,7.86-7.23-5.78-7.74-13.96-1.57-24.46-3.07,2.61-6.11,4.25-9.21,4.74-6.07.95-11.13-1.36-16.81-3.06s-8.42-1.05-12.69,4.3l-.72.9-4.45-3.55c3.43-4.91,5.81-8.2,7.13-9.86,3.31-4.14,6.58-6.84,10.36-8.02,5.96-1.9,11.03,1.65,17.53,4.01,6.64,2.35,10.82,1.6,14.85-3.44l.6-.75-15.9-12.7-2.39.06-4.28,4.73-4.37-3.49,20.22-25.32,4.37,3.49-3.55,5.06.47,2.35,38.65,30.88,2.09-.3,4.15-4.58,4.37,3.49-22.09,27.65ZM365.03,318.36c-.48.6-.98,1.07-1.46,1.67-5.78,7.23-5.43,13.44.9,18.5,5.43,4.33,11.66,3.64,16.18-2.01l2.77-3.47-18.39-14.69Z"/>
        <path class="cls-1" d="M318.14,398.23l-2.57-4.86,4.72-3.04.14-1.6-21.6-14.2-.45,24.9,1.49,1.17,5.56-1.86,2.57,4.86-20.45,10.83-2.57-4.86,4.75-3.61,1.34-34.76-9.66-18.24-2.04-.56-6.28,2.78-2.62-4.94,29.83-15.8,2.62,4.94-5.57,3.5-.69,2,7.99,15.08,32.24,20.9,6.29-2.13,2.57,4.86-27.61,14.62Z"/>
      </g>
    </g>
  </g>
</svg>