<?xml version="1.0" encoding="UTF-8"?>
<svg id="Layer_1" data-name="Layer 1" xmlns="http://www.w3.org/2000/svg" viewBox="0 0 864 864">
  <defs>
    <style>
      .cls-1 {
        fill: #010101;
        font-family: BrothersOT-Bold, 'Brothers OT';
        font-size: 28px;
        font-weight: 700;
      }

      .cls-2 {
        fill: #b52025;
      }
    </style>
  </defs>
  <path class="cls-2" d="M295.69,472.33l24.2,22.69s58,18.22,66.71,18.03,25.8,0,25.8,0l13.42,4.65,35-6.69,53.57-5.68,12.41-5.49,21.02-6.51,15.5-12.49,1.49-6.76,9.01,15.59,12,25.27s2.06,13.97-2.89,15.72-81.15,39.49-153.11,39.49-120.01-21.32-120.01-21.32l-32.86-22,1.36-15.83,9.54-10.18,3.69-17.98,4.15-10.53Z"/>
  <polygon class="cls-2" points="525.77 294.72 519.81 300.84 525.77 311.82 532.28 306.37 533.81 298.84 525.77 294.72"/>
  <polygon class="cls-2" points="485.81 280.66 477.81 287.34 483.81 297.71 493.81 288.83 485.81 280.66"/>
  <polygon class="cls-2" points="422.81 282.84 433.31 275.93 442.81 283.83 430.81 293.84 422.81 282.84"/>
  <polygon class="cls-2" points="373.91 289.04 380.31 283.85 386.6 286.83 381.81 292.84 373.91 289.04"/>
  <polygon class="cls-2" points="330.82 294.72 345.82 299.72 334.82 311.82 331.31 308.39 330.82 294.72"/>
  <g id="WBLGH4">
    <g>
      <path d="M625.54,139.11c42.91,41.57,71.61,98.34,79.21,158.29-.52,82.98,4.3,167.97,1.11,250.98-7.08,184.25-203.96,305.15-374.05,237.96-99.5-39.3-167.56-129.72-172.97-237.03-4.1-81.33.09-164.49.03-245.91,12.16-120.07,107.39-218.09,225.54-238.46,86.35-14.89,178.36,13.36,241.13,74.17ZM621.15,156.54c-41.78-44.12-103.7-74.09-164.8-79.74-140.15-12.97-270.11,89.31-283.57,230.5-.3,73.62.46,147.76.12,221.03-.14,30.67,1.82,56.41,11.88,86.04,28.28,83.33,103.16,149.66,188.81,169.19,150.47,34.29,299.97-69.03,317.25-222.19-.88-81.53,4.92-166.75-.06-248-3.37-54.84-22.97-102.83-57.97-145.03l-11.67-11.79Z"/>
      <g>
        <path d="M494.73,103.92c-.55,11.42,2.92,22.55,3.09,33.91,1.71.42,1.99-.66,3-1.5,8.68-7.23,15.16-16.94,23.62-24.41l15.37,7.41c-1.19,1.33-2.76,1.6-3.87,3.12-2.31,3.13-7.53,18.2-9.16,22.84-1.83,5.22-7.69,21.68-6.97,26.05.38,2.32,3.76,3.2.51,5.48l-19.5-9.99c1.52-2.97,5.58-1.95,7.47-5.02,2.03-3.29,6.13-16.86,7.56-21.44,1.09-3.49,1.57-7.15,2.96-10.53-1.86-.41-2.38,1.01-3.5,2-8.6,7.56-15.52,16.96-23.47,24.52-.98.93-1.43,1.83-3.02,1.47-.77-12.79-4.52-25.75-5-38.51-.07-1.96.07-1.56-2-1.49-1.05,4.66-2.14,9.44-3.49,14.02-1.51,5.11-6.64,18-5.34,22.31.4,1.35,2.34,1.79,1.82,3.67l-16-3c-.3-2.21-.08-1.61,1.3-2.19,2.87-1.21,3.89-1.93,5.22-4.79,2.88-6.22,12.51-37.55,12.56-43.51.03-3.37-1.5-3.67-2.07-6.5l18.91,6.08Z"/>
        <path d="M611.8,173.84c.15.19.12,1.52.96,2.5,2.45,2.85,5.05,5.67,7.56,8.48.51.77.53,1.62.57,2.51.23,5.18-4.62,18.04-5.84,24.26-.47,2.38-2.83,16.55-2.24,17.25,1.19-.48,2.51-1.18,3.51-1.99,3.32-2.68,17.1-14.14,18.04-16.96.45-1.35.55-2.65.45-4.05,1.5-.37,1.63.32,2.51.99,1.86,1.43,5.47,7.05,6.66,9.34.49.93,1.15,1.34.82,2.67-1.66.44-3.14-.94-4.52-.96-2.36-.03-24.43,17.05-27.98,19.96-2.46,2.02-4.54,4.96-6.99,7.01-2.23,1.86-10.38,8.5-9.3,1.74,2.76-17.31,6.19-34.59,9.8-51.74-1.58-.23-2.73.77-3.94,1.56-3.45,2.25-19.94,15.16-21.28,17.72-1.41,2.69-2.61,6.78-3.79,9.72-4.51-3.82-6.91-9.12-9.99-13.99,6.78,1.33,9.17-2.76,13.5-6.01,5.04-3.78,27.71-19.81,29.06-23.94.34-1.05.21-8.91,2.43-6.06Z"/>
        <g>
          <path d="M380.81,158.83c-.12-2.36,2.29-3.39,2.81-5.68,1.2-5.28-1.96-17.86-2.75-23.87s-.93-19.11-3.83-24.17c-1.48-2.57-4.39-2.42-4.22-5.27,13.32-.05,27.75-7.39,40.69-2.19,6.54,2.63,12.32,7.34,15.08,13.92,5.51,13.17,2.76,27.03-8.27,36.27s-26.3,6.68-39.5,10.99ZM410.54,107.11c-4.32-4.11-13.52-4.19-18.76-1.79l-.77.97,5.81,41.54c2.6-1.62,5.39-.7,8.28-1.21,14.35-2.54,14.5-20.97,10.2-31.78-.75-1.88-3.43-6.46-4.77-7.73Z"/>
          <path d="M355.81,167.83c3.51-5.97-2.57-11.07-6.62-14.9l-15.3,6.98c-1.08.82,1.31,12.3,3.15,13.7.83.63,2.95.08,3.76,1.73l-2.03,1.96-11.96,5.53c-.31-5.74.41-11.83.03-17.53-.65-9.75-2.52-23.14-4.1-32.9-.76-4.68-.37-7.88-4.92-10.07l17.5-10.49c2.31,1.6.01,3.31.66,6.3.38,1.74,9.3,11.54,11.31,13.72,8.96,9.69,18.92,18.54,28.52,27.47,0,1.17-19.06,9.28-19.99,8.5ZM343.81,147.83c1.99-1.65-12.1-14.76-14-15.99-.69,4.69,1.23,9.05,1.93,13.56.33,2.1-.5,4.67.55,6.45.89,1.51,1.16.69,2.18.15,2.99-1.58,5.9-3.54,9.34-4.17Z"/>
        </g>
        <path d="M592.81,154.84c.53.47-4.19,9.83-4.97,11.36-.63,1.24-1.95.48-3.03.63l-1.22-8.79c-4.2-1.63-8.17-6.8-11.76-8.74-.98-.53-1.88-.71-2.96-.42l-7.04,12.9c4.74,1.38,6.25,5.25,11.46,6.07,1.34.21,1.77-.67,1.51,1.47l-9.99,10.51c.89-5.59-3.27-10.41-8.42-11.97l-11.48,15.47c-.03,1.61,10.59,8.67,12.89,9.08s10.51-2.05,11.01-1.58c.18,2.01-2.09,3.8-3.5,5-1.19,1.01-8.12,5.57-9.17,5.89-2.55.78-5.02-3.4-6.83-4.89-7.33-6.05-15.66-10.95-22.5-17.5,1.73-1.02,4.11-.95,5.96-2.04,3.77-2.23,9.59-13.19,12.62-17.38,3.98-5.51,14.27-17.29,16.01-23.07.57-1.89-1.06-3.94-.58-6.01,7.81,6.77,16.37,12.61,24.5,19,2.35,1.85,3.88,4.98,7.5,5.01Z"/>
        <g>
          <path d="M214.82,225.84c-.32-1.77.42-2.88,1.16-4.34,2.76-5.43,12.22-19.16,16.31-23.69,10.47-11.57,31.69-10.32,41.52,1.52,16.46,19.82-3.23,40.37-13.5,57.49-2.37-2.69-1.42-6.8-5-9l-32.52-23.48c-2.93-1.53-5.45.08-7.98,1.48ZM265.54,210.11c-1.59-1.61-7.61-5.87-9.72-6.78s-9.39-2.61-11.44-2.49c-6.41.37-11.7,7.31-14.41,12.52,10.28,8.72,21.91,16.14,33.3,23.48,4.71-6.2,10.45-13.17,6.33-21.29-.38-.74-3.46-4.84-4.06-5.44Z"/>
          <path d="M294.81,152.83c-3.81.66-7.84-1.31-11.24.23-1.99.9-10.34,6.69-10.72,8.37.86,2.73,3.97,4.68,5.97,6.9,1.39,1.56,1.92,4.33,4.49,4.56,2.89-.07,9.33-7.89,9.51-11.06l9.99,11.99c-2.06.48-4.12-1.15-6.01-.58-3.6,1.08-5.71,4.46-8.99,6.08l12.62,14.42c9.54-3.33,13.69-10.96,12.38-20.91,2.09-.3,3.38,1.7,4.21,3.28,1.04,1.99,3.09,9.15,2.84,11.2-.44,3.48-8.74,8.13-11.55,10.52-1.5,1.27-15.76,14.88-16.49,14,1.44-7.54-2.18-8.89-6.01-13.5-5.69-6.84-17.53-23.73-24.03-27.97-2.04-1.33-4.37-1.2-5.96-3.03l29.49-25.5c.35-.16,1.14,2.22,1.94,3.05.91.96,9.31,6.33,7.55,7.94Z"/>
        </g>
      </g>
      <g>
        <path class="cls-2" d="M250.81,620.84c.03,3.38-5.15,3.41-4.81,7.32l11.81,37.68c1.39-.12,1.61-1.43,2.04-2.45,1.91-4.56,8.01-21.99,8.01-26.05,0-2.4-2.41-10.3-4.02-12.04-1.42-1.54-4.45-1.75-4.04-4.46h24c.6,2.43-.54,1.62-1.3,2.21-1.35,1.05-3.72,2.34-3.7,4.24,3.95,11.23,6.34,24.21,10.96,35.09.43,1.02.63,2.34,2.04,2.46l10.95-35.57c1.2-4.3-2.05-5.42-3.95-8.43h18c.44,2.87-2.72,3.17-4.03,4.7s-2.68,5.28-3.48,7.29c-5.64,14.21-11.57,32.28-16.04,46.99-.3.98-.45,1.95-.5,2.97l-8.36.1-6.63-16.51-5.46-17.54-10.58,33.92-9.87.03-9.82-27.68c-2.88-8.12-5.89-21.57-9.43-28.57-1.15-2.28-3.74-3.38-4.8-5.7h23Z"/>
        <path class="cls-2" d="M448.81,620.84c1,.8-6,4.62-6,5.5v17.5c3.24.16,4.52-3.05,5.98-4.48,3.15-3.1,9.82-8.91,11.53-12.54,1.49-3.18-1.55-3.14-1.51-5.98h20c-.26,3.22-4.67,4.43-7.02,6.48-4.75,4.14-8.86,9.12-12.79,14,1.56,2.29,2.21,5.01,3.39,7.44,3.81,7.88,11.68,22.48,16.57,29.43,1.6,2.27,3.65,2.48,4.86,4.64h-22l1.57-5.05-14.08-24.95c-.41-.11-4.83,2.79-5.25,3.23-1.7,1.75-1.66,16.17-1.21,19.24.52,3.56,3.6,4.35,3.97,7.52-6.92-2.19-13.07.01-20,0l3.01-5.49c-1.25-15.65,1.63-33.7.03-49.05-.38-3.66-2.07-4.73-4.04-7.46h23Z"/>
        <path class="cls-2" d="M536.31,620.84c.44.07,1.51,1.08,2.3,1.21,1.79,3.67,4.1,7.75,6.35,11.14,5.13,7.75,10.29,15.77,15.65,23.35.59.84.95,2.23,2.2,2.3.84-3.75-.3-8.09-.06-11.51.41-5.72,2.81-15.63-.08-20.85-1.13-2.06-4.07-3.03-3.86-5.64h18c-1.81,3.12-5.4,4.59-5.97,8.53-1.62,11.06.53,27.43.51,38.97,0,4.56-1.09,9.75-.53,14.5l-7.9-.1c-3.62-9.43-11.11-16.84-15.65-25.85l-15.45-21.05v38.5c0,3.03,5.11,5.77,5,8.5h-17c-.18-3.04,3.58-3.61,4.01-6.49.33-2.21-.26-4.77-.04-7.04,1.09-11.36,2.27-27.7,1.07-39.01-.55-5.18-2.99-6.07-6.04-9.46,5.38.61,12.36-.84,17.5,0Z"/>
        <path class="cls-2" d="M629.81,622.84v17c-4.6-5.01-7.44-9.58-14.71-10.79-7.72-1.29-14.11.86-17.49,8.08-2.79,5.96-3.06,16.39-1.35,22.76,1.36,5.06,5.05,12.04,10.27,13.72,3.22,1.03,12,1.45,13.12-2.43.71-2.47.52-16.51-1.08-18.12-.67-.67-2.72-.64-2.76-2.22,6.47-1.06,12.12.21,18.98-.54,1.07-.12,2.01.53,2.01,1.04,0,.79-2.94,1.63-3.51,2.49-3.42,5.14.27,18.68-1.96,23.04-1.94,3.8-18.62,7.36-22.96,6.92-29.26-2.94-37.72-41.92-14.52-58.4,10.81-7.68,23.9-6.06,35.96-2.54Z"/>
        <path class="cls-2" d="M348.81,620.84c.2,1.29-.84,2.35-.95,3.54-.76,8.38,7.37,24.94,10.47,33.44s4.17,18.41,11.48,25.02h-23c-.05-2.99,4.06-4.22,3.81-7.32-.08-.97-3.83-10.65-4.4-10.73l-19.36.1c-1.68,7.16-4.58,12.4,1.95,17.95h-19l5.42-7.08c4.59-13.57,10.55-28.07,14.09-41.91.73-2.86,2.01-6.52,1.53-9.4-.18-1.07-3.85-.97-3.05-3.61h21ZM329.81,656.84h14c-.62-7.28-5.7-13.75-6-21-2.09-.25-1.64-.19-2.2,1.28-2.44,6.38-3.46,13.31-5.8,19.73Z"/>
        <path class="cls-2" d="M397.81,620.84l-3.97,7.53.09,44.86.83,1.17c11.21,2.24,15.41-1.34,22.22-8.89.89-.99.91-2.13,2.83-1.66l-3,19h-40c1.06-2.45,4.4-3.37,4.05-6.45-1.26-15.07,1.5-32.3-.01-47.09-.36-3.49-1.5-4.86-4.55-6.46-1.01-.54.9-2,1.01-2h20.5Z"/>
        <path class="cls-2" d="M511.81,620.84c-1.04,3.02-5.56,2.79-5.05,6.45,1.63,15.17-2.04,34.37.08,49.02.14,1,.52,2.1,1.07,2.94,1.24,1.9,3.54.83,2.9,3.59-2.25.74-4.76-.95-6.49-.92-4.06.06-8.8.77-12.97.96-.8.04-2.47.35-2.53-.54l4.01-4.99v-51.03c-.06-2.81-4.45-2.29-4.01-5.48h23Z"/>
      </g>
      <path d="M359.53,703.05c8.57-1.48,17.53,5.54,18.31,14.25,1.78,19.69-23.8,24.85-31.86,8.87-4.93-9.77,3.51-21.39,13.55-23.13ZM360.51,706.98c-11.68,2.62-10.24,25.67,1.75,24.88,7.83-.52,8.38-11.65,7.52-17.5-.57-3.87-5.23-8.29-9.27-7.38Z"/>
      <path d="M387.31,734.84c-.29.03-1.33,1.9-1.5.5v-1.49c.85-.05,2.06-.25,2.55-.93,1.05-1.48.81-25.3-.51-27.45-.71-1.16-2.84.12-2.04-2.62h18.5c.4,0,6.32,3.39,6.96,4.04,6.3,6.36,5.74,22.3-2.73,26.19-.69.32-4.96,1.77-5.23,1.77-4.94,0-11.31-.55-16,0ZM394.81,730.84c5.2-.23,9.18,1.72,11.52-3.98,3.99-9.71,1.01-22.15-11.52-20.02v24Z"/>
      <path d="M479.82,702.83c.03,2.43-.21,4.86.21,7.29.89,5.19,5.03,16.55,7.01,21.99.33.92,2.14,2.42,1.78,2.72-3.68.25-7.64-.8-11,1-.5-2.06,2.03-2.61,2-4.46-.01-.71-1.11-4.52-1.57-4.59l-11.35.14-1.14,6.35c.12.69,3.92.66,2.05,2.57-.39.4-8.75-2.18-11-1-.31-1.59,1.18-.61,2.04-1.65,2.05-2.48,10.9-22.83,11.03-25.85.08-1.79-.27-2.96-1.07-4.49h11ZM476.81,722.83l-.44-3.06-3.06-7.94c-1.14,1.49-5.38,10.12-4.5,11h8Z"/>
      <path d="M328.31,702.84c4.16.71,8.63,4.38,9.3,8.73,1.46,9.43-7.33,15.19-15.8,12.27l-.05,9.41c.18,1.07,3.13-.09,2.04,2.59-3.36-1.81-7.31-.75-10.99-1l2.06-1.58c-1.04-7.89,1.2-18.41-.05-25.92-.34-2.01-2.31-2.44-2.01-4.49,4.74.56,11-.77,15.5,0ZM321.81,706.83c.78,3.64-2.37,14.76,3.28,13.83.76-.12,3.23-.93,3.75-1.3,2.29-1.67,1.58-8.27.48-10.54-1.28-2.64-5-2.01-7.51-1.99Z"/>
      <path d="M516.81,703.84v7c-3.52-3.13-13.19-7.53-12.04.52.47,3.31,9.95,6.11,12.51,9.51,5.08,6.71-1.21,13.57-8.19,14.76-4.07.7-7.2-1.34-11.29-.79v-9c1.97.21,2.41,2.98,3.24,3.76,3.1,2.88,10.79,3.86,10.84-2.25.04-4.08-6.97-5.75-10.04-8.04-8.98-6.71-2.91-17.22,7.47-16.51,2.42.17,4.82,1.61,7.49,1.05Z"/>
      <path d="M450.74,704.91l1.08,7.92c-3.98-.57-5.19-5.54-9.55-6.01-13.15-1.4-14.52,22.86-1.99,24.05,5.27.5,7.76-.56,11.54-4.03,1.74,6.29-5.4,8.61-10.47,9.03-16.67,1.38-24.28-20.56-9.88-29.88,6.44-4.17,12.36-3.63,19.27-1.07Z"/>
      <path d="M534.81,706.84c-4.49-.78-6.84,1.44-10,4l1-8c7.32.47,15.31-.62,22.54-.04,5.1.41,3.2,3.91,3.45,8.04-3.16-2.56-5.51-4.78-10-4v25.5c0,.4,2.88,1.94,1.5,2.5h-10.5c-.11-1.04,2-2.07,2-2.5v-25.5Z"/>
      <path d="M455.81,761.83c-6.02.8-12.9.74-18.55,2.96-1.84.72-4.13,3.09-5.79,2.9-1.19-.14-3.66-2.06-5.38-2.62-2.32-.76-4.67-1.32-7.01-1.99l-14.26-1.73c1.25-1.86,2.7-1.35,4.47-1.53,3.99-.39,8.99-.49,12.81-1.19,2.92-.53,7.34-3.78,9.21-3.78,1.74,0,6.39,3.17,9.21,3.78,3.67.79,8.08.71,11.83,1.17,1.54.19,3.03.12,3.46,2.04Z"/>
      <polygon points="608.81 350.84 606.81 349.33 606.85 348.38 609.81 345.84 608.81 350.84"/>
      <g>
        <path d="M276.81,478.84l-14.67,9.82c-4.84,2.3-10.76,7.08-16.04,7.96-4.76.8-9.5-.25-14.25,2.27l-.03,2.95c7.97-.23,13.48-.99,19,5.5,10.78,12.68,9.75,33.36-6.73,40.27-4.53,1.9-16.32,2.18-17.27,7.72-.51,2.97-.44,6.12,2.04,7.98,8.79,6.58,14.57-2.16,23.97-.46.33,2.79-.93,5.7-2.54,7.96-7.52,10.53-22.37,11.87-32.81,4.89-14.87-9.94-12.02-32.01-1.65-44.35,2.76-3.29,6.72-4.95,9-8.49-8.02-1.23-15.49-9.92-18.21-17.3-5.44-14.75,4.81-29.04,19.75-31.66,17.06-1.15,33.71,2.45,50.45,4.96ZM234.81,484.84h19.5c.22,0,1.84-1.72,1.5-2-5.37.95-10.43-1.59-15.47-2.03-7.82-.68-23.02.35-21.53,11.53.12.91,1.93.58,1.99.5.44-.57.71-3.37,2.46-4.05l4.54-1.45c-2.81,2.55-5.26,3.55-6.53,7.46-.38,1.16-1.52,4.8,1.04,4.04.99-.29.78-2.77,1.74-3.78.36-.37,4.36-3.09,5.04-3.44,4.07-2.07,10.14-2.33,14.72-2.79l-2.01-1.47-6.99-2.52ZM240.67,509.03c-.96-.68-8.01-.04-10.29-.26-6.13-.61-13.3-3.04-15.99-9.01l-2.57-5.92c-1.14,6.58,4.42,15.53,10.07,18.42,8.27,4.22,17.96,4.23,26.92,5.57l-4.98-2.51-10.02-1.49c-.22-1.35,2.77-1.93,3.57-2,2.62-.23,4.78,1.42,7.42,1,.15-1.69-2.29-1.24-3.39-1.95-.75-.49-.52-1.68-.75-1.85ZM242.81,524.84c-12.8,1.37-24.83,9.06-28,22l6.04-5.46,6.95-3.05c-5.21,4.42-12.26,9.11-12.99,16.5l3.55-4.95c7.76-8.32,20.05-5.9,26.18-12.32,1.69-1.77,2.65-5.68,5.27-7.23-1.9-1.92-2.86,1.79-4,3s-2.25,2.44-3.63,3.37l-14.36,4.63c4.83-3.7,11.82-4.35,15.99-9.01.18-2.59-.36-1.09-1.73-.73-3.07.79-6.19,1.5-9.26,2.24l10-8.99ZM237.81,570.84l-8.28-.22-7.71-3.29c3.73,4.13,6.75,6.17,12.54,5.55,1.55-.17,3.03-.15,3.45-2.04Z"/>
        <path d="M637.81,522.84l10,8.49c9.86,11.73,12.49,27.95,2.43,40.43-11.15,13.85-36.77,9.61-39.43-8.93,8.81-1.59,14.23,5.82,22.71,1.21,4.57-2.48,6.17-8.63,1.26-11.69-6.35-3.95-16.45-2.91-22.7-8.8-1.99-1.88-5.58-9.65-6.06-12.44-1.83-10.63,4.31-27.69,16.33-29.24,2.9-.37,6.12.3,8.95-.05.87-.11.67-1.88.49-2.49-1.23-4.12-13.07-1.69-16.33-2.67-1.07-.32-3.93-3.31-5.73-4.27-7.08-3.79-14.95-6.33-20.91-12.08-.06-1.27,5.36-1.97,6.75-2.24,12.93-2.51,33.95-7.05,46.25-2.77,25.17,8.75,20.38,42.25-4.01,47.52ZM644.81,492.83c.89-13.82-16.67-12.87-26.52-12.03-4.05.35-8.24,2.44-12.47,2.03l6.47,2.03c3.68-.16,7.38.13,11.06,0,2.88-.1,5.07-1.98,8.47-.03l-10.22,2.28-2.78,1.71c7.12.06,16.29,1.92,21.04,7.5.85.99.82,2.31.97,2.5.06.08,1.88.41,1.99-.5.45-3.62-2.38-7.67-4.99-10,.95-.24,3.2.57,3.98,1.01,1.89,1.05,1.26,3.39,3,3.49ZM614.82,517.83c10.59-2.46,25.19-.5,32.46-10.03,3.34-4.38,5.42-9.34,4.53-14.96l-2.57,6.92c-1.83,3.82-7.01,8.02-11.11,8.89-5.48,1.17-12.26-1.21-17.6,1.4-.77.37-3.01,1.68-2.22,2.78l4.98-1.01,6.52,1.02c-3.52.23-7.68,1.35-11.01,2.49-1,.34-4.02,1.26-3.99,2.51ZM648.81,547.84c-2.94-13.02-16.61-23.18-29.99-22l8.99,5.55,2,2.45-4.72-1.78-7.27-.73c3.93,4.63,10.03,5.49,15.25,7.74.94.4,3.72,1.59,3.74,2.75-4.94-1.9-11.18-2.22-15.7-4.8-3.46-1.97-4.5-4.84-7.3-7.2-.03,1.7,1.54,3.63,2.56,4.93,6.34,8.13,11.36,6.21,19.69,9.31,5.61,2.09,8.9,5.98,12.25,10.75,1.04-1.49-1.23-4.68-2.05-5.95-1.74-2.71-4.31-5.87-7.14-7.4l-2.31-3.64c4.51,2.73,8.4,6.24,11.99,10ZM625.81,570.84c1,2.87,5.99,2.3,8.31,1.81,1.16-.25,7.29-3.21,5.68-4.81-4.15,3.44-8.9,3.19-14,3Z"/>
        <path d="M254.81,421.84c-1.78-.27-1.69-2.48-2.99-3.5l.49-.49c1.21,1.3,2.89,2.09,2.5,3.99Z"/>
        <path d="M303.31,580.84c.65,0,.65,1,0,1s-.65-1,0-1Z"/>
        <path d="M557.54,582.11c1.17,1.15,2.77,4.31,4.27,5.73l-4.66-3.29-4.33-5.21,4.72,2.77Z"/>
        <path d="M541.31,578.84c.65,0,.65,1,0,1s-.65-1,0-1Z"/>
        <rect x="562.97" y="588.57" width=".69" height="3.53" transform="translate(-252.44 571.23) rotate(-45)"/>
        <rect x="268.82" y="421.84" width=".99" height="6"/>
        <path d="M279.81,409.84v.99s-3.5,2-3.5,2l-.49-.49c1.3-1.21,2.09-2.89,3.99-2.5Z"/>
        <path d="M270.81,420.83h-.99c-.18-1.45.99-2.55,1-3.99h.99s-1,3.99-1,3.99Z"/>
        <path d="M593.82,427.84l-.46-5.05-6.05-10.94c1.78,2.2,5.05,4.21,6.3,6.69,1.03,2.05,3.71,8.43.21,9.3Z"/>
        <g>
          <path d="M542.81,209.83c-2.54.2-4.33,4.8-7.36,3.93-20.89-19.26-48.04-29.94-75.7-35.36l-2.94-7.56c14.82.83,30.12,5.77,43.69,11.8s29.26,15.57,40.81,25.19c.6.5,1.49,1.19,1.5,2Z"/>
          <path d="M407.81,170.84l-2.47,7.03-1.15.85c-28.34,4.42-55.78,17.01-78.01,35.03l-6.38-2.92c5.65-6.3,13.8-11.93,21.07-16.42,12.44-7.69,28.64-15.32,42.71-19.29,3.21-.91,22.8-5.49,24.22-4.27Z"/>
          <path d="M592.82,295.84c-5.56-17.11-12.78-34.37-23.91-48.62l2.91-7.38c9.26,8.92,16.05,22.45,21.19,34.3,1.49,3.44,3.47,7.95,4.57,11.43,2.26,7.12.87,6.04-4.76,10.26Z"/>
          <path d="M271.81,294.84c-1.15-1.27-4.91-3.06-5.54-3.95-2.23-3.15,4.08-11.14,4.03-15.06,6.25-13,12.4-26.61,22.51-36.98l2.88,7.35c-10.46,14.61-18.83,31.43-23.88,48.65Z"/>
          <path d="M255.81,360.84v-20l6.81,6.48c-2.72,4.05-2.87,10.52-6.81,13.52Z"/>
          <path d="M581.81,352.84c-.3-.34-.68-.65-1-1,.22.16.81-.16,1,0,.09.35-.13.86,0,1Z"/>
          <path d="M557.81,352.84l-.99-.5c0-.63.96-.46.99-.5-.17.16.17.84,0,1Z"/>
          <path d="M580.81,351.84c-.31-.34-.67-.65-1-1,.02.07.94.96,1,1Z"/>
          <path d="M199.81,261.84c7.07-3.44,20.94-5.88,26.04,1.46,2.16,3.1,1.67,2.76,4.47,5.53,19.37,19.18,41.85,35.25,62.22,53.34.89.79-.58,3.1,3.61.5,6.28-3.9,13.28-10.93,19.95-14.05,1.26-.59,2.37-1.35,3.76-.34,7.3,8.58-1.68,13.82-5.87,21.23-.71,1.25-3.28,5.81-3.09,6.7,3.55,3.77,7.13,7.58,10.88,11.15,1.89,1.8,4.46,2.25,5.29,5.21l11.73,9.27c-1.88-6.77-1.56-14.42-3.45-21.04-1.6-5.61-3.92-4.96-5.96-9.05-1.46-2.93-2.1-5.97-1.4-9.23.74-3.45,4.25-7.1,3.64-10.95-.3-1.92-3.76-9.51-4.95-11.11-3-4.03-8.2-3.48-6.89-11.13.28-1.64,2.02-2.53,1.86-3.8-.34-2.79-4.95-14.22-6.33-17.71-4.51-11.37-10.26-23.43-15.32-34.68-.91-2.01-7.44-13.39-6.2-14.3,7.22-1.1,16.39-2.85,22.51,1.99,1.62,1.28,4.39,5.78,5.09,5.92.83.18,3.71-1.21,6.69-.7,10.54,1.79,14.61,9.11,13.74,19.32-.73,8.52-3.73,9.69-10.53,4.47-.75-.15-.65.99-.49,1.49,1.07,3.3,6.8,9.92,10.51,10.48,10.85,1.63,18.68-7.65,17.47-17.97-2.07-.26-1.04,5.05-3.42,3.93-5.43-2.55-8.59-10.62-7.58-16.44.46-2.65,3.35-3.34,3.85-5.14.47-1.66-.01-3.7.39-5.61,1.61-7.64,5.64-14.53,10.26-20.71,3.03,2.17,6.45,4.24,9.03,6.95,2.33,2.46,5.23,8.73,6.92,10.08,1.45,1.16,3.72,1.29,5.53,2.47,5.45,3.57,8.5,11.36,5.99,17.46-4.46-.93-11.53.05-9.52,6.07,2.46,7.32,5.86,2.03,9.21.09,4.48-2.6,13.03-6,18.06-6.94,2.9-.54,8.96-.07,11.34-1.66,2.63-1.76,2.49-13.44.87-16.46-7.89-1.14-9.61,2.29-9.93,9.41-.05,1.2.31,2.05-1.47,1.49-1.14-.36-5.8-2.48-6.89-3.12-4.41-2.61-10.05-14.2-9.62-19.28.58-6.75,7.75-18.47,15.44-17.61,2.94.33,5.31,3.57,8.55,3.01-1.22-3.03-3.41-9.07-2.58-12.01,2.96-10.53,13.93-18.56,19.08-27.99,4.56,6.69,10.79,13.17,14.95,20.05,1.59,2.63,3.82,6.3,3.53,9.36s-2.47,6.29-1.98,9.58c9.42-3.12,14.5-3.38,19.85,5.65,5.63,9.51,4.18,20.29-4.35,27.35-2.99,2.47-6.44,4.66-10.5,4,.18-4.16.78-8-3.94-9.57-9.41-3.12-6.99,11.2-4.98,16.48,8.09-.27,15.27,1.75,22.61,4.89,6,2.57,18.77,12.66,16.86-.86-1.56-2.32-8.5.71-9.44-2.56-1.13-3.9-.13-11.82,2.93-14.85,2.64-2.61,7.67-2.82,8.78-3.72.29-.23,1.62-3.96,2.36-5.15,2.14-3.46,8.85-11.13,13.11-10.52,4.48.64,8.7,12.32,9.47,16.58.41,2.26-.15,4.74.39,6.61.64,2.23,5.42,4.19,5.87,7.15.55,3.6-3.65,13.19-7.54,13.56-2.71.26-3.11-2.25-5.48-2.06-1.87,13.59,16.27,25.91,25.46,12.96.75-1.06,3.2-5.42,3.53-6.47.16-.5.27-1.64-.49-1.49-2.2,2.8-5.74,3-8.92,3.94-2.45-.49-2.75-8.45-2.61-10.47.86-11.82,9.42-18.47,20.99-15.49,3.07-12.11,18.52-9.13,28.04-7.97,1.18.93-7.13,15.01-8.2,17.3-3.48,7.47-7.23,16.05-10.31,23.69-1.52,3.76-9.56,24.28-9.31,26.37.29,2.43,2.89,3.14,1.37,7.7-1.41,4.21-6.39,5-6.58,5.58-.85,2.47-.6,5.39-1.19,7.64-.99,3.76-3.76,8.13-2.6,12.04.4,1.34,2.21,2.5,2.64,4.36,1.55,6.67-3.91,10.53-7.63,15.01l-7.18,35.31,32.99-33.5c-5.79-4.7-13.95-17.38-12.8-24.78,1.43-9.14,11.4-14.11,19.34-8.76,7.08,4.77,2.89,8.71,4.99,14.01,3.51,8.84,8.07.37,11.97-2.98,4.82-4.14,10.2-7.84,15.01-11.99,12.67-10.95,24.4-23.1,38.04-32.97-.26-3.97.74-10.53,4.08-12.91,4.74-3.37,14.17-5.04,19.63-2.87,10.45,4.16,14.41,20.44,7.76,29.26-4.83,6.42-6.42,3.38-12.33,4.67-4.36.96-7.92,7.54-10.65,10.37-12.72,13.16-26.25,26.76-38.04,40.94-1.66,1.99-6.18,7.3-4.55,9.54.5.7,6.91,5,8.23,5.78,1.66.98,5.68,3.28,7.27,3.73,2.12.6,5.66,0,6.61,1.4,2.83,19.41-15.63,24.18-29.49,13.49-1.97-1.52-7.96-8.74-9.47-8.39-1.12,1.54-3.12,2.21-4.32,3.25-9.02,7.8-18.47,17.73-27.31,26.19-14.65,14.01-28.23,29.4-44.51,41.49-2.46,12.87.09,25.83-6.03,37.97-1.34,2.65-10.33,11.76-10.32,12.57,3.75,4.1,8.29,13.87,14.39,13.56,3.04-.15,15.11-3.65,18.05-5.01,1.13-.52,2.34-.91,3.01-2.06.35-.6-.53-6.05-.78-7.28-2.68-12.81-13.9-29,.87-38.57,6.9-4.47,19.81-4.72,27.88-4.18,8.4.57,13.6,3.4,22.51.57s10.77-10.16,10.01-19.09c-.19-2.25-1.12-3.72-3.1-4.9-4.54-2.71-8.04-.83-11.89,2.02-2.38,1.76-3.63,5.04-7.07,4.43-3.25-22.27,20.83-37.52,37.99-21l2-20h7v16c8.69-7.59,18.61-13,30.53-12.03,14.21,1.15,22.45,10.84,21.47,25.03-8.59-6.87-22-7.04-30.5,0-2.22,1.84-12.32,13.89-10.49,16,13.52-5.36,33.4-.85,38.54,13.96.68,1.98.23,4.13,1.46,6.04-3.66-.22-6.85-2.51-10.56-2.93-12.82-1.46-18.78,8.36-29.42,12.45-12.8,4.92-22.17,3.8-35.03,0-19.22-5.68-29.9-12.72-51.46-9.49-3.12.47-10.04,5.25-10.15,8.45-.29,8.47,8.41,11.27,15.19,12.47,1.13.2,6.58,1.06,6.94,1.06h15.5c.23-1.36-2.72-1.54-3.76-1.74-5.16-1-28.75-3.41-30.12-7.88s1.32-6.94,5.33-8.42,15.49-1.49,19.82-.74c1.52.26,4.27,1.01,4.72,2.77-7.29-.89-12.99-1.27-20.27.23-.9.19-2.99.48-2.72,1.77,8.21-2.57,17.5.04,25.27,3.23s16.89,8.33,17.75,17.25c.87,8.9-1.12,12.52,3.55,21.45,5.22,9.99,14.82,15.12,5.44,27.59-5.95,7.91-23.03,16.57-32.3,20.7-1.71.76-6.24.68-5.67,3.23l16.96,20.05c8.08,11.28,16.58,22.81,19.99,36.5-19.98-3.44-37.83-15.7-53.5-27.99-6.1-4.79-13.24-12.69-19.55-16.45-5.43-3.24-9.9-.22-15.51.39-36.45,3.97-75.57,7.12-111.97,3.09-10.27-1.14-20.58-4.22-30.86-4.93-1.28.41-1.6,2.37-2.65,3.36-5.01,4.69-13.33,10.76-19.02,14.98-16.35,12.11-33.65,22.17-53.43,27.57l3-12c7.47-17.36,18.78-32.58,32.49-45.51.29-2.13-.24-1.2-1.42-1.54-2.23-.63-5.14-1.8-7.27-2.76-12.43-5.63-33.45-15.2-31.25-31.64.97-7.25,10.13-12.57,11.76-20.24.89-4.18-.33-9.44.23-13.77,1.42-10.84,12.38-16.73,21.68-20.32,8.04-3.11,15.79-4.4,24.27-2.23.24-1.4-1.7-1.38-2.75-1.74-6.76-2.31-13.33-1.22-20.24-.26,0-.89.91-1.55,1.7-1.8,3.71-1.17,13.92-2.61,17.59-1.98,2.99.52,8.23,3.04,8.73,6.28,1.47,9.56-12.17,8.05-18.24,9.78l-14.78,3.72h14.5c2.78,0,12.15-2.45,15.19-3.81,10.72-4.79,6.98-14.56-2.65-17.73-11.84-3.89-28.19.78-40.05,4.02-17.95,4.91-26.71,11.71-46.26,4.29-10.65-4.04-17.77-13.39-30.18-11.73-2.07.28-9.59,3.78-10.55,2.95,1.21-2.55,1.37-5.41,2.49-8.01,4.95-11.5,20.48-15.42,31.96-13.94,2.36.3,4.22,1.9,6.55,1.94-3.53-6.95-9.4-16.71-16.99-19.5-5.29-1.95-11.68-2.85-17.04-1.03-2.87.98-4.8,3.87-7.96,3.53-.23-12.52,7.18-22.02,19.74-23.76,13.72-1.9,22.69,4.24,33.26,11.76.7-3.01-.85-5.76-1.03-8.47-.13-1.96-.51-10.54,1.53-10.52l5.4,3.09c.26,3.6-.59,19.48,2.6,20.9.87-.83.86-1.97,1.95-3.04,5.75-5.62,18.43-6.56,25.08-1.99,3.69,2.54,9.83,10.09,10.41,14.59.22,1.7.62,10.49-1.45,10.44-3.41-4.65-17.81-12.87-20.34-4.33-1.08,3.63-.5,12.69,1.83,15.85,4.75,6.42,12.85,8.01,20.45,7.43,9.01-.69,17.41-3.15,27.01-1.89,7.84,1.03,18.5,7.7,18.46,16.45-.02,3.66-2.23,12.65-3.16,16.75s-6.01,15.1-2.77,18.27c2.18,2.13,14.25,2.74,17.73,5.27,11.44,1.94,9.83-4.48,16.83-10.77l.42-1.43c-3.81-4.13-8.43-8.89-11.41-13.64-4.77-7.6-3.66-19.6-4.61-28.39l-2.42-16.58c-7-6.65-13.5-13.85-20.49-20.51-12.4-11.83-25.86-22.95-38.53-34.47-3.03-2.75-12.37-13.89-15.54-13.54-1.06.12-2.67.76-3.45,1.55-1.88,1.91-5.66,8-7.36,10.64-.95,1.48-1.67,4.38-2.63,5.37-3.6,3.73-14.52-2.78-16.52-7.01,1.32.12,2.13-.69,3.04-1.47,4.19-3.59,9.43-15.13,11.46-20.54.49-1.29,2.43-6.35,2.04-7.02-4.16-4.58-8.23-9.08-12.52-13.53-6.67-6.92-13.68-14.44-20.5-21.48-2.97-3.07-19.99-20.7-22.01-20.99-5.15-.73-9.92,1.16-13.38-4.62-.39-.64-2.13-4.6-2.13-4.87v-17.5ZM433.81,162.84c-1.57-.33-2.07.49-3,1.49-2.33,2.53-11.2,15.25-11,17.94.29,4.06,4.01,8.27,1.01,13.57,2.59.78,2.91-2.79,3.03-4.46.29-4.04-2.01-9.09-1.89-9.88.49-3.26,7.09-8.89,7.86-12.65,2.69.12-.19,4.8.03,4.94l1.97,1.05c-1.5-.24-2.08.45-2.14,1.86l-1.75-.79c.02,1.95-1.89,2.73-2.58,3.94-1.35,2.34,2.98,7.27.47,9.99,2.37.47,1.58-.24,2.2-1.29.93-1.58,3.64-9.43,4.3-9.71l4.49,9c-.6-2.56,2.53-5.13,1.89-7.31-.48-1.61-3.38-4.1-4.09-5.98l-2.29-7.71,9.99,13.99c-.64,5.19-4.04,12.3,1.51,16.01.09-2.49-2.25-3.74-2.03-6.46s3.29-5.88,2.62-9.55c-1.09-5.95-9.5-11.77-10.59-17.99ZM490.81,238.84c2.04,8.35-7.17,16.49-14.72,17.78-17.63,3.02-32.62-4.34-37.8-21.77-2.37-8-3.08-22.78,8.08-23.98,7.01-.76,8.93,4.56,12.94,8.96,7.31-6.42,8.87-13.79,2.96-21.95-7.89-10.88-14.87,11.45-22.92,2.92l-7.53-16.96c-.09,3.52-5.61,17.31-7.98,18.52-1.45.74-5.88.83-7.4.36-2.23-.69-5.59-10.64-12.58-6.34-5.58,3.44-6.09,12.9-3.45,18.38,4.28,8.89,5.06.24,9.46-2.37,9.2-5.46,18.49,1.71,18.03,11.95-.42,9.33-4.99,20.81-12.56,26.52-10.52,7.95-33.34,9.42-40.71-3.32-1.87-3.23-1.16-6.09-3.31-8.69-2.82-.49-1.37,4.89-1.04,6.04,2.55,8.8,10.07,14.99,19.11,15.89,25.83,2.55,42.92-16.13,40.46-41.46-1.26-13.03-17.8-13.81-24.82-4.77-.59.76.21,1.9-2.21,1.3.66-2.92-1.31-5.74-1.02-8.45.17-1.64,4.27-8.25,5.62-8.52,3.99-.1,5.32,6.35,7.03,6.83,9.56,2.66,15.23-2.13,15.38-11.87l2,3.99c1.99-.02-.09-2.93,2.99-2,1.1,7.52,5.82,12.79,13.74,9.23,3.31-1.49,6.34-10.72,10.77-6.22s5.59,12.71,0,16.99c-2.8-5.85-7.7-7.58-14.03-7.02-4.15.37-9.39,3.49-10.28,7.71-1.43,6.75-.57,17.1,2.06,23.58,6.49,15.96,23.85,23.01,40.08,19.56,1.4-.3,7.28-3.39,8.64-4.36,4.71-3.34,6.9-8.17,7.08-13.93.07-2.18.48-2.93-2.04-2.53ZM433.81,198.83c-1.04-1.42-1.75.05-2.2,1.28-1.01,2.72-1.35,6.62-4.79,6.75-.36,2.13,1.82,2.74,2.79,4.69.92,1.84,1.29,4.23,1.21,6.3,3.19.7,1.66-2.13,2.19-4.31.73-2.99,2.73-3.42,4.81-5.2-1.34-3.21-4.87-5.06-4-9.5ZM410.81,206.83l-2.01-3.99-1,2.99c-1.38.56-.94-4.12-2.99-2-.79.81,1.17,2.92,1.98,3.54l4.01-.54ZM456.81,204.83v-2s-.5,0-.5,0l-1.5,1.99h2ZM460.82,205.85l-2.52-1.02-2.49,3.01,2.87.19,1.12,1.82,1.01-3.99ZM405.81,210.83v-3s-.99,0-.99,0l-1,2.99h2ZM371.81,219.84c-.32-4.57-5.21-6.55-6.96-10.54l-3.04-.46c-.27,4.9-4.63,8.79-4,14l6.5-11,7.49,8ZM505.81,222.83c0-1.89-4.74-14.02-5.5-13.99-1.31.93-7.56,7.9-6.5,8.99,2.77.93,4.53-4.99,5.5-4.99l6.5,9.99ZM363.82,219.84c.39.49,2.65-1.75,1.99-3-.39-.49-2.65,1.75-1.99,3ZM499.81,219.83v-2h-.99v2h.99ZM367.81,233.84c.56-.84,1.18-7.03.98-8.47-1.09-7.85-7.43-3.01-7.03.95.13,1.25,2.88,4.9,3.84,6.23.39.54.91,3.22,2.21,1.29ZM501.81,226.83c1.03-1-2.57-4.22-3.49-4.87-1.93,1.54-3.58,1.9-4.49,4.37.99,1.44,1.62,1.17,2.99.49l-1,4c3.22.66,2.89-4.07,3-5.99,1.42-.54.88,4.06,2.99,2ZM315.81,232.84c-.78-7.18-6.15-10.01-12.99-9-.9.9,4.61,10.91,5.49,13,5.69,13.47,10.52,27.31,16.29,40.76.63,1.47-.69,2.76,2.21,2.24-4.79-17.4-11.24-34.24-18.96-50.54-.34-1.37.08-1.87,1.45-1.45,1.56.48,6.24,5.31,6.51,4.99ZM383.81,231.83c.35-4.31-2.04-9.47-6.98-7.48-3.48,1.4-4.68,3.77-4.01,7.48,3.54-1.93,7.3-.97,10.99,0ZM490.81,231.84c1.33-5.92-6.28-11.44-9.48-4.98-.72,1.45-.27,3.32-1.51,4.49l7.52-.57,3.47,1.06ZM561.81,223.84c-2.57.3-5.95-.55-8.34.16s-6.07,6.32-4.16,8.84c1.47-1.4,1.86-3.14,3.54-4.46.71-.56,3.28-2.39,3.96-1.04l-5.77,12.23-13.22,38.27,2.5-3,21.49-51ZM361.81,234.83c.68-.57-1.9-6.35-4.38-4.9-3.64,2.18-4.09,4.85-3.62,8.9l8-4ZM510.81,238.83c.87-5.11-1.34-9.72-6.95-8.95.01,1.22-1.05,2.32-1.08,3.48-.05,1.75,6.89,6.63,8.03,5.47ZM452.81,259.84c-1.96.32-2.67-.52-4.03-1.47-4.13-2.87-12.9-12.76-14.5-17.5l-1.96-10.03c-2.43,3.16-1.97,8.02-3.2,11.8-1.75,5.39-8.42,9.61-12.34,13.66l-9.96,5.53,11.4-1.95.77-1.8,1.37.55-.43-1.67c5.23-.04,9.13-9.28,12.4-10.13.73-.19.26,1.18.76,1.68,1.02,1.03,6.2,4.03,6.56,4.55.43.63-.07,1.92.36,2.55.15.22,3.94,2.83,4.45,3.1,1.41.75,3.54,1.58,5.08,1.92,1.04.23,3.52,1,3.29-.79ZM545.81,244.83c-.99-1.91-2.97-3.77-3.49-5.93-.22-.93.6-1.93.03-3.03-1.07-2.05-4.35-4.61-6.87-3.89-.78.23-4.77,3.11-5.18,3.85-.99,1.84-2.54,7.89,0,8.99,1.68.73,1.6-1.8,3.09-2.89,2.83-2.05,5.46-2.78,8.38-.58,2.03,1.53,1.31,3.98,4.02,3.47ZM335.81,245.83c-.35-7.67-6-17.51-13.99-10.49l5.53.43,3.47,2.06c-6.58-.75-9.91.65-12,7,2.76.65,1.69-1.65,3.59-2.89,2.32-1.52,4.69-1.46,7.15-.33s3.41,4.24,6.26,4.23ZM367.81,239.84c-2.12-.09-1.9-.45-1.99,1.49-.15,2.93.28,5.87-.21,8.8-1.7,9.95-13.03,20.16-23.28,19.79-8.58-.31-16.84-11.28-18.51-19.07-1.63-.3-1.16,2.57-1.03,3.53,1.66,12.79,16.82,22.33,29.05,16.98,12.09-5.29,20.34-18.34,15.98-31.51ZM498.81,239.84c-2.6-.77-2.9,2.78-3.03,4.46-1.41,17.65,15.28,33.61,32.58,26.59,5.52-2.24,12.08-9.59,12.49-15.51.07-1.06.61-3.81-1.03-3.53-1.78,7.32-5.07,13.13-11.97,16.53-5.28,2.61-8.35,2.91-14.07,1-8.36-2.78-15.03-13.47-15.9-22.1-.29-2.86.21-4.76.94-7.43ZM436.56,253.59l-4.51,4.48,1.01,1.02,4.51-4.48-1.01-1.02ZM431.81,257.84c.26-2.52-1.6-3.36-3.99-3v.99s3.99,2.01,3.99,2.01ZM437.81,259.83l-2-2v2s2,0,2,0ZM490.81,257.84l-8,4.49,3.99,1.5-2-1.49,6-4.5ZM389.81,262.84c-4.28,1.58-8.64-3.48-11.64-3.8-1.42-.16-3.54,1.35-5.36.8l3,3.99c-2.79.27-4.92.2-5.01-3h-1.98c.59,1.31-6.72,7.39-6.01,8,2.23.59,3.17-1.15,4.75-1.78.81-.32,1.83-.03,2.59-.21,1.99-.47-1.71-1.54,3.18-1.05,1.3.13,2.6.12,3.9.09l1.04-2.05,4.04,1.99c.37-.41-.53-2.76-.61-2.88-.47-.64-2.28-.4-2.97-.5-.82-.12-3.16.61-2.42-1.6.97,1.36,2.55.2,3.58.49,1.82.51,3.32,2.69,5.85,3.01.74.09,4.38-.04,4.07-1.51ZM442.31,259.84c-.65,0-.65,1,0,1s.65-1,0-1ZM490.31,260.84c-.65,0-.65,1,0,1s.65-1,0-1ZM325.81,291.83l9.63-5.87c53.31-21.58,119.24-23.69,174.41-7.67,9.37,2.72,20.62,6.44,27.46,13.53l2.49-2.49c.05-2.54-15.75-9.14-18.72-10.27-39.86-15.24-91.8-19.03-133.71-12.16-13.47,2.21-51.71,10.91-60.08,20.92-1.16,1.39-1.89,1.87-1.48,4.01ZM640.01,265.04c-2.85,2.85.03,17.34,4.46,18.64,5.12,1.51,8.74.05,11.77-3.91,3.4-4.45,3.47-7.24.02-11.88-2.94-3.96-13.1-6-16.26-2.85ZM219.73,265.92c-2.77-1.05-9.39-2.19-11.44-.1-1.93,1.97-2.3,13.47-.53,14.58s7.9,1.51,10.05.44l-6.05-1.44-.94-5.55,9.99,2-1.08-9.91ZM326.82,273.84l1.99-1.5c-1.08-.88-2.03-2.02-2-3.5h-.99s1,5,1,5ZM430.81,293.84h-22c-.23-1.36,2.72-1.54,3.76-1.74,2.98-.57,6.22-.93,9.24-1.26-1.8-4.12-7.46-.11-10-3.5.79-.87,2.87-.51,4.25-.75.98-.17,4-.42,3.75-1.75l-8.99-2.01c-.25-1.32,2.76-1.57,3.74-1.75,2.34-.41,6.06.88,5.25-2.25h-15l8.56-1.94c3.98,0,8.04-.43,11.96-1.04,1.53-.24,3.03-.01,3.48-2.02-22.36-.08-44.65,3.48-66.26,9.23l-20.74,7.77c-.15,1.92,2.02.88,3.04.54,5.35-1.78,10.46-4.51,15.91-6.09,3.05-.88,6.75-.66,9.55-2.45,1.83,1.41.51,1.61-.8,2.19-2.46,1.09-4.99,2.26-7.21,3.8-1.21,1.13-.05,1.22,1.01,1.02,2.04-.38,6.83-1.59,8.45-2.55,1.9-1.12,6.25-6.19,8.54-6.18l12.5,4.72-9.62,9.9c-6.74-1.84-12.6-9.83-18.38-1.91l5,1c-1.95-.17-3.37.68-5.02,1.48-.83.4-3.35,1.22-2.48,2.51l13.07-2.92,4.43.93c-9.6,1.59-18.77,5.17-27.77,8.73-.92.36-3.58.67-2.73,2.27,10.93-4.12,22.48-7.07,34.07-8.93,7.37-1.18,17.55-2.64,24.91-3.09,6.86-.42,14.13.37,21.04.03,1.64-.08,2.81-.88,1.49-2ZM481.81,279.83c-.45-2-1.95-1.78-3.48-2.02-9.32-1.45-20.84-3.44-29.99-4.01-3.8-.24-7.73.23-11.53.03-.62,2.12,1.12,2.52,2.71,2.77,4.67.75,10.46.57,15.29,1.23.24,1.74-2.29.97-3.49,1-2.5.05-5.01-.04-7.5,0-.47,2.96.68,1.62,2.39,2.07,2.23.59,4.23,1.25,6.61.93-1,3.14-6.69,1.95-8,4.5-1,1.95,1.65,1.48,2.49,1.49,1.24.03,4.65-.8,4.5.99-3.12,1.79-8.29-.51-10,3,4.81-.91,10.13,1.77,14.58,2,2.23.11,4.72-1.26,7.94-1.02,2.03.15,11.99,2.44,12.47,2.03.39-2.15-.19-2.02-1.97-2.49-3.65-.96-7.7-1.01-11.03-3l10-.5c.49-3-.74-1.59-2.4-2.06-1.89-.54-4.9-.73-5.6-2.93,3.33-.82,6.13-.89,9.51-1,1.22-.04,3.72.75,3.49-1-4.71-.91-9.52-1.22-14.21-2.29-1.14-.26-3.99-.28-3.79-1.71l21,1.99ZM532.32,273.85l-1.5,1.5.49.49,1.5-1.5-.49-.49ZM331.81,276.83v-2h-.99v2h.99ZM220.81,286.83c.3.28,5.3-2.12,5.94-2.55,1.4-.96,3.9-3.32,4.08-4.93.12-1.08-.48-3.55-1.53-3.51-.38.01-2.72,2.91-3.5,3.49l-5,7.5ZM442.81,283.83l-9.5-7.9-10.5,6.91c1.02,2.89,6.19,2.79,6,5.99l1.1-2.89c3.14.82,3.78-3.03,4.51-3.16,2.9-.51,5.63.5,8.39,1.04ZM334.81,279.83l-1.5-2.99-3.49.99,1.47,2.82,3.52-.83ZM533.81,278.84c-1.25-.65-3.49,1.6-3,1.99h3s0-1.99,0-1.99ZM329.31,280.84c-.65,0-.65,1,0,1s.65-1,0-1ZM506.81,284.84l-15-4c2.12,4.23,7.8,3.97,12,4.5,1.01.13,3.13,1.55,3-.5ZM634.81,286.84c-1.15-.91-2.65-1.79-3.92-2.58-.86-.54-2.13-2.54-3.07-.92,1.74,1.24,6.66,7.76,8.23,7.32.44-.12.61-.8.77-.82.48-.07,1.25,1.15,2,1,.97-1.14-4.58-9.66-5.54-9.96-.57-.17-2.44-.42-2.45.45,2.35,1.75,2.87,3.01,4,5.5ZM235.78,281.87c-.39-.64-1.75.29-2.42,1.02-1.12,1.21-6.49,9.03-5.54,9.95,4.77-.42,8.72-3.93,10.05-8.47-2.4-.65-1.62-1.72-2.09-2.5ZM493.81,288.83c-4.7-7.69-9.61-6.71-16-1.49l5.51,7.49c4.14-1.78,4.5-7.18,10.49-6ZM381.81,292.84l-1.5-8.99c-4.26,2.8-2.2,6.83,1.5,8.99ZM633.81,295.84c1.33-1.49-5.27-8.67-7.51-8.74l-3.48,1.75c2.4,3.3,6.73,4.23,8.5,7.99l-.49-2.5,2.99,1.51ZM244.81,287.84c-3.97.2-6.15,3.52-6.99,7l3.99-2.5c-2.34,4.03-7.2,1.62-5.99,7.5,1.71.48.47-1.84,1.47-1.82.61.01.86.73,2.03-.08,1.77-1.22,7.18-8.19,5.49-10.1ZM502.81,288.84l-4.99-1v2s5,0,5,0v-.99ZM356.81,298.84l.93-5.39-3.42-2.6c-3.71,4.08-2.13,6.23,2.5,7.99ZM511.77,295.77c.71-.58-1.54-4.4-2.46-4.93l-3.46,3.58,2.46,3.28,3.46-1.93ZM625.81,298.84c.5.45,2.37,2.13,2.99,1.5-1.65-3.93-5.99-8.28-10.48-8.52-.64-.03-1.65-.29-1.51.51,1.54,2.16,3.8,3.31,5.7,4.85.32.26.27,1.12.57,1.38.71.6,1.39.15,1.73.28.05.02-.14.99.5.99l.5-.99ZM247.81,297.84l-4.99,7.5,4.52-2.47c1.39-2.61,4.64-4.59,4.47-7.52-.88-3.19-5.69.56-7.03,1.97-1.79,1.88-3.17,5.41-4.97,7.52,1.83,1.68,6.49-6.48,8-7ZM477.81,297.84c-13.73-3.01-27.91-4.26-41.99-4-.29,3.24.34,1.53,1.93,1.55,5.84.08,12.87,0,18.6.41s12.21,2.44,17.94,3.06c1.02.11,3.81.63,3.52-1.02ZM347.81,294.84c-1.25-.65-3.49,1.6-3,1.99h3s0-1.99,0-1.99ZM500.81,295.84l-4.99-1v.99s4.49,1.02,4.49,1.02l.51-1.01ZM623.81,306.84c.21-3.76-9.6-13.99-11.99-8.49l9.5,9.49-1.03-2.97-3.98-6.01,7.5,7.99ZM343.81,299.84l-10.92-1.93c-1.95,4.06-.99,7.06,2.43,9.91,2.6-2.04.48-4.89,2.99-7.06,1.7-1.48,5.02,1.75,5.51-.92ZM529.74,297.91c-3.79-.91-6.37,2.49-9.93,2.93v1.99c.2.23,3.93-2.54,5.54-.04l.46,6.04,5.91-5.62-1.98-5.3ZM530.81,328.84c1.06-8.09-6.17-11.35-12.3-14.19-18.61-8.63-44.73-12.97-65.16-14.84-29.78-2.72-83.59,1.36-110.22,15.84-3.99,2.17-8.92,5.02-9.35,9.66-.1,1.07-.53,2.79,1.03,2.52,1.7-5.13,7.92-8.74,12.73-10.77,30.27-12.77,78.42-15.19,110.8-12.26,14.8,1.34,58.23,7.88,68.2,18.3,1.39,1.45,1.94,4.92,4.27,5.73ZM505.81,302.84l-16-4c-.23,1.41,1.69,1.35,2.75,1.74,3.45,1.26,6.6,2.15,10.23,2.77,1.05.18,3.17,1.48,3.01-.51ZM249.81,308.84c-.42.38-.63.59-1,1-1.08,1.18-.07.36,0,1,.09.81-2.55,2.32.49,1.99,4.48-2.47,9.34-6.49,9.51-12l-2.5-.96c-1.43,2.75-4.26,4.59-5.99,7-.5.7-.3,1.53-.51,1.96ZM350.31,299.84c-.65,0-.65,1,0,1s.65-1,0-1ZM618.81,313.84c-1.34-5.61-7.93-14.6-13.99-9.49l4.51,4.52c2.62.42,3.19,4.21,4.99,4.97.59.25,1.7.17,1.49-.49-.74-2.31-4.06-3.88-3.99-6.5l6.99,7ZM254.82,317.84c3.54-1.46,8.61-4.25,8.99-8.52.1-1.16-.45-3.51-1.5-3.48-.48.02-5.08,5.65-5.49,6.5-.74,1.51.77,1.82,1.98,1.49l2.51-4c1.68.76-1.61,4.1-2.53,4.56-1.55.77-4.57-1.9-3.96,3.44ZM611.81,320.83c1.27-1.34-7.46-14.84-12-13l-.89,3.36,8.39,6.64v-2.99c2.24,2.2-.3,5.96,4.5,5.99ZM579.81,350.84c-8.4-8.93-17.35-17.37-25.36-26.69-1.71-1.99-1.1-2-1.83-3.08-.35-.51-2.79-.94-3.32-2.23-1.12,1.38.35,4.6.99,6.01,4.45,9.81,21.23,21.51,29.04,29.96s24.02,33.27,33.49,13.55c.02-.89-5.4-1.7-6.74-2.3-12.63-5.69-21.97-20.5-32.25-29.75-4.32-3.89-15.2-9.82-15.86-16.22-.23-2.29,2.35-7.37-.8-9.32-5.91-3.65-8.56,3.12-9.36,8.06l3.99-3c3.72,8.8,10.66,14.75,17.01,21.5,3.63,3.85,6.73,8.13,11,11.5-.08.48-.12,1.65,0,2ZM512.81,395.84c1.41-2.82,3.73-3.15,2.85.35-.48,1.92-7.01,14.69-8.29,15.71-3.55,2.87-11.81-1.59-14.57,2.93,5.91.36,10.01,3.82,15.02-.47,5.89-5.05,7.77-17.03,10.94-24.03l-2.46-1.49-3.01,2.99c-1.25,0-3.18-7.85-3.44-9.55-1.06-7.08-.14-16.04-1.28-22.72-.79-4.65-4.78-9.34-6.3-13.7-2.76-7.93-1.07-15.41-.61-23.39l-5.39-3.61c-2.87-.28-.88,1.33.14,1.88,1.15.62,2.77.71,3.43,1.76,1.96,3.1-2.85,13.28-2.07,17.36-6.23-4.86-14.03-7.75-21.99-8-.23-1.74,2.28-.97,3.49-.99,1.93-.04,4.09-.2,5.96.04,4.44.58,8.06,4.08,12.55,3.95-.86-3.19-3.72-4.57-6.29-6.2l-13.7-4.79c6.64,1.42,14.85,1.54,19.5,6.99,1.6-1.24-2.24-4.52-3.54-5.46-2.11-1.51-5.03-2.29-7.25-3.75l-16.71-4.79,11.04,1.45,17.96,7.04c-6.58-7.66-13.76-10.12-23.56-11.44-28.44-3.82-57.31-3.83-85.87,0-9.12,1.22-18.62,2.79-25.07,9.93l-1.49-.49,3-3c-.75-1.44-4.59,1.05-4.92,2.12-.57,1.86.85,3.89.96,5.85.21,3.93.4,10.22-.08,13.98-.76,5.9-5.77,13.21-6.71,20.29-1.09,8.17.99,17.41-4.23,24.84-2.78,1.85-8.47-4.58-6.95,6.88.4,3.01,5.96,15.64,7.93,18.06,4.91,6.01,11.01,4.51,17.26,2.23,1.06-.39,2.98-.33,2.75-1.74-8.53-.65-14.98,3.6-20.19-5.31-1.25-2.13-2.14-4.15-1.8-6.7,4.98,4.09,13,7.09,19.5,7.09,2.88,0,5.53-1.62,8.5-1.08,1.33,1.13.15,1.92-1.49,2-1.28.06-4.63-.83-4.51.99,8.71-1.1,17.45,4.25,21.99,11.51l-8.95-6.04-7.04-2.46c4.72,4.53,13.91,9.38,14.97,16.52.66,4.41-2.48,7.9,1.53,10.47.93-.79,1.66-1.78,2.05-2.95.5-1.52-.21-4.19,1.45-4.04-.09,3.64-.54,7.39,2.5,9.99,2.33-2.02,1.32-5.09,1.98-8.02.2-.91.31-2.25,1.52-1.96.06,4.51,2.31,8.06,4.01,12,1.82.29,2.56-1.26,3.99-2-1.53,5.68-3.76,10.93-3,17h9.01c.64-2.88-.79-17.35-3.56-17.99-.8-.19-1.7.61-2.44.99.45-1.69,1.69-3.75,1.81-4.64.16-1.28-2.32-5.05.19-5.36-.35,4.65,2.85,8.5,5.5,11.99,3.17-2.74,5.84-6.56,5.5-10.99l5.45,7.04,2.05,3.95c1.75-3.17,4.53-6.12,4.5-10l2.98,4.51,5.42,4.44,3.39-3.67,2.21-10.29c-.33,4.77,1.1,10.95,5,14l4-7.5-2.96-2.07c2.57-10.19-.24-28.82,12.91-31.98,2.05-.49,3.51-.44,5.55-.46,1.17,0,3.75-.71,3.5,1-16.99-.05-16.53,16.77-16.96,29.53-.05,1.46-.95,2.77-.95,3.97,0,1.59,1.45,3.56.92,5.5l3-3.51-2.06-1.07c.2-6.7-.49-16.01,3.2-21.77,2.59-4.04,8.59-8.07,13.31-8.69.96-.12,3.83-.6,3.53,1.03-13.53,2.48-18.25,14.77-16.95,27.46.09.87.57,3.75,1.95,3.54-1.12-4.89-1.48-8.39.05-13.27.25-.81.94-.67.96-.73-.16.34-.32,2.11.5,2l7.48-8.52,6.02-4.47c-6.8,0-9.64,4.86-12.54,9.99-.39.69-1.41.92-1.46,1.01,2.58-6.52,5.41-12.4,12.96-14.54s15.6,2.8,23-1l3.55-4.45-11.24,4.83-10.27-1.84c5-1.58,9.98-.56,15.02-2.48,2.84-1.08,6.97-5.22,8.97-7.53-.33.67-.74,2.27-1.15,3.32-.27.7-2.25,3.18.15,2.18l3-7.5ZM260.81,323.83c3.52,1.45,5.21-.4,7.43-3.06,1.83-2.2,5.63-7.42,1.05-8.92-1.27-.42-4.16,3.99-4.9,5.07-1.52,2.22-2.75,4.34-3.58,6.92ZM589.31,312.84c-.65,0-.65,1,0,1s.65-1,0-1ZM604.81,325.84l-3.53-6.96c-2.13-2.42-3.78-4.79-7.46-4.04l10.99,11ZM283.69,357.72c.41-.27,3.84-6.81,5.12-8.38,2.52-3.09,6.95-7.25,9.97-10.03,1.76-1.62,5.44-3.39,6.55-5.45.43-.79-.6-2.25-.54-3.47.22-4.13,7.24-6.93,9.52-10.55,1.05-1.65.08-1.95-1.01-3-8.45,6.64-18.01,11.64-25,19.98l2.5-6.99c-2.23-.52-2.23,1.24-3.19,2.31-8.02,8.92-12.42,19.88-17.31,30.69l-2,7c2.93-3.77,5.74-7.65,8.33-11.67,3.7-5.77,4.78-8.21,9.63-13.35,2.36-2.51,10.35-11.19,12.55-12.43.7-.39,2.56.1,3.48-.56l.51,2c-1.07-.27-1.28.15-1.91.73-7.5,6.84-15.01,13.86-20.08,22.78.08.92,2.49.63,2.88.38ZM597.54,321.11c-1.89-1.77-6.99-4.73-9.73-4.27,4.02,4.67,10.61,6.84,14.5,11.99.5-.9-.92-2.78-1.47-3.52-.6-.82-2.87-3.8-3.3-4.2ZM271.81,327.84c1.38-1.11,4.35-3.03,4.84-4.66.31-1.03.87-5.44-1.33-4.34-2.42,1.21-5.52,7.27-7.5,9.51-.33,3.04,1.19.39,1.99.49.13.02.3.72.53.68l.47-.68c.55-.11.72-.77,1-1ZM598.81,334.83c.33-.32-4.28-6.67-5.04-7.45-.39-.39-4.64-3.92-4.93-4.07-3.59-1.95-2.72,1.19-5.02,3.03l11.49,9.5-1.01-3.99,4.5,2.99ZM274.81,336.83c1.85.4,2.38-1,3.5-2,1.97-1.76,8.68-8.96,4-10.99-1.7-.74-2.74,3.98-4.5,4.49-.87,2.24-4.21,5.23-4.99,7.01-.19.44-.25,1.65.49,1.49l8.5-10c-.21,2.01-2.3,4.32-3.56,5.93-.59.75-3.82,3.72-3.43,4.06ZM354.81,332.84c-.01-.06-.73.13-.94-.76l-2.06-7.24c-.85,1.72,2.28,18.08,3.99,16-.77-2.5-.47-5.55-1-8,.03.12,1.49.23,1,2h.99c.16-2.03.27-3.74-1.5-4.99h-.49c.13.94-.21,2.18,0,3ZM507.81,329.83l1-4c-1.97.51-2.25,2.16-1.99,4h.99ZM509.82,327.84l-2.31,8.65,1.33.36,2.31-8.65-1.33-.36ZM349.82,349.84c4.01-1.51.07-4.65-.29-7.22l-3.71-13.78c0,7.21,1.94,14.19,4,21ZM588.81,337.84c-.18-.29-.04-1.22-.53-1.95-2.56-3.77-7.66-10.98-10.35-3.54l11.38,10.48c3.07.38.33-1.4.49-2,.04-.16,1.09-.47.88-1.35-.3-1.24-1.73-1.41-1.88-1.65ZM352.81,344.83c-.05-3.76-.83-8.02-1.88-11.62-.39-1.35-.26-3.05-2.12-3.38.47,3.77,1.36,7.51,2.3,11.19.31,1.21.22,3.98,1.69,3.8ZM512.82,329.84l-3.38,11.89,1.56.44,3.38-11.89-1.56-.44ZM349.81,358.83l-2.24-11.25-4.75-16.74c-.3,8.63,3.85,17.4,5.02,25.5.27,1.88-.99,2.94,1.97,2.5ZM511.82,346.84c3.24-2.33,3.58-8.29,3.99-12l-3,7.49-.99,4.5ZM515.82,354.84c3.72-3.04,2.72-9.69,3.99-14-1.45-.27-1.24,1.86-1.49,3-.81,3.68-1.86,7.3-2.5,11ZM577.81,358.83l-16-16c-.4,1.85,1,2.38,2,3.5,2.49,2.81,5.73,5.92,8.5,8.5,1.6,1.49,3.06,4.08,5.5,4ZM322.53,356.12c-.62-.57-1.58-.7-2.2-1.26-3.7-3.36-6.76-7.27-11.02-10.02-1.42.82-.18,2.58.46,3.54,1.55,2.33,5.95,4.15,6.04,7.46l-8.5-9c-1.9-.36-1.94.57-1,2.01,1.32,2.02,4.47,3.72,5.5,6.5l-6.49-5.5c-1.35,1.7,2.89,5.02,4.48,6.55,1.68,1.61,4.37,3.29,6.05,4.91,7.96,7.64,14.72,15.91,24.48,21.54l-6.5-7.5,6.98,3.01-14.98-14.01,10.5,7.5,3.56,3.44,3.93,2.07c-5.79-5.53-11.16-11.52-16.96-17.03-1.45-1.38-2.97-2.95-4.31-4.18ZM558.81,350.84c-.28-1.47.35-2.88-1.5-3.99-12.09,10.96-22.16,24.01-34.5,34.49,1.01,1.64,2.2-.33,3-1,.98-.82,4.83-5.67,6-4.5-1.3,3.59-4.48,5.8-7,8.5l5.99-2.01-5.99,6.5c1.87-.08,4.09-1.84,5.5-2.99,10.92-8.88,20.5-19.63,31.01-28.99,2.01-8.63-3.58-.83-6.51.99-.07-1.79,1.85-3.7,3-5,.28-.32.68-.68,1-1,1.3-1.32.14-.29,0-1ZM336.81,389.84c1.51-1.85-5.69-6.23-7.02-7.47-10.39-9.7-19.46-21.2-30.97-29.53-.58,2.96.17,2.17,1.28,3.23,4.04,3.88,7.98,8.33,11.74,12.22,3.47,3.59,7.12,6.92,9.97,11.05-1,.74-2.3-1.34-2.99-2-7.32-7-14.22-14.46-21.5-21.5-1.64,1.01.33,2.2,1,3,1.62,1.93,3.82,3.58,5.49,5.5l-6-4-2.99-1.01,8.99,9.01-4.49-2.5c-1.42-1.18-3.83-4.45-5-5-2.76-1.29-1.03,2.1.48,3.52,10.01,9.38,21.09,18.54,31.53,27.47,4.26,3.64,7.8,8.25,13,11,2.19-1.74-.16-1.67-.8-2.21-1.63-1.38-3.33-2.62-4.69-4.29l4.98,2.01-7.99-8.01,6,2-6.99-7.01,6.99,4.5ZM567.81,357.84l-9.03,6.47c-10.2,10.18-20.41,20.25-29.97,31.03-.99,1.12-2.4,1.65-2,3.5,14.44-12.97,28.17-26.47,41-41ZM570.81,360.84l-8.73,6.27c-1.47,3.99-5.59,5.63-8.3,8.2-10.22,9.75-19.78,20.24-29.97,30.03l5.49-3.5,13.99-13.01,6.49-4.5c-1.86,1.8-3.62,3.72-5.47,5.53-1.14,1.12-2.56,1.55-3.26,2.24-.62.61-.77,1.85-1.73,2.79-3.42,3.32-6.97,7.04-11.09,9.9l-5.43,7.04c13.85-11.62,27.65-23.27,39.97-36.55,4.33-2.58,6.65-7.36,11.02-9.95-1.14-1.25-3.96,1.35-4.93,2.07-3.71,2.74-7.32,6.15-10.56,9.44l-8.49,5.5c.79-2.86,3.63-3.56,4.73-4.77.64-.7.83-1.89,1.72-2.76,4.8-4.69,10.65-8.35,14.55-13.97ZM259.81,430.84c1.77,5.83,6.67,11.43,11.48,15.03.74.55,2.62,1.98,3.52,1.48-2.96-3.51-6.72-8.16-8.84-12.16-1.86-3.53-2.46-7.68-3.94-11.06-3.63-8.25-14.94-20.2-23.2-23.8-7.19-3.13-19.26-4.04-25.01,2.01l8.56-1.43c6.91-.79,13.81,1.87,19.79,5.08l5.15,4.84-19.01-6.98-.5,1.99c14.4,1.46,18.54,18.56,25.55,28.95,6.34,9.39,16.54,17.49,28.02,18.99,1.07.14,3.68.81,3.43-.93-10.82-.96-18.98-8.26-24.18-17.32-.38-.67-3.16-4.65-.82-4.68ZM597.81,432.84c.26-3.35.46-10.24-.19-13.31-.8-3.83-7.39-11.08-11.34-11.66-7.36-1.09-10.58,1.46-15.47,6.48,2.25,1.49,5.22-1.44,7.49-1.43,5.99.03,11.94,6.56,12.55,12.39.66,6.3.9,15.48-4.04,20.04-.09.82,1.52.66,2,.5-.93.88-3.33,1.3-1.5,3,8.38-3.84,13.4-10.26,18.01-17.99l-2.65,6.34c-4.1,6.14-9.39,10.85-16.16,13.84l-8.69,2.81c13.7.95,26.47-9.07,33.18-20.31,4.71-7.88,7.18-17.11,14.88-23.12,2.49-1.94,5.55-2.99,7.93-5.07l-7.04.96c-3.03,1.69-6.25,3.06-9.3,4.7-1.18.64-2.66,3.02-3.66,1.34,7.81-7.17,18.5-12.93,29.45-11.46,2.57.35,4.8,2.24,7.55,1.95l-4.93-3.56c-17.3-5.11-35.52,7.93-43.25,22.88-1.94,3.75-2.62,6.98-4.81,10.69ZM293.81,416.84c.96-1.06-3.05-4.73-3.97-5.53-9.59-8.24-22.42-2.01-23.98,10.07-1.15,8.86,1.98,15.68,7.52,22.38.99,1.2,3.18,4.24,4.43,2.57-5.16-5.32-5.85-13.9-4.95-20.95,1.36-10.65,12.59-15.51,20.95-8.55ZM366.81,408.84l-10-1c1.5,3.23,8.24,4.72,10,1ZM476.81,480.84c1.14-4.43,7.26-9.42,9.85-13.65,1.2-1.95,3.8-6.17,2.65-8.36-1.65,2.72-2.53,5.94-4.49,8.52-2.79,3.68-9.37,9.66-12.99,13.03-1.34,1.25-3.48,1.26-3.03,3.45l-1.99-.49c4.06-5.69,8.84-8.7,11.81-15.19.42-.93,2.18-2.56.69-3.31-7.55,9.64-14.87,20.76-24.48,28.52-1.18.95-3.89,3.44-5.02,1.98,2.27-2.61,5.32-4.88,7.52-7.48,2.91-3.42,6.6-7.6,7.47-12.03-2,.66-2.77,3.15-3.01,5l-4.91-.94-5.08,9.93c-1.85.21-.96-2.13-.56-3.06,1.41-3.27,5.53-5.01,5.56-8.94-2.07,1.48-2.61,4.98-6.07,2.54-1.19-.84-.16-3.42-2.91-2.54-.02,1.53-1.59,5.54-3.5,5-2.22-.63-1.44-6.03-4.5-5l-3.5,6.97c-.5-.85-1.92-.74-2.34-1.15-.99-.96-.61-3.92-1.67-4.82-1.62,1.9-4.38,3.28-4.51,6-3.98-1.46-3.04-7.97-7.96-6.99-.23,1.59-1.02,3.34-1.85,4.7-.33.55,0,2.01-1.68,1.28-2.3-1-3.21-6.61-6.45-5.92.13,2.49-1.49,3.41-2.06.6-.24-1.21-1.02-.64-2-.67l-1,4c-1.17-4.11-5.56-6.22-7.51-9.99l1.02,5.98-.51,3.01c-.64-5.89-5.71-10.73-7.54-15.96-.95-2.7-.09-6.73-3.46-8.04l3.99,13.01-2.01-.49.51,2.49h-1.49s-10.54-19.97-10.54-19.97l-3.47-24.03c-1.74-.24-.97,2.29-1,3.49-.06,2.91-.22,6.18-.03,9.03.3,4.53,1.24,11.28,2.28,15.72.69,2.94,2.11,6.03,3.02,8.98.3.95,1.72,2.95-.27,2.77-4.06-8.41-6.49-16.21-8.04-25.47-.3-1.78.25-3.96-.03-5.97-.43-3.09-1.77-6.38-1.94-9.56l-.99,7c-.54-2.45-.31-6.79-3-8,1.01,6.53,3.11,13,3.93,19.56.74,5.89.45,12.95,1.13,18.87,1.28,11.17,13.63,20.31,19.91,29.09,7.5,4.9,13.82,12.99,21.06,17.94,5.14,3.51,12.16.72,17.43.51,8.29-.33,16.91,2.16,24.22-.78,6.43-2.59,9.91-6.89,14.83-11.22,6.45-5.68,14.2-12.17,20.01-18.95,10.78-12.59,7.96-25.35,9.44-40.56.42-4.32,1.91-9.06,2.03-13.47-1.36-.25-1.49,1.77-1.74,2.75-.44,1.73-.9,4.05-1.18,5.82-2.14,13.38,1.57,30.73-7.55,41.45-2.35,2.76-5.27,4.23-7.55,6.45-5.54,5.38-10.7,12.02-15.93,17.07-2.06,1.99-7.65,5.41-10.34,6.66-.91.42-2.8,1.85-2.7-.19,9.24-4.77,16.33-13.19,23-21.01.27-.32.67-.57,1-1,.39-.33.8-.87,1-1,.14-.19.78-.21,1-1,2.48-1.84,5.91-3.32,8.01-6.49l3.99-7.01-7.53,7.47c-1.2,3.05-2.88,2.98-4.47,4.03ZM491.81,429.83v-3h-.99v3h.99ZM481.82,464.84c1.52-.23,1.88-1.87,2.51-2.99,4.77-8.43,5.71-21.4,6.48-31.01l-8.99,34ZM260.81,447.84c-13.9-3.16-27.9-14.88-42-5.5.49,1.28,2.23-.29,3.31-.26,10.93.38,23.78,14.09,37.93,12.53.76-.08,4.06-.52,3.76-1.77-1.76.19-3.33-.07-5.04-.47-8.34-1.92-17.66-4.47-23.96-10.53,7.24,1.97,14.38,5.17,21.71,6.79,1,.22,4.47,1.08,4.29-.78ZM630.81,444.84c4.85-.16,9.25-4.46,13.51-2.01l.49-1.99c-3.1.56-5.74-1.58-8.55-1.96-9.56-1.29-18.66,4.06-27.44,7.46-1.11.43-4,1.17-4.01,2.49,8.02-.33,15.2-4.3,22.51-6.98,2.71-.99.02,3.13.34,3.84-6.7,1.83-13.12,4.8-19.8,6.7-2.35.67-5.83-.64-5.05,2.45,2.11-.13,4.37.26,6.45-.04,6.46-.95,16.56-5.8,21.55-9.95-.67.02-1.34,0-2,0v-.99s3.99-1,3.99-1v.99c-1.92-.51-1.86.89-2,1ZM429.82,459.84c.06-7.3.99-13.79-3.5-20-1.77,1.75-3.69,4.12-4.54,6.46-.59,1.6-2.21,10.87-1.9,11.95.78,2.72,7.54,1.25,9.95,1.59ZM441.73,459.75c2.05-3.43.45-5.52.14-8.47-.48-4.64.81-8.14-4.56-10.42-4.88,4.35-3.33,9.66-3.45,15.52-.03,1.52-2,4.76,1.24,4.27,2.12-.32,4.17-1.27,6.63-.89ZM392.81,454.83c-.74-3.86,1.92-10.63-1.99-13-.35,4.79-5.39,11.57,1.99,13ZM405.81,458.83c-.95-6.16,2.66-11.85-1.5-17-1.86,1.25-1.35,2.71-1.53,4.47-.37,3.64-.75,7.28-1.02,10.92l4.05,1.6ZM453.76,458.78c1.1-2.58-2.31-16.89-4.45-16.94-4.12,4.94-2.01,12.07-2.5,17.99l6.94-1.06ZM458.8,443.84c-2.88-.85-2.22,2.59-2.02,4.53.24,2.36.89,4.28,1.05,6.96.11,1.93-.26,1.6,1.98,1.51.91-5.18,1.46-8.12-1.01-13.01ZM398.81,444.84c-1.4-1.67-1.81.12-1.96,1.51-.44,4.1-2.38,7.24,1.46,10.48,2.4-1.57.9-2.19.76-3.74-.25-2.77-.38-5.48-.26-8.24ZM471.81,451.83c.24-2.57-.36-5.86-2.99-7v7s2.99,0,2.99,0ZM464.81,456.84c1.27-4.13,2.49-6.64,1-11-1.41-.24-1.4,1.74-1.71,2.78-.63,2.1-1.33,4.53-1.31,6.7.01,1.99.07,1.61,2.02,1.52ZM267.81,456.84c-5.76,1.33-13.34.41-19.01-1.49-5.03-1.69-9.8-5.14-14.99-6.51,4.28,4.15,11.97,8.25,17.75,9.74,4.49,1.16,8.24.86,12.79.3,1.54-.19,3.03-.11,3.46-2.04ZM629.81,450.83l-.5-1.99-12.46,6.54-17.04,3.46c11.3,1.51,20.3-3.23,30-8.01ZM490.31,456.84c-.65,0-.65,1,0,1s.65-1,0-1ZM395.12,462.53l-1.31-1.18-.58,3.01,2.57,5.48c-.22-1.79.11-3.54.25-5.31.1-1.27,1.85-1.31-.93-2ZM475.31,460.84c-.65,0-.65,1,0,1s.65-1,0-1ZM468.81,468.83v-6h-.99v6h.99ZM553.81,463.84l-4.5-.99-.49.49c1.26,1.85,2.96,1.64,4.99,1.5v-.99ZM323.81,463.84c-3.76-.22-7.59.33-11.24,1.25-.99.25-3,.38-2.75,1.74,3.36-.48,6.92-.7,10.25-1.24.94-.15,4-.44,3.74-1.75ZM402.81,472.83c-.35-3.2,1.65-8.98-3-9,.35,3.2-1.65,8.98,3,9ZM463.81,463.84h-3c1.27,4.13.49,6.89,0,11l2.78-6.71.21-4.29ZM540.01,463.28l-.27,1.44,7.82,1.48.27-1.44-7.82-1.48ZM409.81,465.83h-4c.01,3.94-.82,8.14,2.5,10.99,2.3.09,1.34-9.22,1.5-10.99ZM456.81,465.84l-4.05.44-.83,1.17-.11,9.39c2.66-.64,6.33-9.65,4.99-11ZM418.82,466.83h-6.01c-.42,4.85.08,8.6,2.01,13,5.01-2.44,4.04-8.37,4-13ZM429.8,467.85l-6.98-1.01c-.3,3.87-.09,7.09,2.15,10.35,1.54,2.23,3.37,4.57,4.35.67.84-3.32.47-6.59.48-10ZM439.82,466.84h-6.01c.05,3.21-.82,10.25,2.51,12,1.84.97,1.87-2.68,2.19-3.8.77-2.69,1.6-5.36,1.31-8.2ZM448.81,466.84h-5s0,11,0,11c4.77-.44,4.08-7.49,5-11ZM468.31,470.84c-.65,0-.65,1,0,1s.65-1,0-1ZM312.81,481.83c6.4-.86,12.92-1.9,19.24-3.25,1.47-.31,6.46-.93,5.75-3.24s-2.3-.78-3.45-.47c-6.2,1.69-12.28,3.84-18.52,5.49-1.2.32-3.27-.05-3.02,1.47ZM553.81,480.84c-8.31-1.18-16.46-3.73-24.54-5.97-1.75-.48-1.89-1.74-3.46.47.01,2.56,1.85,2.12,3.47,2.52,4.02,1,8.13,1.68,12.09,2.91,3.2-.49,5.99.76,8.91,1.09,1.01.11,3.81.62,3.53-1.03ZM565.82,476.84c.53,6.35-6.04,10.75-10.68,13.82-20.62,13.65-59.26,22.22-83.79,24.21-3.44.28-8.96-.75-11.88.12-1.15.35-2.05,2-3.3,2.7-8.52,4.73-16.47.84-24.87,1.08s-12.26,4.44-21.18.27c-7.01-3.28-5.15-2.25-12.73-3.27-23.85-3.2-82.66-11.74-97.02-31.98l-3.04-6.96c-2.15,1.51-1.11,2.03-.8,3.76,1.29,7.17,6.9,10.25,11.3,15.23-6.44-.52-11.05-5.48-15-10-.21,5.92,4.52,11.27,8.99,14.5-.95.53-2.65-.94-3.51-1.48-1.96-1.22-3.58-2.76-5.47-4.02.22,1.18-.8,1.96-.57,3.05.43,1.99,5.37,7.11,4.56,7.95-2.32.55-3.13-2.35-4.5-2.99-1.51-.71-2.21,1.74-2.19,2.51.06,2.37,5.97,6.13,4.69,7.49l-7.99-5c-.57,5.07,3.21,8.44,6,11.99-1.43,1.26-7.12-6.05-8.5-6.99-1.08,1.84.82,6.19,2.04,7.96,1.79,2.61,5.11,3.2,6.47,6.03-5.84.56-11.52-5.18-11-11-2.66-.66-2.34,1.46-1.97,3.48,1.67,9.08,17.3,18.15,25.28,21.72,68.9,30.79,174,31.29,243.69,3.31,8.09-3.25,24.76-10.74,30.03-16.95,2.44-2.88,4.62-6.66,3.96-10.55l-4.15,8.35-2.92,3.08-5.92,3.07c1.51-1.38,10.31-10.02,8.99-11.5-3.43,2.41-6.58,6.35-11,7,4.72-4.13,8.38-7.74,11-13.5-2.03-1.79-2.91,1.95-4.04,2.96-1.42,1.27-3.48,2.26-4.95,3.54l5.99-12c-2.57-.21-3.75,2.69-5.47,4.03-.71.55-2.63,1.98-3.52,1.48.73-2,7.43-8.95,5.99-10.5-2.31-.25-3.65,2.42-5.51,2.99-4.31,1.32,1.62-4.55,1.97-5.03,1.74-2.4,3.89-6.1-.43-5.94l-.7,1.98-6.31,3.5c3.61-3.65,8.4-7.9,7.99-13.5-3.85,3.07-8.07,6.7-13,8,4.6-4.28,9.57-7.66,10.04-14.46.07-1.06.61-3.81-1.03-3.53ZM336.81,479.84c-.88-.74-13.05,3.46-15.25,4.25-1.06.39-2.98.33-2.75,1.74,5.09-1.08,10.71-1,15.56-2.93,1.55-.62,2.79-1.02,2.43-3.06ZM548.81,484.84l-22-5c-.34,2.89,2.74,3.18,4.76,3.74,4.46,1.23,9.24,1.05,13.71,2.29l3.53-1.03ZM334.82,487.84l-.5-2.99c-3.96,1.82-8.29,2.57-12.5,3.5-1.14.25-3.27.04-3,1.49l16-2ZM545.81,490.83c-.33-1.88-2.04-1.7-3.38-2.12-4.49-1.38-9.17-2.36-13.62-3.88l.59,3.03,16.4,2.96ZM333.81,490.84c-2.56.49-5.08,1.26-7.61,1.92-1.71.45-2.86-.89-2.39,2.07,2.86-.64,10.03.23,10-4ZM539.81,494.83c-1.74-2.97-7-2.88-10-2.99,1.74,2.97,7,2.88,10,2.99ZM490.81,505.84c1.23-1.41-5.56-6.68-6.5-7.99l2.5,4.49,4,3.5ZM374.82,505.84c.32.34,2.62-1.95,3.02-2.47.55-.71,1.98-2.63,1.48-3.52l-4.5,5.99ZM486.81,505.83l-5-6c-.36,1.4,3.61,7.29,5,6ZM380.8,505.84c.37-.49,1.85-4.04,2-5l-3.99,4.5c-.12.87,1.93.58,1.99.5ZM323.81,555.84l-10.31,7c-7.64,8.15-15.74,16.81-21.21,26.98-.86,1.59-5.19,10.21-4.47,11.02,21.03-8.06,40.09-21.67,55.99-37.5l-7.94,4.05-18.55,14.44c-.74-1,1.34-2.3,2-2.99,4.88-5.11,10.12-9.89,15-15,.66-.69,2.75-1.99,2-2.99-3.11,2.75-6.91,5.3-10.01,7.99-6.76,5.88-13.06,13.42-19.99,19.01-1.49,1.2-9.05,7.21-10.5,5.99,9.48-13.15,22.79-22.89,33.99-34.5l-6.34,2.65-17.15,15.84,10.5-13.49c.89-1.31,8.31-7.14,7-8.49ZM573.81,601.83c-3.42-8.25-8.42-16.46-14-23.5-4.24-5.35-13.77-16.1-19.06-19.94-.8-.58-3.18-2.44-3.94-1.06,4.53,5.04,10.22,10.46,14,16,.55.81,2.03,2.55,1.5,3.5l-14-11.99-8.49-5.5,12.52,11.48,16.98,20.02c-3.87-2.95-8.14-4.92-12.01-7.99-3.12-2.48-2.81-4.03-7.03-5.3-.21-.06.08-3.08-1.97-3.7l-1,2c-3.21-4.33-8.43-7.86-13-11.01-.8-.55-2.56-2.03-3.5-1.5,11.36,11.32,23.31,22.69,37.3,30.69l15.69,7.81Z"/>
          <path d="M625.81,298.84c-.16-.17-.82.17-1,0-.21-.2-.35-1.26-.99-1.5l.49-.49c.83.35,1.13,1.66,1.5,1.99Z"/>
          <path d="M248.81,310.84v-1c.58-.08.78-.54,1-1l5.99-4.5c-.61,1.28-5.52,7.88-6.99,6.5Z"/>
          <path d="M558.81,351.84c-.18.17-.83-.17-1,0,.1-.13-.14-1.17,1-1v1Z"/>
          <path d="M583.81,352.84c-.15-.17-.75.15-1,0-.27-.22-.61-.65-1-1-.15-.59.17-1.48,0-2,1.43,1.56,1.62,2.55,2,3Z"/>
          <path d="M581.81,349.84c-.02-.07-.94-.96-1-1,.38.35.65.62,1,1Z"/>
          <path d="M636.81,289.84c-1.92-.18-1.58-2.07-2-3,1.14.9,2.47.93,2,3Z"/>
          <path d="M580.81,348.84c-.24-.15-.8.16-1,0,.07-.43-.11-.81.5-.99.63,0,.46.95.5.99Z"/>
          <path d="M271.81,327.84c-.04.06-.94.97-1,1-.22.12-.67-.08-1,0-.32-2.25,2.12-3.34,3.5-4.99l.49.49c-1.63.69-1.56,2.88-1.99,3.5Z"/>
          <path d="M583.81,353.84c.14.54-.08,1.36,0,2-1.95-.17-1.7-2.67-2-3,.16.17.75-.15,1,0,.28.23.69.68,1,1Z"/>
          <path d="M590.81,443.84c2.26-3.18,4.92-7.47,7-11-.44,5.63-3.61,7.51-7,11Z"/>
          <path d="M512.81,395.84h-1c.06-.07-.14-.99.5-.99l.5.99Z"/>
          <path d="M589.81,444.84c.3-.31.86-.8,1-1-.34.35-.65.67-1,1Z"/>
          <path d="M589.81,340.84c-1.14.17-.88-.85-1-1,.02.07,1.18-.15,1,1Z"/>
          <path d="M588.81,445.84c.07-.02.79-.79,1-1-.34.32-.65.67-1,1Z"/>
          <path d="M584.81,353.84c.29.34,1.35.66,2.01,1.45,2.2,2.66,5.75,9.95,8.91,8.6l2.08,4.45-12.54-10.5-1.45-2.01,1-2Z"/>
          <path d="M588.81,339.84c-.31-.41-2.59-1.01,0-2,.09.63-.16,1.54,0,2Z"/>
          <path d="M584.81,353.84c-.14-.17-.84.16-1,0-.09-.35.13-.86,0-1,.24.28.64.57,1,1Z"/>
          <path d="M473.81,485.84l-.99-.5c0-.64.97-.45.99-.5-.17.13.16.84,0,1Z"/>
          <path d="M476.81,482.84c-.49.37-.83.89-1,1-.2.27-.66.56-1,1-.19.16-.79-.16-1,0,1.04-2.37.37-2.27,3-4-.15.58.16,1.44,0,2Z"/>
          <path d="M510.81,397.84c.08-.09-.05-.88,1-2,.27,1.06-.8,1.59-1,2Z"/>
          <path d="M440.81,379.84c.22,1.28-.05,2.39.46,4.02.55,1.78,1.78,2.74,2.54,3.98.19.91-.24,1.82.48,3.04.39.67,1.23.69,1.52.96,1.11,2.82,5.94,16.57,5.94,18.5,0,7.54-9.02,12.16-15.48,7.54-4.54-3.26-3.4-10.06-4.47-15.03-1.73-.24-.98,2.29-1,3.49-.07,3.99.74,6.65-1.98,10.02-4.89,6.05-12.57,4.31-15.61-2.48.58-2.99-.77-6.77-.24-9.34,1-4.85,7.15-15.2,9.36-20.67,1.51-3.74,1.41-9.78,6.17-10.82,6.83-1.5,9.31,1.57,12.31,6.8ZM423.81,411.84h-4c.47,1.91,2.05,2.27,4,2v-2Z"/>
          <path d="M440.81,379.84c-1.38-8.06-1.01-14.39.91-22.33l-4.9-4.67c-.14,3.12.23,6.31-.07,9.44-.08.83-.62,4.72-1.93,4.56-.83-7.2,1.89-14.03,0-21l8.98,2.99,3.02-5.99-1,5.49c2.02,2.04,1.94-.79,2.96-2,6.8-7.97,13.62-9.86,24.04-9.49l-13.35,6.14-2.65,2.85,9.55-3.95c7.75.16,14.83-1.17,22.14,1.76,4.67,1.88,10,5.18,12.08,9.92s3.89,16.49,3.19,21.72c-.17,1.29-2.9,9.81-3.95,8.55.91-4.91,1.74-10.11.5-15.04-.45-1.77-.4-2.35-2.5-1.96,1.88,4.37,1.37,10.53-.78,14.71-1.92,3.75-5.16,6.55-9.18,7.82-15.37,4.87-34.47-4.05-35.04-21.54-1.92-.15-.94,3.18-.75,4.26.74,4.17,2.78,6.28,3.76,9.24.75,2.28-3.64-1.62-4.43-2.57-4.09-4.91-6.49-13.77-4.57-19.93-1.28-.27-1.58,1.81-1.78,2.72-.33,1.49.51,4.43-1.22,4.28-.38-2.44.18-4.58.56-6.94.26-1.63,1.34-3.18-1.07-1.07-3.04,8.29-1.12,17.03,2.01,25.01,3.21,8.2,12.06,16.79,12.48,25.58.09,1.85-2.26,9.88-3.19,11.72-1.22,2.41-7.23,7.67-5.65,2.35.53-1.79,2.15-3.21,2.9-5.1.82-2.08,2.12-6.83,1.94-8.96-.45-5.19-4.28-13.17-7.98-16.59-.8-2.03-.91-2.22-2-4-.74-3.45-1.19-4.84-3-8ZM468.81,384.83c10.51,2.05,21.86,5.09,23.99-9-2.93,2.26-5.22,7.34-8.94,8.56-4.21,1.38-7.73.02-11.62-.5-1.07-.14-3.69-.8-3.44.94Z"/>
          <path d="M405.81,430.83l-2.48-10.01c-1.42-5.1-3.55-9.95-6.98-14.02l-8.53-4.96c15.58-2.1,17.91,17.49,17.99,28.99Z"/>
          <path d="M399.81,427.83l-5.53-11.96-10.47-8.03c11.25.38,17.06,9.27,16,19.99Z"/>
          <path d="M378.81,399.84c-.42,1.87-1.9,1.89-3.45,2.04-4.3.44-8.73.08-12.79-1.31-1.06-.36-2.99-.34-2.75-1.74l19,1Z"/>
          <path d="M469.81,394.83c-7.04,1.35-11.04-4.12-15-8.99l15,8.99Z"/>
          <path d="M432.81,420.83l.98,9.49-2.97,5.52c-.88-3.65.79-7.51,1-10.58.15-2.21-2.81-5.01.99-4.42Z"/>
          <path d="M459.81,396.84c-2.01-2.11-6.34-4.56-7.88-6.62-3.59-4.81-7.41-15.36-8.11-21.38l5.15,13.34c1.05,1.31,1.79,2.86,2.84,4.16,1.19,1.47,9.4,8.88,8,10.5Z"/>
          <path d="M490.81,398.83c2-2.8,5.85-3.73,8.5-6,2.25-1.93,3.25-4.38,5.5-6-1.3,6.41-7.63,11.32-14,12Z"/>
          <path d="M402.81,326.83c-.22-1.75,3.51-1.11,4.45-.95,6.35,1.09,11.44,4.65,15.54,9.46-.89.5-2.8-.93-3.52-1.48-1.07-.81-1.75-2.02-3.12-2.88-3.73-2.36-8.89-4.45-13.35-4.15Z"/>
          <path d="M444.81,420.84l-4,6.99c.29-2.94-1.58-4.76-3-6.99h7Z"/>
          <path d="M365.81,394.83c-4.54.32-7.52-4.89-7-8.99l7,8.99Z"/>
          <path d="M414.81,425.83c-2.82.48-1.65-.61-2.22-2.23-.93-2.6-2.14-5.14-2.77-7.77,2.93,2.56,5.88,5.82,4.99,10Z"/>
          <polygon points="424.81 420.84 420.82 426.83 420.81 420.83 424.81 420.84"/>
          <rect x="404.83" y="390.38" width="8.48" height="1.43" transform="translate(-156.73 403.8) rotate(-45)"/>
          <path d="M397.31,341.84l6.49,2.5c-3.33-3.48-8.36-5.37-12.99-6.51-.05-1.73,4.49-1.14,5.52-1.02,4.75.53,6.31,1.52,9.96,4.04.8.55,2.56,2.02,3.5,1.49l-7.99-7.01c-.15-.78.91-.6,1.5-.51,5.54.85,11.45,8.93,13.58,13.93l10.91-2.92c.48,1.91-1.64,3.02-1.81,4.63-.2,1.89,1.51,6.64,1.75,8.93.26,2.47-.02,4.97.06,7.43l-3-13.99c-1.75.1-1.11,2.48-3.02,3.5-.9.48-1.98.56-2.98.5,2.63,6.92,2.3,14.73-1.12,21.37-.53,1.03-2.15,3-1.87.14,2.94-4.37,3.56-10.96,3.04-16.06-.16-1.55-.16-3.03-2.04-3.45,1.66,5.38-.39,12.63-2.81,17.69-3.07,6.4-9.3,13.34-15.69,16.3-.81-1.11,1.45-2.29,2.17-2.82,3.35-2.47,5.78-3.98,8.19-7.82,2.1-3.35,3.58-8.4,4.14-12.35l-3.14,6.35c-4.87,6.61-9.77,10.77-17.84,13.17-6.24,1.85-13.16,3.29-19.31.28-7.74-3.8-9.29-16.13-8.71-23.79-1.24-.29-1.65,1.9-1.78,2.71-.74,4.83-.11,10.26,1.77,14.79-1.27.86-2.18-1.66-2.5-2.49-3.76-9.64-1.03-22.63,5.51-30.51,4.43-5.34,9.15-6.44,15.5-8.5h15ZM380.82,384.83c-4.89.72-7.47-2.95-10.51-5.99-.5.85.94,2.88,1.47,3.52,5.36,6.43,17.74,5.75,24.02.96l-10.53,1.54-4.97-2.02.51,1.99Z"/>
          <path d="M460.81,324.84l-7.92,3.57c-3.65,1.48-5.8,4.3-8.55,6.45-.7.55-2.64,1.97-3.52,1.48,5.06-5.5,12.35-10.88,19.99-11.5Z"/>
          <path d="M377.81,332.84c.23,1.42-1.73,1.39-2.77,1.72-2.42.75-4.81,1.56-7.23,2.27,1.97-2.66,6.87-4.08,10-3.99Z"/>
          <rect x="422.82" y="429.84" width=".99" height="6"/>
          <path d="M370.81,323.84c-.64,2.18-3.02,2.63-4.5,3.99l-.49-.49c1.65-1.38,2.75-3.84,4.99-3.5Z"/>
          <rect x="446.82" y="434.84" width=".99" height="2"/>
          <path d="M504.54,397.56c4.2-4.3,1.77-9.78.27-14.72h-.99s-1.01,1.49-1.01,1.49c1.99-4.58,3.42-9.96,3.04-15.02-.15-1.94-.9-3.72-1.07-5.92-.08-1.04-.6-3.82,1.04-3.54l4.02,34.44-2.03,4.04-8.97,4.02c1.19-2.18,4.43-3.46,5.72-4.78Z"/>
          <path d="M488.31,402.84c.65,0,.65,1,0,1s-.65-1,0-1Z"/>
          <path d="M450.82,501.83l6.02-4.47c5.09-4.2,7.93-10.52,13.97-13.52.65.72-2.32,4.68-2.99,5.5-4.03,4.95-10.55,11.62-17,12.49Z"/>
          <path d="M407.81,494.83c-7.91-.54-11.53-8.19-16-13.5-3.94-4.7-9.5-9.02-11-15.49l4.53,6.96c2.88,2.13,4.67,5.71,6.94,8.06,4.83,5.01,10.85,8.81,15.53,13.97Z"/>
          <path d="M372.82,465.84c3.54,3,5.22,7.72,7.99,11.5.82,1.12,2.19,1.89,3.03,2.97.55.7,1.97,2.64,1.48,3.52-4.93-5.34-12.17-9.97-12.5-17.99Z"/>
          <path d="M394.51,490.18l8.3,8.66c-5.94-.69-7.84-7.11-11.99-10.5l3.69,1.84Z"/>
          <path d="M440.81,497.83c.93-1.92,3.64-2.94,5.49-4.01.91-.52,2.52-2.05,3.5-1.49-2.29,2.65-5.41,5-8.99,5.5Z"/>
          <path d="M419.81,494.83c-3.38.15-4.56-2.45-6-4.99,1.12-1.04,5.55,3.74,6,4.99Z"/>
          <path d="M442.81,509.84c.25,1.73-2.37,1.08-3.44.94-3.37-.45-5.42-.86-9.07-.94-1.21-.02-3.73.73-3.49-1,5.45-.53,10.62.61,16,1Z"/>
          <path d="M445.82,487.84l3.5-6.99c.23,1-.57,3.08-.99,4-.54,1.18-1.03,2.74-2.51,2.99Z"/>
          <rect x="435.82" y="487.84" width=".99" height="2"/>
          <path d="M451.31,490.84c.65,0,.65,1,0,1s-.65-1,0-1Z"/>
          <rect x="431.82" y="189.84" width=".99" height="2"/>
          <path d="M409.8,285.64c0,2.71-2.2,4.9-4.9,4.9s-4.9-2.2-4.9-4.9,2.2-4.9,4.9-4.9,4.9,2.2,4.9,4.9ZM403.82,282.84c-.23,1.85-.05,2.91,1.5,3.99l1.49-1.49-2.99-2.5Z"/>
          <path d="M608.81,370.84c.28,1.64-2.48,1.11-3.53,1.03-3.27-.23-7.07-.68-6.46-5.04,3.02,1.99,6.07,4.48,9.99,4Z"/>
          <path d="M302.31,329.84c.65,0,.65,1,0,1s-.65-1,0-1Z"/>
          <path d="M461.59,282.07c1.02.97,2.82,4.34,1.77,5.82-3.19,4.52-11.11.91-8.12-5.12,1.66-1.24,4.74-2.22,6.35-.7ZM460.81,284.83c.49-.39-1.75-2.64-3-1.99v2s3,0,3,0ZM456.31,284.84c-.65,0-.65,1,0,1s.65-1,0-1Z"/>
          <path d="M465.31,281.84c.65,0,.65,1,0,1s-.65-1,0-1Z"/>
          <polygon points="432.81 242.84 430.87 241.24 431.82 237.84 432.81 237.84 432.81 242.84"/>
          <path d="M634.31,441.84c.65,0,.65,1,0,1s-.65-1,0-1Z"/>
          <path d="M645.5,268.03c11.75-2.59,14.87,15.32,2.99,12.62-4.14-.94-7.07-5.99-6.6-10.19.35-1.13,2.49-2.18,3.61-2.43ZM650.81,277.83l.94-3.38-3.93-2.62c-.12,2.66-.65,6.18,2.99,6Z"/>
          <path d="M540.81,236.84l-.49,1.99-3.52-.58-5.98,3.09c2.07-4.42,5.38-4.92,9.99-4.5Z"/>
          <rect x="262.55" y="320.99" width="3.53" height=".69" transform="translate(-149.8 281.01) rotate(-45)"/>
          <rect x="585.47" y="334.78" width=".69" height="2.12" transform="translate(-65.89 512.6) rotate(-45)"/>
          <path d="M376.81,227.83v-.99c2.03-.14,3.73-.35,4.99,1.5l-.49.49-4.5-.99Z"/>
          <polygon points="486.81 226.84 486.81 227.83 481.82 228.83 481.82 227.84 486.81 226.84"/>
          <rect x="229.34" y="288.49" width="4.94" height=".69" transform="translate(-136.34 248.51) rotate(-45)"/>
          <path d="M356.31,233.84c.65,0,.65,1,0,1s-.65-1,0-1Z"/>
          <path d="M503.81,233.83l2.49-1.99,2.5,3.5-.49.49c-1.17-1.52-2.58-2.18-4.5-2Z"/>
          <polygon points="228.32 278.85 228.8 279.33 226.31 282.83 225.82 282.34 228.32 278.85"/>
        </g>
        <path d="M375.81,591.84c-1.58.87-2.31,1.23-4,2,1.96-1.43.48-1.3,4-2Z"/>
        <path d="M445.81,589.83c7.04-1.8,13.27-6.27,20.2-8.29,12.61-3.68,25.09-1.82,35.73,5.86,5,3.61,4.91,7.27,12.06,1.43,1.47,6.75-2.73,15.24-9.68,16.82-3.07.69-6.81-.45-9.63.37-3.06.89-4.9,4.51-10.17,4.86-5.59.37-12.89-5.36-17.44-8.62-3.08-2.2-5.96-4.76-9.07-6.93l2-1.49c-11.49,2.27-20.88,9.4-28.5,17.99-3.04-3.96-6.45-7.53-10.56-10.43-2.32-1.63-10.12-6.41-12.49-6.59-1.53-.12-2.56.47-3.82,1.17-6.13,3.43-13.15,10.34-19.69,13.31-4,1.81-7,1.84-10.96.06-1.97-.88-3.77-2.9-5.67-3.33-3.1-.69-5.56.3-9.03-.97-7.56-2.77-10.55-8.25-9.28-16.21,8.23,5.28,7.01,2.31,12.49-2,10.1-7.94,23.42-8.37,35.54-5.54l19.96,8.54c-.08-3.8,1.04-12.36,5.5-13.02,4.1-.6,6.01,2.09,8.02,2.05,1.39-.02,2.27-1.72,3.97-2.04,9.01-1.66,11.45,5.31,10.51,13ZM434.04,586.09c-.51.51-.56,1.79-1.19,2.27l-1.53.47c-1.78-1.3-2.96-4.2-5.51-3.99l2.03,4.48-3.03,7c2.94,2.68,5.86-.02,6.01,5.51,3.21.75,2.53-3.21,3.16-3.84.4-.4,1.98-.13,2.84-.63,2.63-1.52-.42-6.6-1.06-8.96l3.06-3.56c-1.39-.1-3.82.29-4.77,1.25ZM375.81,591.84c1.06-.58,2.33-2.29,3.99-2.51l10.01-2.49h-14.5c-.55,0-8.28,4.68-9.43,5.57-2.22,1.71-3.98,4.06-6.06,5.94,1.08.56,3.51,1.44,4.57,1.47,1,.03,1.34-.96,1.43-.97,1.34-.16,2.76.19,4.26-.22,4.43-1.19,8.16-4.09,12.74-4.78-1.15,2.38-4.62,3.42-7,4l2,1-2,1.49c4.32,6.81,19.39-7.69,24.99-5.5.81-2.98-2.44-2.17-4.43-1.93s-4.41,1.23-6.61,1.39l-9.95,4.05,6.69-5.3,12.3-3.2h-16.5c-.34,0-4.61,1.63-6.5,2ZM498.97,596.68c-.13-.16.95-.94-.59-2.85-5.32-6.58-13.21-7.18-21.07-7-1.21.03-3.73-.74-3.49,1,6.07-.02,11.21,3.82,16.99,5.01l-2.51,1.99v-2c-3.11,1.22-6.58-2.19-10.2-2.78s-7.58-.02-11.29-.21l8.54,2.94c1.89.62,2.92,2.78,5.02,1.21l.94,3.84c-4.66-4.37-12.35-4.93-18.5-4.99-.49,2.82.62,1.64,2.23,2.23,5.87,2.16,14.74,9.15,20.47,6.97,1.16-.44,1.58.22,1.29-1.69l-4.5-5.5c4.4,3.55,9.83,3.69,15.05,4.96,2.52.15,2.5-.3.19-1.19-1.9-.73-3.48-1.94-5.7-1.87l-.03-2.41,8.5,4.5c3.85-.21-1.17-1.92-1.35-2.15Z"/>
        <path d="M371.81,593.84c-.58.26-1.17.63-2,1,.96-.71,1.79-.84,2-1Z"/>
        <path d="M369.81,594.84c-.18.13-.36.97-1.01,1.49s-1.75.33-1.99.51c.25-.23.3-1.06,1-1.5.78-.49,1.56-.31,2-.5Z"/>
        <path d="M365.81,597.84c.35-.38.62-.65,1-1-.16.13-.93.89-1,1Z"/>
        <path d="M365.81,598.84c-2.04-.49-.22-.76,0-1-.16.24.17.84,0,1Z"/>
        <path d="M478.31,597.84c.65,0,.65,1,0,1s-.65-1,0-1Z"/>
        <text class="cls-1" transform="translate(303.44 526.2) rotate(25.14)"><tspan x="0" y="0">e</tspan></text>
        <text class="cls-1" transform="translate(317.92 532.91) rotate(19.92)"><tspan x="0" y="0">x</tspan></text>
        <text class="cls-1" transform="translate(333.2 538.3) rotate(16.85)"><tspan x="0" y="0"> </tspan></text>
        <text class="cls-1" transform="translate(340.54 540.75) rotate(13.35)"><tspan x="0" y="0">m</tspan></text>
        <text class="cls-1" transform="translate(363.77 546.11) rotate(9.25)"><tspan x="0" y="0">o</tspan></text>
        <text class="cls-1" transform="translate(382.1 549.08) rotate(6.1)"><tspan x="0" y="0">r</tspan></text>
        <text class="cls-1" transform="translate(400.75 551) rotate(3.54)"><tspan x="0" y="0">t</tspan></text>
        <text class="cls-1" transform="translate(415.46 551.91) rotate(1.43)"><tspan x="0" y="0">e</tspan></text>
        <text class="cls-1" transform="translate(430.59 552.25) rotate(-.36)"><tspan x="0" y="0"> </tspan></text>
        <text class="cls-1" transform="translate(437.89 552.29) rotate(-1.65)"><tspan x="0" y="0">a</tspan></text>
        <text class="cls-1" transform="translate(454.95 551.81) rotate(-4.27)"><tspan x="0" y="0">d</tspan></text>
        <text class="cls-1" transform="translate(473.56 550.31) rotate(-6.39)"><tspan x="0" y="0"> </tspan></text>
        <text class="cls-1" transform="translate(480.93 549.55) rotate(-8.42)"><tspan x="0" y="0">v</tspan></text>
        <text class="cls-1" transform="translate(496.28 547.22) rotate(-10.95)"><tspan x="0" y="0">i</tspan></text>
        <text class="cls-1" transform="translate(506.49 545.29) rotate(-13.71)"><tspan x="0" y="0">t</tspan></text>
        <text class="cls-1" transform="translate(521.23 541.72) rotate(-17.85)"><tspan x="0" y="0">a</tspan></text>
        <text class="cls-1" transform="translate(538.47 536.36) rotate(-24.9)"><tspan x="0" y="0">m</tspan></text>
      </g>
    </g>
  </g>
</svg>