<svg id="Layer_1" data-name="Layer 1" xmlns="http://www.w3.org/2000/svg" viewBox="0 0 576 576"><defs><style>.cls-1{fill:#00964b;}</style></defs><g id="dY9Y4f"><path class="cls-1" d="M238,92.05h.28a5,5,0,0,0,4.89-2c3.75-4.4,8.78-6.31,14.49-6.28a22.41,22.41,0,0,1,4.76.83,3.3,3.3,0,0,0,3.31-.8c3-2.89,6.79-3.72,10.8-4a20.55,20.55,0,0,1,9.86,1.65,4.18,4.18,0,0,0,3.59,0,21.41,21.41,0,0,1,9.29-1.87A16.65,16.65,0,0,1,310,83.4a5.07,5.07,0,0,0,4.86,1.12,17.87,17.87,0,0,1,14.23,2.22,27.63,27.63,0,0,1,4.74,4.18,3.43,3.43,0,0,0,3.4,1.29,12,12,0,0,1,6,.48,19.17,19.17,0,0,1,9,5.38,24.48,24.48,0,0,1,2.54,3.78,3.46,3.46,0,0,0,2.81,1.9,19.77,19.77,0,0,1,9.64,3.51,17.48,17.48,0,0,1,5.31,6.61c.51,1,1,2.09,1.43,3.15a3.23,3.23,0,0,0,2.05,1.88,20.51,20.51,0,0,1,5.13,2.3c4.68,3.45,8.17,7.75,8.55,13.89a2.88,2.88,0,0,0,1.67,2.48c6.56,3.8,9.87,9.59,10.17,17.14a3.38,3.38,0,0,1-.06,1.1c-.52,1.72.11,2.87,1.56,3.86,2.72,1.86,4,4.73,5.12,7.7a17.49,17.49,0,0,1,.21,12.08c-.48,1.37.16,2.43.93,3.44a17.7,17.7,0,0,1,3.15,6.57A18.36,18.36,0,0,1,411,203.28a3.58,3.58,0,0,0-.08,3.39,28,28,0,0,1,1.95,6,17,17,0,0,1-3,13,6.83,6.83,0,0,0-1.24,6.19,17.34,17.34,0,0,1-.6,10.88,19,19,0,0,1-5.15,7.27,4,4,0,0,0-1.61,3.55,18.32,18.32,0,0,1-6,15.56,22.57,22.57,0,0,1-4,2.87,3.33,3.33,0,0,0-1.79,2.71c-.94,6-3.7,10.87-9.15,13.92a38.18,38.18,0,0,1-3.9,1.78,5.66,5.66,0,0,0-3.18,3.27,19.44,19.44,0,0,1-4.79,7.36,17.75,17.75,0,0,1-9.12,4.33l-1.77.3a4.35,4.35,0,0,0-3.17,2.21,17.56,17.56,0,0,1-3.16,4.33,26.52,26.52,0,0,1-6,3.63,14.44,14.44,0,0,1-8.51,1.22,2.91,2.91,0,0,0-3.07,1.24c-5.06,6.31-11.7,8.18-19.43,6.44a4.23,4.23,0,0,0-4.49,1.17c-1.86,1.93-4.4,2.62-6.93,3.25a18,18,0,0,1-13.17-1.47,3.84,3.84,0,0,0-3.8-.07,19.28,19.28,0,0,1-7.69,2.11,16.93,16.93,0,0,1-11.18-3.37,7.06,7.06,0,0,0-6.5-1.47,16.87,16.87,0,0,1-13.63-2.55,26.7,26.7,0,0,1-4.34-3.82,4.29,4.29,0,0,0-3.51-1.54,19.62,19.62,0,0,1-7-.78c-4.35-1.44-8-3.86-10.26-7.92a5.45,5.45,0,0,0-4.5-3c-7.55-1.16-12.41-5.68-15-12.73a3.12,3.12,0,0,0-2.18-2.21,18.19,18.19,0,0,1-9.89-6.7,22,22,0,0,1-3.9-9.67,3.05,3.05,0,0,0-1.92-2.6,13.54,13.54,0,0,1-6-5.31c-2.1-3.22-3.67-6.61-3.51-10.59,0-.46,0-.92,0-1.38a5.64,5.64,0,0,0-2.18-4.92,18.05,18.05,0,0,1-5.87-12.46,15.84,15.84,0,0,1,.93-7.21,2.7,2.7,0,0,0-.77-3,16.83,16.83,0,0,1-3.81-8.76,17.43,17.43,0,0,1,2.17-11.61,3.39,3.39,0,0,0,.1-3.35c-2.33-5.51-2.88-11.15-.57-16.82a16.16,16.16,0,0,1,2.11-3.55,3.46,3.46,0,0,0,.73-3.31,20.72,20.72,0,0,1-.66-8.62,16.79,16.79,0,0,1,5-10c2.12-2,3.15-4,2.82-7-.56-5.15,4-13.8,9.89-16.15a3.27,3.27,0,0,0,2-2.9,18.78,18.78,0,0,1,6.09-11.79,15.31,15.31,0,0,1,6.83-3.79,3.76,3.76,0,0,0,2.89-2.63c1.85-5,5-8.87,9.89-11a30.91,30.91,0,0,1,6.35-1.8,3.52,3.52,0,0,0,2.5-1.47,39.6,39.6,0,0,1,3-4.12A17,17,0,0,1,238,92.05Zm88.47,211.72c2,.47,3-.14,3.78-1.36a15.84,15.84,0,0,1,1.06-1.27c3.6-4.62,8.46-6.72,14.19-6.86a3.28,3.28,0,0,0,3.27-2,20.16,20.16,0,0,1,5.68-7.39,16.43,16.43,0,0,1,6.83-3.19,4.64,4.64,0,0,0,4-3.54c.23-.89.63-1.74.94-2.61a15.66,15.66,0,0,1,3.09-5.19,19.79,19.79,0,0,1,7.37-5,2.28,2.28,0,0,0,1.64-2.54,5.13,5.13,0,0,1,0-1c.25-3.93,1.32-7.58,4-10.53a52,52,0,0,1,4.59-4.17,2.27,2.27,0,0,0,.93-2.13c-.16-1.87-.18-3.76-.18-5.65a16.86,16.86,0,0,1,4.95-11.83,3.3,3.3,0,0,0,.67-3.74,29.43,29.43,0,0,1-1.36-6.74,16.64,16.64,0,0,1,2.74-10,4.2,4.2,0,0,0,0-4.78c-2.94-5-3.86-10.39-1.49-15.89.88-2.06.47-3.33-.94-4.95a18,18,0,0,1-4.62-14.31c.12-1,.23-2,.42-3a1.26,1.26,0,0,0-.56-1.42c-1-.76-2.09-1.53-3.07-2.36-4.19-3.58-5.7-8.42-6.05-13.66a3.07,3.07,0,0,0-2.23-3.13,15.15,15.15,0,0,1-8.19-6.7,26.68,26.68,0,0,1-2.43-5.85c-.47-1.77-1.17-2.77-3.07-3.07A17.77,17.77,0,0,1,358,126.5a17.58,17.58,0,0,1-8.69-9.12c-.65-1.37-1.32-2.38-3.06-2.11a6.51,6.51,0,0,1-1.5-.17,18.54,18.54,0,0,1-12.6-6.19c-.81-.88-1.43-1.93-2.23-2.81a2.24,2.24,0,0,0-1.39-.7c-1.42-.06-2.86.11-4.28.06a33.5,33.5,0,0,1-5.21-.44,16.86,16.86,0,0,1-8.1-4.55,3.56,3.56,0,0,0-3.64-1c-1.74.45-3.52.73-5.3,1a14.86,14.86,0,0,1-11.21-2.44,4,4,0,0,0-5-.11,16.06,16.06,0,0,1-13,2.26c-1.57-.38-3.16-.64-4.74-1a1.76,1.76,0,0,0-1.74.5,22.8,22.8,0,0,1-3.2,2.61c-3.13,2-6.46,3.38-10.29,3.11-1.47-.1-2.94-.18-4.41-.31a2.09,2.09,0,0,0-2.18,1.09,16.1,16.1,0,0,1-2,2.62,19.84,19.84,0,0,1-13.77,6.25c-1.62.1-2.89.39-3.53,2.18a15,15,0,0,1-5.67,7.15,20.92,20.92,0,0,1-8.22,3.5,2.28,2.28,0,0,0-2,2.08,21,21,0,0,1-2.91,6.83,16.86,16.86,0,0,1-8.41,6.88c-1.7.73-1.88.87-2,2.73-.21,6.15-2.63,11.17-7.66,14.79a4.22,4.22,0,0,0-1.91,4.75,16.28,16.28,0,0,1-.22,7.66,21.61,21.61,0,0,1-4.81,8.16,2.75,2.75,0,0,0-.56,3.23,18.52,18.52,0,0,1-.65,15.92c-.62,1.25-1.7,2.55-1.66,3.8s1.13,2.67,1.79,4a15.36,15.36,0,0,1,1.76,9.89,50.05,50.05,0,0,1-1.49,5.75,2.39,2.39,0,0,0,.51,2.52,48.23,48.23,0,0,1,3.08,3.92c2.42,3.6,2.81,7.7,2.28,11.84a5.22,5.22,0,0,0,2.42,5.5,15.32,15.32,0,0,1,6.6,11.94c0,.59.21,1.19.2,1.78a4,4,0,0,0,2.89,4.1,15.55,15.55,0,0,1,5.69,3.59,15.34,15.34,0,0,1,3.93,6.9,6.87,6.87,0,0,0,5.66,5.4,12.8,12.8,0,0,1,5.14,2.29,19.47,19.47,0,0,1,5.94,7.7A3.25,3.25,0,0,0,230,294a19,19,0,0,1,15.69,8.48,2.68,2.68,0,0,0,3.07,1.32,18.62,18.62,0,0,1,12.09,1.83,28.26,28.26,0,0,1,4.53,3.36,3.22,3.22,0,0,0,3.44.67,19.63,19.63,0,0,1,7.19-1.25,17.9,17.9,0,0,1,9.76,3.11,3,3,0,0,0,3.89,0c5.32-3.52,11-3.9,16.92-1.71a3,3,0,0,0,3.57-.7c3.1-2.9,6.65-5,11-5.32C323.11,303.66,325.05,303.77,326.47,303.77ZM182.2,192.39a7.33,7.33,0,0,0,0-1.24c-.32-1.77-.58-3.55-1.06-5.27-.39-1.44-1-1.58-2.22-.74a6.91,6.91,0,0,1-1.2.93c-2,.81-2.08,2.23-1.69,4.11.5,2.45.71,5-.78,7.24a20.17,20.17,0,0,1-3.16,3.62c-2.37,2.13-4.85,4.21-6.17,7.18-2.79,6.29-1.32,12.07,2.5,17.45.6.83.94.77,1.58-.11s1.3-1.9,2-2.82a1.79,1.79,0,0,0,.11-2.18,13.62,13.62,0,0,1-.74-1.48,9.4,9.4,0,0,1,2.07-10.71c1.14-1.13,2.26-2.31,3.45-3.39A16.08,16.08,0,0,0,182.2,192.39Zm80.54,129.72a41.67,41.67,0,0,1-2.25-3.55c-.54-1.06-1.21-1.21-2.33-1.12-4.85.4-8.18-1-10.44-5.71a42.82,42.82,0,0,1-1.88-4.61,15.94,15.94,0,0,0-7.5-9,18.46,18.46,0,0,0-8.42-2.4c-1.67-.09-1.81.08-1.49,1.66.17.81.36,1.62.54,2.43.37,1.68.48,1.94,2.09,2a8.39,8.39,0,0,1,2,.44,9.88,9.88,0,0,1,6.9,6.24q1,2.79,2,5.6a11.54,11.54,0,0,0,3.39,5.13,18.51,18.51,0,0,0,13.6,4.37A6.7,6.7,0,0,0,262.74,322.11ZM245.2,104.27c-1.08-.47-1.79-.79-2.51-1.08-2.67-1.08-2.67-1.07-4.73.9a10.3,10.3,0,0,1-9.47,3c-1.41-.26-2.79-.63-4.17-1-2.28-.56-4.52-1.29-6.94-.87a18.27,18.27,0,0,0-13.3,11.52c-.41,1.21-.23,1.5,1,1.54,1.06,0,2.12,0,3.18,0a2,2,0,0,0,2.12-1.2,9.55,9.55,0,0,1,.69-1.2,8.78,8.78,0,0,1,7.28-4.33,25.34,25.34,0,0,1,6.54.95,23.14,23.14,0,0,0,4.35.74c5.5.18,10-2.1,13.78-6A23.39,23.39,0,0,0,245.2,104.27Zm-68.91,48.85c.13,1.08.2,1.81.32,2.54s.64,1.06,1.41.79l1.94-.73c2.48-1,2.48-1,2.77-3.59a8.85,8.85,0,0,1,1.53-4.38,10.16,10.16,0,0,1,6.49-3.88c1.9-.39,3.82-.68,5.71-1.1,6.72-1.46,10.56-6,12.76-12.19.78-2.17.44-2.26-1.91-2.48s-3.77.46-4.71,2.82a9.39,9.39,0,0,1-7,6c-1.53.32-3.12.33-4.65.64a22.43,22.43,0,0,0-5.44,1.41C179.5,141.83,177.33,147.29,176.29,153.12ZM407.42,235a8.48,8.48,0,0,0-.86-4.16c-.34-.67-.78-.87-1.44-.45s-1.45,1-2.22,1.39a2.55,2.55,0,0,0-1.59,2.89,14.17,14.17,0,0,1,0,2.35,7.8,7.8,0,0,1-3.67,6.77,36.36,36.36,0,0,1-5.6,2.66,18.65,18.65,0,0,0-7,4.29,20.46,20.46,0,0,0-5.22,10.53c-.49,2.8.1,3.38,2.86,2.88l.14,0c2.63-.47,2.71-.57,3.27-3.1,1-4.33,3.25-7.48,7.73-8.7,1-.26,1.93-.63,2.89-1a14.86,14.86,0,0,0,5.91-3.48C405.83,244.43,407.42,240.34,407.42,235Zm-78.69-131.8c-.58-1.36-1.12-2.58-1.62-3.81a1.74,1.74,0,0,0-1.8-1.19c-1,0-2-.18-3-.31-3.4-.45-6.09-1.88-7.72-5.1A38.61,38.61,0,0,0,311,87a14.27,14.27,0,0,0-3.48-3.28c-3.08-2-6.62-2.45-10.22-2.35a11.44,11.44,0,0,0-6.51,2c-.87.63-.91.82-.2,1.62.46.52,1,1,1.39,1.54a2.9,2.9,0,0,0,3.66,1.21A9.73,9.73,0,0,1,307.07,92c.74,1.22,1.52,2.42,2.27,3.63a16.72,16.72,0,0,0,12,8.27A12.3,12.3,0,0,0,328.73,103.15ZM366.52,281h4c1.68,0,1.67,0,2.27-1.56,1.64-4.21,4.52-6.88,9.16-7.37,1.33-.15,2.65-.37,4-.53,4.79-.57,8.53-2.75,10.9-7.06,1.86-3.37,3.22-6.84,2.56-10.81-.18-1.06-.3-1.21-1.33-.87s-2.16.79-3.25,1.19a1.7,1.7,0,0,0-1.22,1.64,17.22,17.22,0,0,1-.52,2.85,8.28,8.28,0,0,1-5.75,6.18c-1.15.36-2.33.6-3.5.85-1.84.39-3.73.62-5.53,1.15-3.59,1.06-6.27,3.49-8.58,6.29A13.6,13.6,0,0,0,366.52,281ZM247.25,305.83c.45,1.09.83,2,1.17,2.86,1,2.5.43,2.42,3.67,2.45a9.88,9.88,0,0,1,8.81,4.56c1.12,1.74,2.22,3.49,3.26,5.29a11.64,11.64,0,0,0,6.58,5.6,24.84,24.84,0,0,0,9.69,1,10.3,10.3,0,0,0,5.66-2.58c-.81-.94-1.58-1.78-2.28-2.68a2.6,2.6,0,0,0-3.36-.91,9.34,9.34,0,0,1-10.85-3.6c-.56-.9-1.21-1.75-1.74-2.66-3.24-5.66-7.83-9.34-14.52-10A14.89,14.89,0,0,0,247.25,305.83ZM313.21,87a31.72,31.72,0,0,1,2.1,3.29c.67,1.39,1.67,1.62,3.05,1.45a9.13,9.13,0,0,1,9.45,4.88A54.5,54.5,0,0,1,330,102a17.28,17.28,0,0,0,16.52,11.41c.39,0,.78-.11,1.35-.19-.29-1.4-.54-2.66-.8-3.91-.31-1.45-.38-1.44-1.89-1.72-4.54-.84-7.95-3.1-9.44-7.7-.38-1.18-.75-2.38-1.19-3.54a16,16,0,0,0-4-6.39,16.47,16.47,0,0,0-12.37-4.2A9.44,9.44,0,0,0,313.21,87ZM169.94,179.56a17.33,17.33,0,0,1,2.52-1.69c2.17-1,2.37-2.62,2.21-4.74a8,8,0,0,1,4-8,27.37,27.37,0,0,1,5-2.33,17.46,17.46,0,0,0,10.3-8.49A14.69,14.69,0,0,0,196,146c-.1-1.16-.26-1.29-1.36-1.09-.81.15-1.63.32-2.45.41a2.07,2.07,0,0,0-2.09,2,16,16,0,0,1-.48,2,9,9,0,0,1-4.55,6c-2.05,1.05-4.21,1.88-6.3,2.84a25,25,0,0,0-3.79,1.93c-3.8,2.65-5.67,6.49-6.25,11A13.92,13.92,0,0,0,169.94,179.56Zm223.9,13c0,.64,0,1.29,0,1.94a14,14,0,0,0,2.78,7.83c.73,1,1.1,1,2,.11.58-.59,1.16-1.19,1.73-1.79,1.11-1.17,1.06-1.16.48-2.65-1.72-4.36-1.71-8.53,1.36-12.39,1.35-1.7,2.59-3.48,3.8-5.27a10.24,10.24,0,0,0,1.75-5.73,23.47,23.47,0,0,0-1.52-7.28,12.21,12.21,0,0,0-4.79-6.58c-.89-.63-1.17-.58-1.67.44s-.89,2-1.35,3a1.58,1.58,0,0,0,.35,1.89,11.87,11.87,0,0,1,2.8,6.51,7,7,0,0,1-1,5.05c-1.09,1.64-2.24,3.26-3.44,4.84A15,15,0,0,0,393.84,192.54ZM208.65,126.33a15.43,15.43,0,0,0,9.72-2.13,18.7,18.7,0,0,0,7.57-8.55c.37-.81.13-1.22-.71-1.37-1.09-.19-2.2-.32-3.26-.61s-1.56.13-2.07,1a11.59,11.59,0,0,1-5.84,5c-2.72,1.13-5.52.77-8.32.44-3.65-.44-7.1,0-10,2.44a27.43,27.43,0,0,0-5.82,6.79,9.5,9.5,0,0,0-1.54,5.24c0,1.27.34,1.55,1.62,1.34s2.26-.46,3.39-.66a1.21,1.21,0,0,0,1.11-1,8.82,8.82,0,0,1,.83-2.34c1.63-3,3.8-5.39,7.48-5.61C204.83,126.22,206.9,126.33,208.65,126.33Zm198,56.64a31.48,31.48,0,0,1-2.15,2.89c-1,1.12-.89,2.08-.21,3.35a9.13,9.13,0,0,1-.78,10.52,69.73,69.73,0,0,1-5.24,5.51,15.86,15.86,0,0,0-3.69,6.1,21.26,21.26,0,0,0-.54,9.18,11,11,0,0,0,1,3c.51,1.19.94,1.28,2,.58.65-.44,1.26-1,1.92-1.37a2.21,2.21,0,0,0,1-2.1c0-1.94,0-3.88-.05-5.82a6.06,6.06,0,0,1,1.4-4,31.53,31.53,0,0,1,3.52-3.51c2.13-1.86,4.18-3.78,5.3-6.46,2-4.86,1.48-9.68-.45-14.39A6.79,6.79,0,0,0,406.63,183Zm-11.29-1c.81-1.14,1.53-2.25,2.34-3.29a1.76,1.76,0,0,0,0-2.44c-2.72-3.91-3.42-8.1-1.21-12.52.72-1.45,1.49-2.87,2.18-4.33a12.06,12.06,0,0,0,1.1-7,18.09,18.09,0,0,0-4-8.85,13.23,13.23,0,0,0-4.85-4.05c-1.08-.49-1.49-.3-1.79.87-.24.89-.3,1.83-.59,2.7a2,2,0,0,0,.95,2.54c3.06,2.14,5.33,6.85,3.4,11.29-.65,1.48-1.22,3-1.92,4.45-2.73,5.74-2.05,11.3.9,16.7A10.79,10.79,0,0,0,395.34,182ZM266.24,86.19c1.19.86,2.29,1.62,3.33,2.44a2.4,2.4,0,0,0,2.8.16,15.76,15.76,0,0,1,4.44-1.42,8.92,8.92,0,0,1,7.52,2.8c1.56,1.5,2.95,3.18,4.56,4.63,4,3.65,8.91,4.66,14.17,4a16.29,16.29,0,0,0,3.85-1c1.07-.41,1.16-.87.57-1.82s-1.11-1.69-1.68-2.54a1.62,1.62,0,0,0-2-.75,13.29,13.29,0,0,1-2.85.49c-4.4.21-7.61-2-10.39-5.12a21.63,21.63,0,0,0-5.13-4.77c-5-2.82-10.29-2.44-15.44-.15A8.58,8.58,0,0,0,266.24,86.19Zm102,196.66V283a43.85,43.85,0,0,0-5.38,0,15.58,15.58,0,0,0-9.81,5.75,29.69,29.69,0,0,0-3,4.62c-.52.91-.34,1.15.7,1.42l2.16.51c2.14.5,2.29.42,3.5-1.4,1.93-2.91,4.41-5,8.09-5.07,2,0,3.95.08,5.92.23,3,.22,5.94,0,8.5-1.76a26.63,26.63,0,0,0,4.45-3.68,16.06,16.06,0,0,0,4.21-9.15c.15-1.11-.07-1.36-1.17-1.29-.64,0-1.27.25-1.91.26-1.94,0-2.92.81-3.51,2.8a8.66,8.66,0,0,1-7.79,6.51A43.33,43.33,0,0,1,368.28,282.85Zm-11.56,21.41a37.78,37.78,0,0,0,3.89-.9,20.07,20.07,0,0,0,7.83-5.08,12.86,12.86,0,0,0,3.29-5.53c.39-1.37.15-1.76-1.28-1.94-.82-.11-1.66-.05-2.49-.11a2.18,2.18,0,0,0-2.28,1.32c-2.63,4.46-6.52,6.51-11.76,5.36-1.63-.36-3.26-.68-4.87-1.08-7.12-1.74-14.55,2.54-17.68,7.64-.48.77-.31,1.15.47,1.46s1.69.73,2.55,1.08c1.57.64,1.6.65,2.74-.57a14.35,14.35,0,0,1,4.71-3.34c2.66-1.17,5.3-.79,8-.05C352.17,303.16,354.54,303.71,356.72,304.26ZM186.48,270.21a33.93,33.93,0,0,1,.89-3.66c.52-1.47.07-2.36-1.16-3.24a9,9,0,0,1-3.57-5.73,10.73,10.73,0,0,1,.72-6.23c.63-1.58,1.35-3.13,2-4.7,2.39-5.6,1.52-10.91-1.57-15.94a29.49,29.49,0,0,0-3.11-3.58c-1.06,1.56-2,2.85-2.82,4.21-.16.27.08.86.26,1.24.51,1,1.14,2,1.64,3a10,10,0,0,1,.24,8.57c-.6,1.44-1.32,2.84-2,4.24-1.56,3.08-2.43,6.26-1.52,9.73a21.65,21.65,0,0,0,4.05,7.95A13,13,0,0,0,186.48,270.21Zm-10.84-21.09c.63-1.33,1.15-2.51,1.74-3.65a2.07,2.07,0,0,0-.15-2.32,20.08,20.08,0,0,1-1.84-3.25c-1.19-2.92-1.64-5.87.36-8.69.61-.87,1.17-1.78,1.82-2.61,3.26-4.09,5.07-8.64,4.62-14a14.82,14.82,0,0,0-3-7.91c-.66-.88-.93-.89-1.73-.07s-1.6,1.79-2.43,2.65a1.08,1.08,0,0,0-.14,1.5c1.24,1.91,1.35,4.09,1.46,6.25a7.11,7.11,0,0,1-1.38,4.69c-1.53,2.08-3,4.18-4.53,6.28a9.4,9.4,0,0,0-1.82,4.13,19.89,19.89,0,0,0,2.42,12.54A11.09,11.09,0,0,0,175.64,249.12ZM388,136.29c0-.62-.06-1-.09-1.36a15.57,15.57,0,0,0-6.34-11.08,20.67,20.67,0,0,0-4.88-2.78c-1.74-.72-2.12-.34-2.18,1.51,0,.65,0,1.3-.06,1.94a2.39,2.39,0,0,0,1.64,2.76,9.11,9.11,0,0,1,5.54,9,21.73,21.73,0,0,1-.9,5.16,17.51,17.51,0,0,0,.72,11.64,18,18,0,0,0,5.8,7.44c1.42,1.09,1.81.94,2.58-.62.22-.46.4-.93.6-1.4.8-1.85.75-1.8-.65-3.31-2.92-3.14-4.38-6.79-3.48-11.14.36-1.71.83-3.4,1.21-5.11C387.71,138,387.86,137,388,136.29ZM265.51,97.6l-3.46-2.27c-1.27-.83-1.19-.73-2.5.13-3.48,2.28-7.13,3.63-11.31,1.72a68.72,68.72,0,0,0-7.29-3,12.8,12.8,0,0,0-4.61-.54c-3.78.22-6.92,2.06-9.83,4.35a10.24,10.24,0,0,0-3.43,4.41c-.45,1.18-.28,1.46.91,1.78.63.17,1.27.27,1.88.48a2.84,2.84,0,0,0,3.62-1.06,10.43,10.43,0,0,1,1.36-1.38A8,8,0,0,1,238.1,100a32.41,32.41,0,0,1,6.17,1.91c5,2.17,10,2.82,15.09.33C261.63,101.15,263.88,100,265.51,97.6Zm88,208.13c-.47-.32-.61-.47-.78-.51-1.07-.27-2.16-.49-3.22-.79a2.24,2.24,0,0,0-2.63.85c-3.32,3.94-7,4.91-11.9,3.19-1.7-.6-3.36-1.29-5-2-6.05-2.46-14.11-1.2-18.83,4.4a6.9,6.9,0,0,0-.5.84,20.11,20.11,0,0,1,2.26,1.49c1.44,1.26,2.65,1.23,4.25.06a10.54,10.54,0,0,1,11.26-1c1.47.67,3,1.29,4.42,2a13.12,13.12,0,0,0,5.35,1.26c5.12.12,9.16-2.18,12.52-5.81A38.34,38.34,0,0,0,353.51,305.73ZM211.33,285.52v.83c0,1.94,0,1.9,1.75,2.65a32.44,32.44,0,0,1,3.32,1.7,6.8,6.8,0,0,1,3.42,4.33c.46,1.83.79,3.7,1.22,5.54.53,2.28.76,4.66,2.07,6.7a16.7,16.7,0,0,0,14.47,8c2.64.06,2.71-.29,1.94-2.8a4.32,4.32,0,0,0-4.14-3.48,7.62,7.62,0,0,1-5.91-3.45,16.7,16.7,0,0,1-1.88-4.12c-.6-1.93-.83-4-1.4-5.92-1.88-6.27-5.74-10.65-12.22-12.39-2.62-.7-2.63-.65-2.63,2C211.34,285.25,211.34,285.39,211.33,285.52ZM335.8,94.57A24.51,24.51,0,0,1,337,97.71c.39,1.76,1.5,2.22,3.15,2.37a8.7,8.7,0,0,1,8.1,6.81c.44,1.56.77,3.14,1.09,4.72,1.31,6.36,4.47,11.26,10.69,13.8a10.44,10.44,0,0,0,4.71,1c0-1.48,0-2.85,0-4.22a1.53,1.53,0,0,0-1-1.6c-1-.44-1.9-.94-2.86-1.4a9.47,9.47,0,0,1-5.24-6.9c-.33-1.57-.56-3.17-.86-4.75a15.22,15.22,0,0,0-1.92-5.87,18.29,18.29,0,0,0-12.53-7.85A5.48,5.48,0,0,0,335.8,94.57Zm-49,1c-1.18-1.32-2.17-2.4-3.11-3.51a1.47,1.47,0,0,0-2.08-.29,9.66,9.66,0,0,1-2.29.93,12.82,12.82,0,0,1-10.86-2.29c-1.07-.8-2.13-1.62-3.22-2.39-2.56-1.82-5.38-3-8.55-2.42a45.36,45.36,0,0,0-7.06,1.88c-2.69,1-4.52,3-6.1,5.51,1.44.66,2.76,1.21,4,1.86a1.68,1.68,0,0,0,2.3-.43,9.27,9.27,0,0,1,11.29-1.64c1.78,1.06,3.49,2.24,5.24,3.34a17.35,17.35,0,0,0,16,1.75A40.23,40.23,0,0,0,286.8,95.52Zm-100.56,68c-1.08.45-1.93.9-2.84,1.18-2,.61-2.63,1.82-2.59,3.91a10.27,10.27,0,0,1-5.43,9.73c-1.8,1-3.53,2.19-5.23,3.38a11.32,11.32,0,0,0-4.07,4.95,21.52,21.52,0,0,0-1.21,10.48,9.4,9.4,0,0,0,.89,2.89c1.39,3,1.56,2.94,4,.72,1.37-1.27,2-2.55,1.27-4.37a6.6,6.6,0,0,1-.31-1.48,8.13,8.13,0,0,1,1.54-6.4,24,24,0,0,1,4.94-4.39,45.94,45.94,0,0,0,5.73-4.74c3.14-3.33,4.07-7.56,4-12A28.47,28.47,0,0,0,186.24,163.55Zm186.3-40.11h-.06c0-1.29.06-2.59,0-3.87a12.52,12.52,0,0,0-4.07-8.81,23.63,23.63,0,0,0-6.28-4.22,10,10,0,0,0-4.57-.89c-.85,0-1.19.39-1,1.21a16.07,16.07,0,0,1,.41,2.45c0,1.64.89,2.28,2.38,2.66a9.25,9.25,0,0,1,7.13,8.52c.17,2.15.18,4.32.27,6.48.27,6.7,3.51,11.6,9.26,14.85,2.52,1.43,2.78,1.13,3.43-1.7.46-2,0-3.11-1.76-4.28-2.7-1.78-4.79-4.24-5.07-7.7C372.43,126.58,372.54,125,372.54,123.44ZM187,247.73c-.66,1.49-1.2,2.85-1.84,4.17a1.3,1.3,0,0,0,.46,1.79,16.07,16.07,0,0,1,1.83,1.86,10.11,10.11,0,0,1,2.35,8.77c-.42,2-.83,4-1.24,6a12.84,12.84,0,0,0,2.3,11.13,29.86,29.86,0,0,0,4.83,4.9,15.09,15.09,0,0,0,4.38,1.95c1,.35,1.27.07,1.3-1,0-1.2,0-2.4,0-3.6a1.58,1.58,0,0,0-.94-1.54,13.91,13.91,0,0,1-2.46-1.54c-2.73-2.29-4.41-5.08-3.63-8.83.4-1.9.84-3.78,1.3-5.66a12.08,12.08,0,0,0-.15-7.24,38.53,38.53,0,0,0-3.23-6.69A12.06,12.06,0,0,0,187,247.73Zm10.29,18.63c-.26,1.35-.5,2.55-.73,3.76-.31,1.69-.25,1.78,1.16,2.69,3.85,2.46,6,5.85,5.89,10.57-.08,2.16-.07,4.33,0,6.5a10.34,10.34,0,0,0,2.75,7.07,43.91,43.91,0,0,0,5.57,4.71,11.44,11.44,0,0,0,6.54,2c1,0,1.24-.24,1.09-1.25-.11-.73-.37-1.44-.41-2.17-.08-1.73-.93-2.57-2.62-3a9.23,9.23,0,0,1-6.86-8.44c-.14-2-.21-4-.27-5.94a16.86,16.86,0,0,0-3.71-10.63A17.47,17.47,0,0,0,197.24,266.36Zm112.64,56.79a22.65,22.65,0,0,1-2.25-1.69c-1.5-1.45-2.85-1.56-4.86-.61-4,1.87-7.92,1.78-11.34-1.94a60.18,60.18,0,0,0-4.9-4.68c-4.81-4.15-10.35-5-16.3-3.16-2.55.77-2.49.88-1,3.14,2,3.15,1.39,2.51,4.61,2a10.76,10.76,0,0,1,10.31,3.63,35.73,35.73,0,0,0,5.37,5.35c4.41,3.21,9.37,3.21,14.4,1.63A14.75,14.75,0,0,0,309.88,323.15Zm22.71-6.73c-1.15-.58-2.16-1-3.1-1.59-1.43-.84-2.6-.55-3.93.39a16,16,0,0,1-4.16,2.08,7.76,7.76,0,0,1-7.25-1q-2.38-1.65-4.83-3.21a17.1,17.1,0,0,0-15.5-1.77,10.67,10.67,0,0,0-4.73,3c1,.87,1.89,1.64,2.75,2.46,1.49,1.44,1.2,1.19,2.8.53,3.81-1.56,7.6-1.84,11.23.56,1.49,1,3,2,4.42,3.08a12.84,12.84,0,0,0,9.2,2.69A17.23,17.23,0,0,0,332.59,316.42Zm76-110.11c-1.31,1.2-2.38,2.21-3.49,3.17a1.5,1.5,0,0,0-.46,1.72,23.6,23.6,0,0,1,.71,3.52c.31,3.28-.55,6.14-3.33,8.16-2,1.44-4.07,2.73-6,4.24a19.28,19.28,0,0,0-3.82,3.78,17.68,17.68,0,0,0-3,11.42,22.36,22.36,0,0,0,.69,3.22c1.59-.69,2.88-1.28,4.21-1.8a1.44,1.44,0,0,0,1-1.84c-.43-1.86.23-3.54.74-5.26a8.75,8.75,0,0,1,3.75-5c1.66-1.09,3.31-2.18,4.95-3.3a13.32,13.32,0,0,0,4.22-3.93,17.27,17.27,0,0,0,1.28-15.67A17.81,17.81,0,0,0,408.59,206.31Z"/><path class="cls-1" d="M324,248a13.1,13.1,0,0,1,1.68,1,9.14,9.14,0,0,1,3.06,4.36c.4,1.34.68,1.4,1.85.63,2.7-1.77,5.4-3.55,8.05-5.39a2,2,0,0,0,.79-1.45c-.06-3.69-.22-7.37-.36-11.06,0-.6-.15-1.2-.12-1.79a4.29,4.29,0,0,0-2.08-4c-4.21-3-8.43-6-12.62-9-5.73-4.13-11.41-8.31-17.13-12.44-4.75-3.43-9.51-6.86-14.31-10.22a3.09,3.09,0,0,1-1.53-2.83c.06-8.72,0-17.45,0-26.17,0-2,.06-2,2-2l19.11,0c1.86,0,1.87,0,1.88-1.83,0-.79,0-1.57,0-2.36,0-1.2-.15-1.3-1.39-1.34H293.28c-1.84,0-1.93-.09-1.93-2,0-4.24,0-8.49,0-12.74,0-1.49-.07-1.55-1.57-1.55-2.9,0-2.57-.22-2.61,2.61-.05,4-.12,7.93-.18,11.9,0,1.47-.08,1.56-1.59,1.56L267,161.88c-3,0-3.05.1-3.05,3,0,3.17,0,2.74,2.68,2.75,6.14,0,12.28,0,18.42,0,1.86,0,1.9,0,1.91,1.83,0,8.63,0,17.26,0,25.89a4.37,4.37,0,0,1-2,3.84q-16.08,11.53-32.12,23.13-5.69,4.08-11.42,8.07a4.66,4.66,0,0,0-2,3.74c-.23,4-.41,7.92-.64,11.88a2.89,2.89,0,0,0,1.29,2.85c2.75,1.78,5.49,3.57,8.25,5.34a3.48,3.48,0,0,0,.89.22c.54-3.52,3.59-4.64,5.8-6.56l.34.14c0,.48.07,1,.07,1.44q0,21.68,0,43.35c0,2.25-.18,2.4-2.26,1.68a89.51,89.51,0,0,1-18-8.78,100.93,100.93,0,0,1-20.87-17.84A92.06,92.06,0,0,1,202.91,252a96.25,96.25,0,0,1-11.77-32.49A99.51,99.51,0,0,1,190,197.46a95.68,95.68,0,0,1,4.33-24.18A97.83,97.83,0,0,1,208.15,146a91.27,91.27,0,0,1,12.54-14.36,103.48,103.48,0,0,1,12.34-9.8,101.43,101.43,0,0,1,20.13-10.37A96,96,0,0,1,276,105.82a104.43,104.43,0,0,1,16.86-.44,95.15,95.15,0,0,1,26.71,5,103.48,103.48,0,0,1,14.4,6.07,83,83,0,0,1,15.1,10c3.36,2.81,6.63,5.75,9.7,8.86a93.37,93.37,0,0,1,14.21,18.84,98.34,98.34,0,0,1,6.39,13.19,93.56,93.56,0,0,1,5.39,20.15A100.61,100.61,0,0,1,386,204a97,97,0,0,1-8.2,38.44,95.84,95.84,0,0,1-14.2,23,97.86,97.86,0,0,1-19.45,18,102.09,102.09,0,0,1-18.07,9.86c-2,.86-2.35.66-2.35-1.49q0-20.09,0-40.16C323.79,250.52,323.93,249.48,324,248Z"/><path class="cls-1" d="M268.88,270.68V256.14c0-1.74,0-1.78,1.79-1.78q6.72,0,13.43,0c.63,0,1.46-.29,1.74.67s-.1,1.54-1.11,2.11c-.12.06-.24.14-.37.19-1.78.66-2.44,1.91-2.46,3.83a61.19,61.19,0,0,1-.71,6.73,9.63,9.63,0,0,1-2.1,4.76,5.84,5.84,0,0,0-1.62,3.43,3.69,3.69,0,0,0,1.48,3.24,16.31,16.31,0,0,0,7.38,2.95A16.9,16.9,0,0,0,297,280.72a11.78,11.78,0,0,0,3.13-2.43,2.66,2.66,0,0,0,.24-3.34,20.94,20.94,0,0,0-1.44-2.36,14.25,14.25,0,0,1-2.32-8c-.07-1.51-.3-3-.41-4.54a2.69,2.69,0,0,0-1.54-2.29c-.6-.33-1.18-.72-1.77-1.08a1.22,1.22,0,0,1-.53-1.67,1.54,1.54,0,0,1,1.2-.63q7.62-.06,15.23,0c1.23,0,1.44.21,1.45,1.49.1,9.64.2,19.28.24,28.93,0,2.32-.28,2.49-2.53,2.47l-27.27-.13c-3.37,0-6.74,0-10.11,0-1.57,0-1.65-.07-1.65-1.62q0-7.41,0-14.82Z"/><path class="cls-1" d="M289.57,251.05H270.88c-1.92,0-2-.07-2-1.91q0-6.16,0-12.33c0-1.49.09-1.59,1.55-1.6q18.82-.12,37.65-.21c2.35,0,2.36,0,2.35,2.41,0,4.14-.08,8.29-.09,12.44,0,.8-.3,1.22-1.13,1.21s-1.75,0-2.63,0h-17Z"/><path class="cls-1" d="M331.81,250c0-.87-.08-1.36-.08-1.85,0-2.91-.05-5.82,0-8.72a6.39,6.39,0,0,0-2.91-5.71c-6.8-4.92-13.47-10-20.21-15q-8.67-6.44-17.37-12.81c-2-1.47-2.07-1.48-4.07,0-4.54,3.32-9,6.7-13.57,10.05l-19.13,14.15c-1.93,1.42-3.83,2.88-5.75,4.31a4.33,4.33,0,0,0-2,3.82c.08,3.32-.08,6.64-.11,10,0,1.2-.29,1.43-1.4,1a5.33,5.33,0,0,1-3.57-5.86q.33-3.51.38-7a5.45,5.45,0,0,1,2.43-4.79q14.38-10.22,28.68-20.57,7.14-5.13,14.23-10.32c1.53-1.11,2-1.12,3.56,0L313.73,217q9.88,7.09,19.81,14.16a6,6,0,0,1,2.76,5.26c0,2.72.22,5.44.47,8.14a3,3,0,0,1-1.6,3.34C334.1,248.48,333.1,249.18,331.81,250Z"/></g><path class="cls-1" d="M206.27,386.28c0,3.05,0,6.09,0,9.14a1.93,1.93,0,0,1-1.07,2.05c-6.67,3-13.51,4-20.55,1.4-6.14-2.26-9.65-6.93-11.25-13.09a26.22,26.22,0,0,1,.1-14.22,18.52,18.52,0,0,1,16.92-13.7,20,20,0,0,1,12,2.52,28.12,28.12,0,0,1,2.7,1.92,1.07,1.07,0,0,1,.25,1.68c-1.4,1.83-2.79,3.67-4.2,5.49-.64.82-1.24.54-1.83-.09a8.3,8.3,0,0,0-4.39-2.47,9.56,9.56,0,0,0-11.13,4.9,14.55,14.55,0,0,0,.1,14.92c2.26,3.89,5.91,5.22,10.27,4.79a22.89,22.89,0,0,0,2.72-.52,1.26,1.26,0,0,0,1.06-1.4c0-1.66,0-3.32,0-5,0-.88-.34-1.27-1.23-1.24-1.34,0-2.68.06-4,0s-1.47-.16-1.48-1.42c0-1.8,0-3.6,0-5.39,0-1,.38-1.32,1.31-1.31,4.11,0,8.22,0,12.32,0,1.21,0,1.37.21,1.38,1.54C206.28,380,206.27,383.14,206.27,386.28Z"/><path class="cls-1" d="M249.66,382.4q4.35,8.07,9,16.75a15.4,15.4,0,0,1-1.79.23c-2.35,0-4.7-.16-7.05-.13a2.13,2.13,0,0,1-2.23-1.41c-2.11-4.47-4.29-8.9-6.44-13.34a2.06,2.06,0,0,0-2.73-1,1.24,1.24,0,0,0-.5.73,4.1,4.1,0,0,0-.05,1.11v13.75a10.16,10.16,0,0,1-1.17.14c-2,0-4,0-6,0-1.48,0-1.52-.07-1.54-1.59,0-.19,0-.37,0-.56v-36c0-.37,0-.74,0-1.11,0-.76.37-1.09,1.07-1.16.18,0,.37-.06.55-.06,3.69,0,7.38,0,11.07.14a32.37,32.37,0,0,1,6.3.64c5.27,1.24,8.33,5.26,8.51,10.71.1,3.19-.41,6.24-2.59,8.65A33.76,33.76,0,0,1,249.66,382.4Zm-11.73-11h0c0,1.15,0,2.3,0,3.45,0,.86.32,1.29,1.21,1.26a23.48,23.48,0,0,0,3-.05A15.58,15.58,0,0,0,246.1,375a3.76,3.76,0,0,0,1.92-3.72,3.67,3.67,0,0,0-2.11-3.58c-2.31-1.11-4.75-.93-7.17-.83-.63,0-.82.51-.82,1.08C237.93,369.1,237.93,370.25,237.93,371.4Z"/><path class="cls-1" d="M312.87,399.14c-1.22.08-2.26.2-3.3.2-1.75,0-3.5-.12-5.25-.1a1.44,1.44,0,0,1-1.58-1.19c-.61-1.84-1.32-3.64-1.93-5.48a1.47,1.47,0,0,0-1.62-1.15c-3.74,0-7.48,0-11.22,0a1.5,1.5,0,0,0-1.65,1.28c-.56,1.85-1.21,3.68-1.81,5.52-.22.67-.58,1.18-1.35,1.17-2.58,0-5.16-.1-7.74-.16a3.22,3.22,0,0,1-.73-.27c.19-.66.34-1.28.56-1.87q5.72-15.3,11.45-30.6c.81-2.16,1.61-4.32,2.38-6.5a1.38,1.38,0,0,1,1.59-1.12c2,.11,4,.11,6,0a1.8,1.8,0,0,1,2.05,1.37c1.67,4.64,3.43,9.26,5.14,13.89l8.64,23.51C312.61,398.09,312.7,398.53,312.87,399.14Zm-23.53-16a9.73,9.73,0,0,0,1.3.2c1.9,0,3.79,0,5.68,0,1.33,0,1.48-.22,1.09-1.48-.78-2.55-1.57-5.11-2.39-7.65-.36-1.11-.78-2.21-1.18-3.31h-.44C292.07,374.94,290.73,379,289.34,383.14Z"/><path class="cls-1" d="M382.4,379V360.86c0-1.95,0-1.95,1.89-1.95h20.48c1.83,0,1.84,0,1.84,1.85s0,3.41,0,5.12c0,1.3-.11,1.41-1.44,1.42-4.15,0-8.31,0-12.46,0-1.62,0-1.65,0-1.66,1.6s0,2.87,0,4.29a1.19,1.19,0,0,0,1.29,1.41c.56,0,1.11.06,1.66.06,3.46,0,6.92,0,10.37,0,1.31,0,1.4.13,1.41,1.45,0,1.66,0,3.32,0,5,0,1.37-.11,1.46-1.54,1.47H393.41a12.63,12.63,0,0,0-1.38.06,1,1,0,0,0-1,1.11c0,2,0,4,0,6,0,.76.33,1.08,1.09,1.08,1.66,0,3.32,0,5,0,3,0,6.09,0,9.13,0,1.23,0,1.37.14,1.39,1.34,0,1.84,0,3.69,0,5.54,0,1.58-.15,1.71-1.77,1.7l-17.15-.19c-1.61,0-3.23,0-4.84,0-1.39,0-1.48-.1-1.48-1.52q0-9.35,0-18.68Z"/><path class="cls-1" d="M347.25,357.8c6,0,10,1.21,13.5,4.16.31.27.57.6.87.89a1.15,1.15,0,0,1,0,1.81q-2.22,2.47-4.39,5c-.58.66-1,.7-1.68,0-3.79-4.27-11.34-3.73-14.69,2.11a14.6,14.6,0,0,0-.83,13.07,9.32,9.32,0,0,0,7.85,6.39,8,8,0,0,0,7-2.27c1.76-1.76,1.63-1.87,3.38,0,1,1.11,2.14,2.17,3.2,3.26,1.31,1.35,1.3,1.63,0,2.94a17.3,17.3,0,0,1-14.29,5.26,18.19,18.19,0,0,1-11.47-4.92,19.35,19.35,0,0,1-5.08-8.13,24.12,24.12,0,0,1,1.43-19.72C335.61,361.06,341.31,357.89,347.25,357.8Z"/><path class="cls-1" d="M392.41,421.67V435c0,2,0,2.06-2.12,2.05h-.42c-1.44,0-1.59-.15-1.6-1.59q0-9.06,0-18.14c0-1.73.19-1.72,1.91-1.91a4.55,4.55,0,0,1,5.08,2.69c2,3.56,4.25,6.91,6.41,10.35a8,8,0,0,0,1.47,1.83c0-.47.06-.93.06-1.4,0-3.88,0-7.75,0-11.63,0-1.7.13-1.8,1.81-1.8,2.34,0,2.34,0,2.34,2.36V435c0,1.89,0,1.91-1.95,1.88-4-.05-2.8.57-4.93-2.8-2.45-3.85-4.76-7.79-7.14-11.69-.18-.28-.42-.53-.63-.8Z"/><path class="cls-1" d="M265.87,425.66a3,3,0,0,0,.72.51c3.52,1.33,3.44,7.27.55,9.18a11.75,11.75,0,0,1-6.17,1.7c-2,.11-4.06.06-6.08,0-1.4,0-1.56-.2-1.57-1.64q0-9.19,0-18.39c0-1.48.1-1.62,1.56-1.59a76.51,76.51,0,0,1,9.1.33,5.07,5.07,0,0,1,3.53,7.93A19.81,19.81,0,0,1,265.87,425.66Zm-8.55,5c0,3.18-.46,2.91,2.87,2.86a12.4,12.4,0,0,0,3.62-.63,2.64,2.64,0,0,0-.37-4.83,11.48,11.48,0,0,0-3.39-.39C257.32,427.79,257.33,427.85,257.32,430.62Zm0-9.3a9.7,9.7,0,0,0,0,1.79c.06.33.43.87.65.86a30.25,30.25,0,0,0,4.76-.37,2.41,2.41,0,0,0,1.57-2.37,2.19,2.19,0,0,0-1.66-2,11.88,11.88,0,0,0-2.85-.4C257.33,418.79,257.33,418.83,257.34,421.32Z"/><path class="cls-1" d="M350.07,437.12c-1.35-.09-2.72-.14-4.06-.32-.32,0-.67-.47-.86-.8-1.32-2.33-2.59-4.68-3.88-7a1.82,1.82,0,0,0-2.42-.9,1.4,1.4,0,0,0-.62,1.06c-.05,1.15.06,2.3.09,3.45s0,2.21,0,3.31c0,.74-.41,1.13-1.23,1.2-2.69.2-2.89,0-2.88-2.7q0-8.58,0-17.15c0-1.72.07-1.84,1.79-1.8a81.32,81.32,0,0,1,8.41.34c3.06.38,4.62,2.07,5.2,4.93a5.39,5.39,0,0,1-3.12,6.13c-1.48.69-1.53.85-.68,2.25,1.21,2,2.44,3.91,3.64,5.88.32.53.55,1.12.83,1.68Zm-11.85-15.41a17.66,17.66,0,0,0,0,2.06c0,.29.39.77.58.76a31.7,31.7,0,0,0,5.16-.43,2.29,2.29,0,0,0,1.61-2.6,2.47,2.47,0,0,0-2-2.32,11.92,11.92,0,0,0-2.45-.32C337.74,418.84,338.26,418.69,338.22,421.71Z"/><path class="cls-1" d="M204.09,427.6l5.45,9.16A5.65,5.65,0,0,1,208,437c-3.65-.5-2.84.71-4.68-2.77-.91-1.71-1.85-3.41-2.83-5.08a2.53,2.53,0,0,0-1.11-1.13c-1.38-.49-2.12.07-2.15,1.55,0,2,0,4.06,0,6.1,0,1.21-.14,1.32-1.36,1.36-2.56.1-2.59.07-2.59-2.41q0-8.24,0-16.48c0-3.05-.16-2.74,2.65-2.71,2.44,0,4.89.07,7.32.27a7.36,7.36,0,0,1,2.71,1,5.79,5.79,0,0,1-.37,10.2Zm-4.16-2.79a22.46,22.46,0,0,0,3.17-.74,2.22,2.22,0,0,0,1.53-2.23,2.27,2.27,0,0,0-1.52-2.38,9.35,9.35,0,0,0-2.65-.6c-3.18-.16-3.23-.1-3.23,3.07C197.23,424.65,196.86,424.65,199.93,424.81Z"/><path class="cls-1" d="M312.71,474.69a35.35,35.35,0,0,1-4.2-.06c-.45-.06-.94-.69-1.21-1.17-1.17-2-2.26-4.12-3.39-6.19-.18-.32-.38-.63-.59-.93a2,2,0,0,0-2.27-.59c-.82.19-.54,1-.55,1.51,0,2,0,4.06,0,6.09,0,1.24-.14,1.35-1.34,1.4-2.62.1-2.62.1-2.62-2.47,0-5.82,0-11.63,0-17.45,0-1.64.06-1.63,1.71-1.74a31.73,31.73,0,0,1,8.26.34c1.93.39,3.7,1.05,4.75,3a5.92,5.92,0,0,1-2.68,8.32c-1.28.59-1.33.69-.58,1.92,1.2,2,2.44,3.91,3.64,5.88C312,473.1,312.23,473.73,312.71,474.69Zm-12.22-15.23c.05,3.05-.49,2.84,2.92,2.82a3.83,3.83,0,0,0,1,0,10,10,0,0,0,2.32-.76,2.27,2.27,0,0,0,.48-3.72,4.7,4.7,0,0,0-3.68-1.22C300.06,456.48,300.54,456.37,300.49,459.46Z"/><path class="cls-1" d="M347.23,463.94c0-3.1,0-6.19,0-9.28,0-1.41.11-1.5,1.48-1.54,2.47-.06,2.47-.06,2.47,2.48,0,1.66,0,3.33,0,5,0,.84.35,1.14,1.16,1.13,2.45,0,4.89,0,7.34,0,.84,0,1.15-.38,1.14-1.18,0-2,0-4,0-6,0-1.32.14-1.45,1.42-1.45,3,0,2.73-.16,2.73,2.65q0,8.52,0,17c0,1.87-.08,1.93-2,1.94h-.7c-1.2,0-1.45-.24-1.48-1.48-.05-1.89,0-3.78,0-5.67,0-2.28,0-2.28-2.26-2.28-2,0-4,0-6,0-1.34,0-1.43.09-1.44,1.4,0,2.17,0,4.34,0,6.51,0,1.38-.11,1.47-1.51,1.5-2.45,0-2.44,0-2.44-2.38v-8.44Z"/><path class="cls-1" d="M259.65,463.81c0,3.23,0,6.45,0,9.68,0,1-.44,1.24-1.32,1.27-2.76.09-2.77.11-2.77-2.66,0-1.85,0-3.69,0-5.53,0-.88-.33-1.26-1.22-1.25q-3.6,0-7.2,0c-1,0-1.27.44-1.26,1.35,0,2.12,0,4.24,0,6.37,0,1.53-.15,1.67-1.64,1.7-2.34,0-2.33,0-2.33-2.24q0-8.72,0-17.43c0-2,0-2,2-1.95h.42c1.41,0,1.51.12,1.52,1.49,0,1.89,0,3.79,0,5.68,0,1.28.1,1.38,1.31,1.39,2.35,0,4.7,0,7.06,0,.95,0,1.31-.37,1.29-1.31,0-1.94,0-3.88,0-5.81,0-1.28.18-1.45,1.44-1.46a4.38,4.38,0,0,1,2.27.21c.39.27.3,1.32.3,2,0,2.81,0,5.62,0,8.43Z"/><path class="cls-1" d="M214.05,426.24c0-3.09,0-6.18,0-9.27,0-1.39.12-1.5,1.51-1.5,3.78,0,7.57,0,11.35,0,1.43,0,1.52.13,1.53,1.63,0,1.76-.12,2-1.51,2-2.5,0-5,0-7.48,0-1.29,0-1.42.15-1.45,1.43,0,.69,0,1.39,0,2.08.07,1.22.29,1.43,1.5,1.47l6.91.2c1.36,0,1.45.13,1.47,1.55,0,1.6-.12,1.81-1.51,1.82-2.26,0-4.52,0-6.78,0-1.5,0-1.59.12-1.61,1.56,0,.92,0,1.84,0,2.77,0,1.36.05,1.41,1.39,1.42,2.58,0,5.17,0,7.75,0,.58,0,1.59.2,1.66.48a6.64,6.64,0,0,1,0,2.7c0,.22-.87.41-1.33.42-2.86,0-5.72,0-8.58,0h-2.77c-2,0-2.06,0-2.06-2.11v-8.72Z"/><path class="cls-1" d="M384.44,436.85c-1.44,0-2.67,0-3.89,0-.31,0-.68-.45-.84-.79-.45-.91-.82-1.86-1.18-2.8a1.46,1.46,0,0,0-1.56-1.08q-3.47,0-6.92,0a1.29,1.29,0,0,0-1.39,1.05c-.34,1-.74,2-1.18,3-.13.3-.43.73-.68.75-1.26.07-2.53,0-4,0,.33-.9.54-1.59.82-2.25q3.75-8.7,7.5-17.41a2.83,2.83,0,0,1,3.92-1.71,2.56,2.56,0,0,1,1.06,1.33c1.61,3.63,3.18,7.27,4.74,10.92,1.07,2.5,2.11,5,3.15,7.53C384.12,435.75,384.22,436.18,384.44,436.85Zm-7.91-8.35L373.79,421h-.41l-2.89,7.48Z"/><path class="cls-1" d="M318.2,427.67c0,1.83,0,3.43,0,5,0,.79.69.74,1.24.74l7.61,0a1.88,1.88,0,0,1,1.81,2.91,1.22,1.22,0,0,1-.73.51,5.9,5.9,0,0,1-1.51.19H315.7c-1.53,0-1.68-.16-1.68-1.66q0-9.21,0-18.41c0-1.45.1-1.54,1.6-1.55,3.73,0,7.47,0,11.2,0,.57,0,1.4-.21,1.49.6a8.75,8.75,0,0,1-.21,2.69c0,.13-.73.19-1.12.19-2.35,0-4.7-.09-7.05,0-1.79,0-2,.29-2,2,0,3.44-.16,3.12,3,3.15,1.89,0,3.78.15,5.67.17.89,0,1.27.37,1.23,1.24a5.75,5.75,0,0,0,0,.83c0,.93-.39,1.34-1.33,1.33-2.26,0-4.52,0-6.78,0Z"/><path class="cls-1" d="M282.7,460.46c0-2,0-4.06,0-6.09,0-.87.34-1.21,1.23-1.25,2.9-.12,3-.1,2.95,2.78,0,3.78-.12,7.56-.2,11.34-.11,5.51-4.78,8.26-9,8s-7-2.47-8-6.08a5.78,5.78,0,0,1-.23-1.36c0-4.47,0-8.94-.07-13.41,0-.93.35-1.29,1.31-1.32,2.71-.06,2.71-.1,2.72,2.56,0,3.09,0,6.18,0,9.27a23.92,23.92,0,0,0,.27,3.16c.34,2.2,1.54,3.21,4,3.49a4.18,4.18,0,0,0,4.51-2.48,10.9,10.9,0,0,0,.52-3.11c.08-1.85,0-3.69,0-5.54Z"/><path class="cls-1" d="M319.78,464c.1-4.43,1.77-8,5.78-10a12.09,12.09,0,0,1,12.16.43,4.77,4.77,0,0,1,.77.59c.84.76.83,1.11-.07,1.87-.35.29-.74.55-1.1.83a1.32,1.32,0,0,1-1.84,0,6.94,6.94,0,0,0-11.13,4.9c-.33,2.71.12,5.22,2.24,7.23a6.76,6.76,0,0,0,8.74.45c.44-.34,1.15-.86,1.49-.71a10.11,10.11,0,0,1,2.47,1.71c.1.09-.12.83-.38,1a14.89,14.89,0,0,1-3.06,2.08,11.71,11.71,0,0,1-13.12-2.6A10.86,10.86,0,0,1,319.78,464Z"/><path class="cls-1" d="M234.2,471.35a8,8,0,0,1-5.5,3.61,12.27,12.27,0,0,1-8.46-1.09c-3.77-1.91-5.46-5.08-5.69-9.14-.19-3.25.41-6.32,2.83-8.67a11.91,11.91,0,0,1,3.76-2.49,12.42,12.42,0,0,1,10.83.51c2.18,1.18,2.2,1.95.24,3.43a1.54,1.54,0,0,1-2.18,0,6.94,6.94,0,0,0-10.39,2.76,8.23,8.23,0,0,0,1.13,9,6.54,6.54,0,0,0,9,1.08c1.62-1.15,1.62-1.17,3.24,0C233.37,470.65,233.71,471,234.2,471.35Z"/><path class="cls-1" d="M173.06,426.16q0-4.43,0-8.85c0-1.72.11-1.88,1.77-1.85,2.71,0,5.44.06,8.14.3a5.76,5.76,0,0,1,4.72,3c1.46,2.56.72,7.74-3.47,8.77a38.67,38.67,0,0,1-5.59.72c-1.3.12-1.42.15-1.44,1.46,0,1.84,0,3.69,0,5.53,0,1.58-.11,1.7-1.62,1.68-2.55,0-2.55.36-2.53-2.56,0-2.72,0-5.45,0-8.17Zm4.15-4.32h0c0,.65,0,1.3,0,1.94s.35,1.11,1.1,1.05a32.66,32.66,0,0,0,3.57-.33,2.93,2.93,0,0,0,2.4-2.69,2.72,2.72,0,0,0-2.25-2.62,7.1,7.1,0,0,0-1.76-.33c-3.68-.07-3-.15-3.06,2.84Z"/><path class="cls-1" d="M241.34,414.92a10,10,0,0,1,5,1.27c1.35.75,1.39,1.17.46,2.35l-.09.11c-1.19,1.42-1.31,1.44-2.93.45a4.23,4.23,0,0,0-5,.09c-1.56,1.28-1.46,3.09.32,4.06a27,27,0,0,0,3.2,1.28c.65.25,1.32.43,2,.69a5.42,5.42,0,0,1,3.64,4.94,6.26,6.26,0,0,1-3,6.15c-3,1.84-8.12,1.55-10.94-.51-1.33-1-1.36-1.42-.19-2.57l.59-.58c.93-.87,1.16-.93,2.07,0a5.07,5.07,0,0,0,4.46,1.34,4,4,0,0,0,2.16-1.05,2.4,2.4,0,0,0-.64-4,28.81,28.81,0,0,0-3.16-1.39c-1.09-.49-2.19-1-3.25-1.51-3.53-1.81-3.27-8,.5-9.9A10.78,10.78,0,0,1,241.34,414.92Z"/><path class="cls-1" d="M291.56,415.9c-.8,1.27-1.58,2.55-2.41,3.8-1.61,2.42-3.27,4.8-4.84,7.24a3.72,3.72,0,0,0-.45,1.84c-.05,2.21,0,4.42,0,6.64,0,1.52-.09,1.58-1.55,1.5-2.62-.16-2.62-.16-2.62-2.8,0-1.71,0-3.42,0-5.12a4.29,4.29,0,0,0-.81-2.57c-2.15-3.17-4.24-6.38-6.33-9.58a11.6,11.6,0,0,1-.65-1.32c1.61,0,3-.06,4.32.05.33,0,.7.54.92.91,1.19,1.93,2.32,3.88,3.49,5.81.33.55.73,1,1.29,1.82l2.93-4.88c.6-1,1.16-2,1.81-2.95a1.77,1.77,0,0,1,1.05-.76c1.18-.1,2.37,0,3.56,0Z"/><path class="cls-1" d="M299.37,427.87c0-2.44,0-4.89,0-7.33,0-1.3-.15-1.41-1.43-1.46s-2.58-.16-3.87-.18c-.83,0-1.18-.37-1.14-1.17,0-.28,0-.56,0-.83,0-1.31.13-1.43,1.44-1.43q7.06,0,14.12,0c1.31,0,1.41.14,1.43,1.43,0,.28,0,.56,0,.83.05.93-.37,1.36-1.31,1.35-1.2,0-2.4,0-3.6,0-1.39,0-1.49.11-1.49,1.51q0,7,0,14c0,.42,0,.83,0,1.25,0,.78-.32,1.22-1.14,1.22-3.18,0-2.92.36-3-2.68C299.32,432.21,299.36,430,299.37,427.87Z"/><path class="cls-1" d="M355,426.24c0-3.09,0-6.17,0-9.26,0-1.39.11-1.48,1.49-1.51,2.49-.06,2.48-.06,2.48,2.47q0,8.64,0,17.28c0,.6.28,1.51-.57,1.64a10.37,10.37,0,0,1-3.09-.12c-.16,0-.29-.8-.29-1.24,0-3.09,0-6.17,0-9.26Z"/></svg>