<?xml version="1.0" encoding="UTF-8"?>
<svg id="Layer_1" data-name="Layer 1" xmlns="http://www.w3.org/2000/svg" viewBox="0 0 573.65 689.91">
  <defs>
    <style>
      .cls-1 {
        fill: #ff8b00;
      }
    </style>
  </defs>
  <path class="cls-1" d="M453.49,375.33v-153.17c-18.46-18.1-36.8-36.32-55.16-54.53-3.19,1.23-6.38,2.46-9.57,3.68-12.59-10.68-24.39-22.29-37.25-32.66-4.69.39-9.39,2.96-14.05,4.32l-12.79,4.54c-13.8-14.65-26.95-29.9-40.8-44.5l-19.2,19.37c-12.66,12.77-25.25,25.61-37.64,38.64-7.38-4.56-14.76-9.14-22.14-13.7-15.05,14.96-29.84,30.19-45.61,44.39-5.57,5.36-11.75,10.25-16.6,16.27-3.4,1.72-7.38,5.83-10.65,8.82-2.59,2.46-5.15,4.96-7.71,7.44v155.13c3.15,3.77,8.37,4.88,12.54,7.22,24.72,11.3,49.86,21.66,74.67,32.77,23.5,10.16,46.68,21.08,70.04,31.54,7.6,3.53,15.78-.17,22.67-3.57,38.86-18.19,78.16-35.43,117.35-52.89,9.84-4.58,20.05-8.39,29.66-13.43,2.44-1.03,2.41-3.5,2.24-5.69ZM319.57,180.75c2.19-5.03,4.53-9.99,6.83-14.97,5.04-3.02,9.92-6.35,14.93-9.39-1.37,5.06-3.12,10.01-4.72,15-1.82,5.31-3.4,10.76-5.19,16.05-5.76,3.73-12.57,5.47-18.87,8.11-3.66,1.16-8.62,3.65-11.57,3.82,6.32-6.03,14.04-10.97,18.59-18.61ZM258.69,151.27c6.92-6.23,13.62-12.8,21.12-18.32-.21,3-.84,5.95-1.32,8.91-.8,4.5-1.63,9-2.32,13.53,5.33,2.67,10.66,5.34,15.99,8.01-5.07,9.32-10.01,18.73-15.59,27.75.19-4.33,1.03-9.55,1.34-14.23.47-3.11,1.52-11.06-3.26-5.81-6.85,5.07-13.18,10.86-20.07,15.84,2.62-9.22,6.35-18.12,9.21-27.24-7.2,2.84-14.1,6.48-21.46,8.9,4.64-6.41,10.66-11.82,16.35-17.34ZM186.64,188.59c6.2-5.48,12.07-11.34,18.38-16.68,1.45,1.55,2.57,3.39,3.81,5.12,3.92,3.71,3.99,7.36-1.75,8.54-10.62,5.02-21.25,10.1-32.28,14.16,1.84-3.09,8.34-7.45,11.84-11.14ZM133.76,229.88c11.06-1.74,21.72-5.38,32.75-7.29,9.82-1.86,19.45-5.19,29.5-5.57,8.34.74,16.54,2.64,24.75,4.2,8.21,1.43,16.39,3.63,24.7,4.17,12.43-2.19,24.6-5.84,36.89-8.53,15.44,1.66,30.05,7.4,44.98,11.37,5.88,1.54,12.03,3.83,18.13,1.97,15.9-3.46,31.62-7.8,47.56-11.03,12.18-1.17,24.06,2.74,35.96,4.73,5.09,1,10.18,1.99,15.27,2.98-.4,2.24,1.96,7.95-1.52,6.76-14.2-3.08-28.41-6.35-42.84-8.21-11.42.81-22.47,4.25-33.65,6.56-8.95,1.8-17.73,4.73-26.82,5.64-13.77-2.39-26.94-7.33-40.46-10.8-7.21-1.87-14.8-4.39-22.22-2.03-10.46,2.13-20.62,5.84-31.24,7.07-8.84-.03-17.36-2.99-26.07-4.21-8.74-1.26-17.41-3.82-26.29-3.63-13.78,2.09-27.31,5.62-40.9,8.73-6.16,1.46-12.24,3.27-18.49,4.34v-7.23ZM359.25,238.26c1.12.29,9.7-3.91,5.74-.01-5.38,6.1-1.72,14.95,2.69,20.46,10.18,12.21,23.89,20.93,33.79,33.43,7.15,8.78,15.36,17.07,25.9,21.66,6.14,3.13,11.38,7.62,16.68,11.95.12,3.42.23,6.84.35,10.26-7.83-7.74-15.75-15.64-25.65-20.7-10.74-6.72-19.58-15.89-27.69-25.52-9.4-10.57-20.13-19.81-30.42-29.47-5.06-4.72-8.96-11.26-8.25-18.41-1.17-4.14,4.53-2.04,6.85-3.65ZM409.04,253.21c-2.8-.53-5.19,1.73-6.87,3.66-4.01,5.48,1.48,11.18,4.69,15.42,6.99,8.96,16.59,15.28,26.62,20.34,3.67,1.98,7.29,4.04,10.84,6.23.01,2.99.02,5.98.03,8.97-7.41-5.57-16.89-7.22-24.35-12.67-8.06-6.53-14.71-14.59-22.2-21.74-5.31-5.62-11.31-10.62-16.26-16.56-2.87-3.35-3.64-9.8,1.4-11.56,7.53-3.18,15.92-1.87,23.86-1.77.85.06,1.7.13,2.54.24,11.87,2.21,23.57,5.35,35.02,9.21v9.58c-11.25-4.73-22.84-9.99-35.32-9.36ZM444.36,265.93v30.3c-8.07-6.58-18.51-9.48-26.34-16.46-5.46-4.81-10.86-10.13-14.11-16.71-2.39-5.52,4.3-7.81,8.65-7.03,3.13.1,6.24.62,9.27,1.39,7.78,2.04,15.42,4.73,22.53,8.51ZM410.08,240.67c-8.53-.87-17.27-.68-25.7.9-5.01.94-9.71,5.81-7.95,11.15,2.38,7.87,10,12.24,15.16,18.13,8.42,8.09,16.12,16.92,24.75,24.78,5.44,5.03,12.52,7.36,19.14,10.31,3.08,1.46,5.94,3.32,8.87,5.05v12.18c-6.45-6.61-14.52-11.19-22.61-15.46-4.91-2.46-8.94-7.89-13.22-10.12-3.54-6.03-8.89-10.89-13.61-16.04-9.14-9.59-20.4-17.32-27.91-28.38-2.06-3.63-1.41-7.89-1.52-11.88,6.13-6.86,15.51-8.73,24.12-10.48,9.32-3.1,18.93.18,28.22,1.7,8.76,1.72,17.52,3.48,26.22,5.48l.35,11.73c-11.12-4.08-22.76-6.57-34.32-9.04ZM133.76,364.64v-13.53c8.64-.33,17.04-2.84,24.64-6.94,11.68-5.85,22.2-14.29,35.11-17.43,9.9-2.82,21.09-4.03,28.87-11.4,4.21-3.59,5.39-10.71.79-14.51-1.98-1.44-4.11-3.5-6.58-3.77-3.33.16-6.74-.22-10.02.26-9.22,2.78-17.83,7.24-25.6,12.93-11.17,8.31-23.7,15.71-37.82,17.2-3.12.43-6.26.62-9.39.86v-16.94c11.84.4,24.25-1.33,34.17-8.28,12.76-8.03,24.57-19.36,40.1-21.42,4.3-.51,8.67-.04,12.82,1.12,8.39,2.35,16.91,7.52,20.39,15.8.28,5.78-.48,11.89-4.56,16.35-9.14,11.2-23.23,16.33-36.12,21.85-15.86,5.98-31.1,13.65-44.9,23.52-6.67,3.93-13.43,9-21.4,9.53-1.14-.75-.18-3.6-.5-5.18ZM152,328.66c20.6-4.97,34.64-23.54,55.29-28.36,3.29-.68,6.76-.81,10.03.1,5,1.02,7.84,7.3,4.42,11.39-5.47,6.71-14.57,8.56-22.57,10.62-10.92,1.82-20.92,6.77-30.28,12.5-9.92,5.75-20.07,12.47-31.93,12.81-2.12.44-3.98.61-3.2-2.13v-14c6.09-.95,12.32-.97,18.24-2.94ZM146.15,381.08c-4.06-2.27-9.83-2.76-12.66-6.43,2.88-3.78,9.52-2.69,13.43-5.84,12.85-7.13,24.38-16.57,37.91-22.52,16.16-7.72,34.18-12.23,48.32-23.65,6.64-5.89,12.69-14.75,10.65-24.04-2.58-10.26-12.86-15.63-22.16-18.67-3.2-1.71-6.86-.89-10.33-1.09-5.42-.1-11.08.83-15.7,3.72-3.08.99-7.8,3.33-11.08,5.7-8.91,5.71-17.03,12.91-26.88,16.99-7.65,2.73-15.83,3.26-23.88,3.06v-15.15c8.49.83,17.35.63,25.1-3.37,14.4-7.06,26.02-19.66,42.07-23.31,4.25-.41,8.62.17,12.91.15,3.07-.07,6.09.21,8.97,1.32l2.6.74c11.54,3.17,23.49,9.41,28.35,21,1.06,1.79,1.86,3.64,1.48,5.76-.09,3.86.12,7.79-.16,11.61-3.03,9.37-9.65,17.12-17.68,22.66-14.84,10.41-31.84,17.11-47.65,25.84-13.56,6.95-25.57,16.43-36.65,26.81-1.85,2.88-4.57-1.22-6.96-1.29ZM155.19,384.79c4.85-5.77,11.01-10.4,16.94-15.04,13.92-10.63,30.03-17.69,45.68-25.31,13.06-6.98,26.76-14.54,35.38-26.99,8.23-12.24,6.35-30.27-4.91-40.03-11.21-9.47-26.2-13.75-40.7-14.02-13.07-.34-24.43,7.28-34.74,14.4-9.1,5.89-18.52,13.44-30.01,12.81-3.02,0-6.04-.06-9.05-.09v-17.99c5.67-.27,11.39-.28,17.03-.7,13.47-4.41,25.32-12.65,38.79-17.01,10.65-2.91,22.11-1.77,32.83.17,13.82,2.7,27.57,8.44,37.09,19.17,11.97,11.95,12.8,32.44,3.11,46.02-10.28,15.21-27.25,23.56-43.17,31.58-13.28,6.77-26.04,14.65-37.3,24.46-5.05,4.19-9.81,8.78-13.64,14.11-4.52-.66-8.89-4.12-13.32-5.51ZM171.49,392.24c1.6-4.28,5.67-7.38,8.86-10.64,13.37-12.12,28.67-21.95,44.82-29.92,14.87-7.81,30.93-15.83,40.13-30.57,2.86-4.81,5.13-10.13,6.4-15.55-.07-5.16.14-10.38-.11-15.51-2.61-7.8-6.76-15.24-12.75-20.94-3.06-1.4-5.69-5.63-9.84-7.17-13.88-8.14-30.13-11.69-46.11-11.99-16.08.12-29.8,9.6-44.13,15.63-6.44,3.29-13.68,4.05-20.8,3.75-1.53-.37-4.9,1.09-4.2-1.52v-11.16c12.03-1.58,23.83-4.85,34.73-10.25,8.86-4.38,18.45-8.24,28.55-7.21,3.79.17,7.56.55,11.33.95,15.51,2.29,30.46,7.63,44.77,13.92,14.13,5.73,24.01,18.76,29.07,32.78.91,2.85.18,6,.41,8.98-.14,3.83.27,7.76-.22,11.53-3.08,9.29-7.1,18.61-14.64,25.21-10.51,9.73-23.57,16.03-35.65,23.54-14.8,8.95-30.44,17.12-42.45,29.87-3.07,3.14-6.15,6.45-7.82,10.58-3.45-1.45-6.85-3.02-10.36-4.31ZM192.75,401.46c-3.75-1.69-11.06-3.82-5.53-8.52,14.23-17.92,35.48-27.6,54.5-39.39,9.74-6.19,20.18-11.62,28.63-19.59,14.73-14.52,20.6-38.91,10.3-57.52-5.46-10.98-14.71-19.88-25.9-24.9-14.02-6.34-28.89-10.88-44.02-13.7-12.01-1.75-25.08-2.94-36.29,2.71-12.75,6.42-26.37,11.7-40.68,13.04v-13.38c14.23-2.5,28.19-6.37,42.33-9.33,6.45-1.29,12.9-3.28,19.48-3.42,3.06.37,6.11.85,9.15,1.35,11.62,2.14,23.39,3.9,34.74,7.23,8.64,3.65,17.32,7.19,26.06,10.58,11.04,4.56,19.67,13.7,24.66,24.44,3.78,6.8,5.62,14.53,5.24,22.3-.23,4.44.62,9.03-.97,13.3-3.66,15.68-12.17,30.4-25.17,40.12-12.96,10.33-28.89,15.72-42.66,24.72-1.23,2.15-.42,1.49-3.22,2.36-4.05,2.08-6.36,6.28-9.49,8.24-5.52,6.06-10.72,13.42-10.83,21.94-1.36,3.43-7.24-2.18-10.33-2.58ZM224.49,407.91c-3.74-7.94,1.66-16.76,7.94-21.64,13.6-11.32,29.88-18.59,45-27.53,13.51-8.54,23.31-22.52,26.88-38.09,1.86-5.95,2.25-13.4,7.99-17.12,3.36-.24,7.22.44,10.42,1.7,10.56,4.95,20.1,11.82,28.52,19.86,8.9,8.46,18.32,16.39,28.77,22.89,3.38,3.2,8.56,4.9,10.34,8.97,4.12,5.88,6.06,13.57,3.31,20.45-4.82,13.62-18.39,21.39-31.31,25.99-12.43,4.09-25.46,6.11-37.65,10.98-13.34,4.61-26.69,9.52-40.61,12.08-12.2,1.66-25.04,2.3-36.69-2.42-8.7-3.4-17.88-7.88-22.92-16.12ZM289.92,444.36c-4.75.02-9.26-3.72-13.86-5.34-6.41-3.16-13.17-5.71-19.45-9.06,4.47-.22,9.41.75,14.07.32,21.19-.23,40.96-8.63,60.73-15.23,16.7-5.36,34.87-7.56,49.51-17.98,9.87-6.49,18.53-17.6,16.71-30.03-1.9-11.9-12.55-19.36-22-25.42-12.28-7.65-21.59-18.93-32.95-27.73-7.42-4.99-15.03-10.16-23.65-12.8-5.61-1.7-12.47,1.14-13.93,7.14-3.37,10.04-4.92,20.9-10.97,29.85-2.72,3.68-4.62,7.96-8.43,10.42-1.72.75-1.88,2.21-1.42,3.11.2.15.39.37.59.65-.24-.13-.44-.37-.59-.65-1.4-1.1-2.82,1-4.24,1.86-11.07,7.9-23.85,12.94-35.19,20.41-9.14,6.04-19.72,12.1-23.61,22.97-2.36,6.44.19,13.72,5.2,18.16,3.01,3.81-5.91-1.77-7.8-2.16-4.12-1.84-8.2-3.79-12.4-5.43-.23-5.46.27-11.2,3.89-15.61,7.6-11.81,19.6-19.74,31.92-25.96,14.87-7.79,30.98-15.13,41.23-29.02,13.39-17.45,19.43-41.72,11.52-62.78-5.75-13.74-16.02-26.62-30.72-31.16-4.99-2.02-10.41-3.52-14.84-6.57,4.79-.8,9.66-3.37,14.64-2.49,1.49.34,2.93.85,4.38,1.32,13.69,4.41,25.39,14.45,31.69,27.4,6.35,11.03,13.03,22.8,24.49,29.24,11.86,7.41,24.36,14.32,33.69,24.99,8.4,8.83,16.88,17.79,27.42,24.11,9.09,6.13,19,12.68,23.03,23.42,3.91,9.15,2.55,20.61-4.17,28.04-38.2,17.24-76.3,34.72-114.49,52ZM423.58,383.91c-4.67,1.82-9.1,4.2-13.8,5.92,6.76-10.52,4.04-24.73-2.96-34.42-9.62-13.64-26.79-18.64-37.69-30.98-8.32-9.31-17.04-18.45-27.75-25.05-10.28-6.87-22.15-12.23-29.38-22.73-7.09-8.75-10.72-19.77-18.17-28.25-2.43-.64-2.91-4.06-5.15-4.53-2.6-4.09-7.92-6.03-12.05-8.5-2.84-1.67-12.32-3.98-4.47-5.25,5.95-1.87,12.55-3.28,18.29.08,7.78,6.1,12.21,15.3,17.27,23.57,5.22,8.86,9.43,18.48,16.23,26.3,3.52,1.55,4.88,6.39,8.92,8.14,12.05,7.75,25.91,13.22,35.55,24.23,6.52,7.14,13.56,13.81,21.59,19.26,10.6,7.79,21.89,15.51,29.13,26.76,4.03,7.7,6.44,16.82,4.45,25.46ZM435.52,377.75c-2.3,1.86-9.82,7.13-8.21.57-.06-12.15-5.45-24.12-14.7-32.06-10.82-10.11-23.74-17.65-34.62-27.68-7.24-7.26-13.66-15.63-22.87-20.58-11.29-6.92-24.47-12.02-32.19-23.41-7.16-10.39-12.1-22.12-19.04-32.65-1.92-4-6.01-7.6-7.23-11.45,2.46.64,4.86,1.5,7.32,2.14,5.61.96,9.86,4.92,12.54,9.77,6.88,10.87,10.82,23.94,21.16,32.31,8.73,7.34,19.46,11.9,27.71,19.88,9.57,9.14,17.85,19.64,28.4,27.75,12.91,9.76,27.22,18.86,35.47,33.28,3.83,6.67,6.59,14.39,6.26,22.13ZM438.27,377.05c-.12-9-2.87-17.91-8.22-25.19-6.85-10.8-17.09-18.68-27.42-25.91-9.26-6.36-17.58-13.97-24.86-22.52-5.7-6.6-11.67-13.08-19.17-17.67-10.31-7.08-22.43-12.97-28.58-24.47-4.57-8.36-8.76-16.94-13.98-24.92.66-.32,5.09,2.01,6.83,2.21,4.18,1.28,8.43,2.32,12.72,3.14,1.68,10.32,6.58,20.17,14.46,27.16,5.94,6.28,13.32,10.81,19.97,16.23,9.65,8.78,16.86,19.94,27.03,28.2,12.4,10.74,27.99,18,37.72,31.64,3.69,5.06,6.77,10.67,9.29,16.35.13,4.4.26,8.8.4,13.19l-6.19,2.57ZM444.53,343.32c-.2,3.85-.24,7.71-.66,11.54-6.62-13.64-17.78-24.59-30.57-32.52-11.83-7.31-21.64-17.28-30.56-27.83-6.02-7.21-13.24-13.23-20.88-18.64-8.66-6.96-17.37-14.78-21.18-25.56-1.48-3.82-3.93-9.55,2.5-8.65,1.76.36,6.46-2.63,6.18.85.37,9.05,5.65,17.18,12.61,22.7,11.27,9.84,22.25,20.04,31.84,31.56,8.01,9.04,16.96,17.39,27.6,23.24,8.1,4.92,15.31,11.13,21.45,18.34,1.79,1.2,2.04,2.97,1.67,4.97Z"/>
  <path class="cls-1" d="M451.51,470.96c-6.87,1.89-13.77,6.48-15.38,13.86-2.29,7.72-.14,17.72,7.78,21.29,7.92,4.19,17.04,5.04,25.26,8.39,5.74,3.87.43,11.56-4.95,12.42-8.15,1.49-16.77-2.13-22.39-8.04-2.21,3.51-5.44,6.4-7.94,9.54,3.38,5.53,10.13,8.13,16.01,10.22,11.87,3.73,27.06,1.7,34.69-9.02,5.72-8.15,4.36-21.78-5.1-26.57-7.77-4.33-17.01-4.82-24.97-8.55-1.77-1.37-3.69-3.13-2.66-5.53.81-5.63,7.7-6.21,12.22-5.45,5.44.08,9.43,4.26,14.19,5.95,1.04-4.09,9.52-9.81,4.13-13.02-5.94-3.22-12.28-6.31-19.22-6.01-3.89-.08-7.83-.17-11.67.53Z"/>
  <path class="cls-1" d="M85.65,505.32v33.8c5.18,0,10.35,0,15.53,0,.11-8.88-.32-17.8.46-26.64,9.49-.26,18.98-.12,28.47-.15v26.8h15.53c-.11-22.53-.22-45.07-.32-67.6-5.17,0-10.34,0-15.51,0v27.71h-28.41c.04-9.24.09-18.47.13-27.71h-15.88v33.8Z"/>
  <polygon class="cls-1" points="400.98 505.32 400.81 539.12 416.34 539.12 416.34 471.52 401.14 471.52 400.98 505.32"/>
  <path class="cls-1" d="M367.08,515.74c6.48-2.88,10.58-9.22,13-15.59-.08-3.84.2-7.75-.1-11.54-2.47-5.9-6.04-11.81-12.21-14.39-7.62-3.6-16.3-2.26-24.45-2.69-6.31,0-12.62,0-18.93,0v67.6h15.83v-21.32h10.82c4.35,7.06,8.83,14.04,13.31,21.01,5.78.11,11.56.23,17.35.34-4.35-8.11-10.22-15.36-14.61-23.42ZM361.59,501.02c-5.8,3.98-13.24,2.97-19.95,3.5-2.53.74-1.01-2.73-1.42-4.21v-15.7c6.28.47,12.84-.22,18.88,1.7,5.33,2.37,6.39,10.69,2.49,14.71Z"/>
  <path class="cls-1" d="M297.5,526.38c-2.37-3.69-4.77-7.36-7.25-10.98,8.63-3.72,15.03-12.56,14.53-22.16.29-8.49-5.07-16.57-13.01-19.61-2.02-1.07-4-2.27-6.38-1.84-12.18-.12-24.36-.24-36.54-.35v67.71l15.53-.34v-21.01c3.48,0,6.97,0,10.45,0l13.28,21.32c5.6-.13,11.25.32,16.8-.39-1.53-4.08-5.11-8.26-7.43-12.35ZM285.02,501.71c-6.03,3.43-13.27,2.1-19.94,2.39-1.22-.69-.23-3.6-.57-5.18-.04-4.67-.07-9.34-.11-14.01,6.01.1,12.09-.34,18.03.69,6.82,1.9,8.85,12.3,2.59,16.1Z"/>
  <path class="cls-1" d="M207.6,471.82l-18.44-.34-.66,1.69c-8.29,22-16.76,43.93-25.03,65.94l16.88-.02c1.56-4.97,3.13-9.93,4.69-14.9,8.59.08,17.17.16,25.76.23,1.76,4.9,3.44,9.83,5.32,14.69h16.28c-8.46-22.36-16.39-44.92-24.8-67.3ZM205.36,511.45c-4.91.17-10.36.93-14.96-.5,1.91-7.55,4.66-14.9,7.53-22.14,1.67-.4,3.14,8.59,4.37,10.72.53,3.75,4.21,8.89,3.06,11.92Z"/>
  <path class="cls-1" d="M230.74,562.26c-6.11,2.93-5.05,11.15,1.19,12.94,3.76.42,10.91,6.08,3.26,6.48-2.85.62-5.06-4.61-7.34-1.88-1.48,1.17-4.1,2.31-1.26,3.57,4.97,4.6,15.29,4.77,18-2.4,1.53-5.94-5.01-9.56-9.79-10.95-6.22-3.01,3.38-6.01,5.3-1.7,2.05-.75,5.79-5.36.83-6.07-3.13-1.5-7.1-1.71-10.19,0Z"/>
  <path class="cls-1" d="M332.3,561.56c-.1,5.75-.21,11.51-.32,17.26-2.32,2.69-6.73,4.28-9.18.78-1.66-1.34-.51-3.84-.85-5.72v-12.24h-6.22c.25,6.06.1,12.24.6,18.23,1.68,3.67,4.96,6.77,9.25,6.62,5.46,1.22,11.58-2.64,11.87-8.43.57-5.55.26-11.15.34-16.72-1.82.05-3.68-.15-5.48.22Z"/>
  <path class="cls-1" d="M349.2,561.54c-2.67-.51-1.39,2.5-1.67,4.11,1.3.61,3.74.09,5.48.26,2.73-.8,2.64,1.22,2.44,3.35v17.36c1.73-.2,4.26.4,5.48-.3v-20.4h7.92c1.49-5.7-4.77-4.37-8.56-4.41-3.69-.02-7.39-.19-11.08.03Z"/>
  <path class="cls-1" d="M381.17,561.53c-2.58-.51-2.96,1.01-2.59,3.24v21.85c1.73-.2,4.08.4,5.42-.3,1.21-6.74.45-13.71.51-20.54-.16-2.7.59-5.39-3.34-4.25Z"/>
  <path class="cls-1" d="M449.2,561.65c-.47,4.07,1.01,11.24-.84,13.58-3.53-4.32-6.87-8.81-9.79-13.57h-6.39s0,24.97,0,24.97h6.18c0-4.84-.31-9.9-.02-14.58,3.99,4.49,7.09,9.7,10.59,14.57,1.93,0,3.86,0,5.79,0v-24.85c-1.83-.07-3.7-.5-5.52-.13Z"/>
  <path class="cls-1" d="M469.11,562.62c-6.14,3.2-3.65,12.31,2.79,13.2,2.52.13,8.96,4.4,4.46,5.54-3.47,1.73-6.77-2.72-9.28-2.52-.66,1.29-4.17,2.78-2.62,3.9,4.83,4.35,13.64,6.02,18.02.19,1.19-1.76,2.07-3.65.87-5.63-1.18-6.13-9.38-5.01-12.09-9.42,1.46-4.44,6.15.1,8.05-.03,3.29-2.17,3.54-5.71-1.27-6.28-2.94-.91-6.34-.7-8.93,1.05Z"/>
  <path class="cls-1" d="M86.26,574.14v12.48h16.44c-.22-1.6.42-4.09-.3-5.16-3.35.14-6.7.28-10.05.42v-20.22h-6.09v12.48Z"/>
  <path class="cls-1" d="M145.94,574.17v12.52l5.79-.37c.09-4.85.16-9.7.28-14.55,4.1,4.63,7.37,10,11.24,14.86,1.63-.21,4.11.42,5.23-.3v-24.66c-1.73.2-4.26-.4-5.48.3-.11,4.56.32,9.19-.46,13.68-3.79-4.35-6.83-9.29-10.2-13.96l-6.39-.03v12.52Z"/>
  <path class="cls-1" d="M290.28,574.14v12.48h17.05c-.2-1.69.41-4.24-.3-5.38l-10.66.69v-20.28h-6.09v12.48Z"/>
  <path class="cls-1" d="M195.25,562.56c-1.62-1.28-4.01-.4-5.96-.76-3.09-.09-6.17-.19-9.26-.28l.17,12.4.17,12.4c6.66.44,14.91.9,19.15-5.3,3.79-6.02,2-14.84-4.26-18.46ZM190.9,581.17c-2.47.87-6.25,1.51-5.02-2.16.18-4.36-.09-8.93.45-13.13,1.97-.19,4.02.41,5.78,1.27,4.9,3.02,5.17,12.58-1.21,14.02Z"/>
  <path class="cls-1" d="M279.3,569.26c-2.77-6.7-11.35-10.22-17.95-7.06-3.62,1.49-6.25,4.9-7.73,8.34.27,2.76.1,5.68.64,8.34,2.78,4.72,7.77,8.33,13.46,7.91,8.57.17,14.9-9.8,11.58-17.54ZM264.16,581.16c-6.29-2.92-5.6-14.01,1.64-15.14,2.01-.4,4.17.23,5.67,1.62,1.87,1.02,2.27,2.77,2.18,4.76,1.68,5.58-3.92,11.58-9.5,8.77Z"/>
  <path class="cls-1" d="M418.68,565.87c-3.91-4.9-11.21-6.41-16.63-3.14-7.48,3.51-9.1,14.47-3.12,20.09,4.95,5.25,14.25,5.65,18.97-.13,4.83-4.24,5.34-12.19.77-16.83ZM408.78,581.75c-7.78.56-10.15-11.64-3.54-14.97,2.11-1.26,4.83-1.09,6.89.18,6.15,3.38,3.97,14.76-3.35,14.8Z"/>
  <path class="cls-1" d="M135.22,582.02c-2.52-6.8-4.99-13.63-7.69-20.37h-7.02l-.31,1.07c-2.69,7.84-5.83,15.53-8.36,23.42,1.69.12,5.88,1.45,6.17-1.27.37-1.98,1.08-3.5,3.38-2.9,2.64-.09,5.27-.18,7.91-.27.72,1.53.86,3.87,1.93,4.92,3.69.52,7.17-.35,4-4.6ZM122.05,572.71c.68-2.37,2.07-7.75,3.29-2.38.59,1.87,1.43,3.76,1.51,5.74-3.24,1.54-8,1.07-4.8-3.36Z"/>
</svg>